<svg id="Слой_1" xmlns="http://www.w3.org/2000/svg" xmlns:xlink="http://www.w3.org/1999/xlink" viewBox="0 0 77 71"><style>.st0{clip-path:url(#SVGID_2_);} .st1{fill:#1D1D1B;stroke:#1D1D1B;stroke-width:1.0001;stroke-miterlimit:22.9256;} .st2{fill:#1D1D1B;}</style><defs><path id="SVGID_1_" d="M16.8 15.5h31.3v31.3H16.8z"/></defs><clipPath id="SVGID_2_"><use xlink:href="#SVGID_1_" overflow="visible"/></clipPath><image width="132" height="128" xlink:href="A528E4D7BD78E24D.jpeg" transform="matrix(.237 0 0 .2443 16.82 15.544)" overflow="visible" class="st0"/><path class="st1" d="M9.5 61.3h41.1l14.6-14.7V10.2H24.1L9.5 24.9v36.4zm-.5.4v-37L23.8 9.8h41.7v37L50.7 61.7H9z"/><path class="st2" d="M47.5 42.3c0 .2 0 .3-.1.4s-.2.1-.4.1h-3.5c0 .2 0 .5.1.7s.1.4.3.5c.1.1.3.2.5.3.2.1.4.1.7.1.3 0 .5 0 .7-.1.2 0 .4-.1.6-.1s.3-.1.4-.1.2-.1.2-.1h.1l.1.1V45.1s0 .1-.1.1c0 0-.1.1-.2.1s-.3.1-.5.1-.4.1-.7.1c-.2 0-.5.1-.8.1-.5 0-.9-.1-1.3-.2s-.7-.3-1-.6c-.3-.3-.4-.6-.6-1-.1-.4-.2-.9-.2-1.4s.1-1 .2-1.4.3-.8.6-1c.3-.3.6-.5.9-.6.4-.1.8-.2 1.2-.2.5 0 .9.1 1.2.2.3.1.6.3.8.6.2.2.4.5.5.9.1.3.2.7.2 1.1l.1.3zm-1.5-.5c0-.5-.1-.8-.3-1.1-.2-.3-.5-.4-.9-.4-.2 0-.4 0-.5.1-.2.1-.3.2-.4.3-.1.1-.2.3-.2.5-.1.2-.1.4-.1.6H46zM53.1 44.4v.6s0 .1-.1.1-.1.1-.3.2c-.1.1-.3.1-.4.2-.2.1-.3.1-.5.1s-.4.1-.6.1c-.4 0-.8-.1-1.2-.2-.3-.1-.6-.3-.9-.6-.2-.3-.4-.6-.5-1s-.2-.8-.2-1.3c0-.6.1-1.1.2-1.5s.3-.8.6-1c.3-.3.6-.5.9-.6s.7-.2 1.1-.2h.5s.3.1.5.1c.1.1.3.1.4.2s.2.1.2.2l.1.1V40.5c0 .2 0 .4-.1.5 0 .1-.1.1-.2.1s-.1 0-.2-.1-.2-.1-.3-.2c-.1-.1-.2-.1-.4-.2s-.3-.1-.5-.1c-.4 0-.7.2-1 .5-.2.3-.3.8-.3 1.4 0 .3 0 .6.1.8.1.2.1.4.2.6s.2.3.4.4c.2.1.4.1.6.1s.4 0 .6-.1.3-.1.4-.2.2-.2.3-.2c.1-.1.1-.1.2-.1h.1s0 .1.1.1v.2c.2.1.2.2.2.4zM60 42.4c0 .5-.1.9-.2 1.3s-.3.7-.6 1c-.3.3-.6.5-1 .7s-.8.2-1.4.2c-.5 0-.9-.1-1.3-.2s-.7-.3-.9-.6c-.2-.3-.4-.6-.5-1s-.2-.8-.2-1.3.1-.9.2-1.3.3-.7.6-1c.3-.3.6-.5 1-.7s.8-.2 1.4-.2c.5 0 1 .1 1.3.2.4.1.7.3.9.6.2.3.4.6.5 1 .1.3.2.8.2 1.3zm-1.7 0c0-.3 0-.5-.1-.8 0-.2-.1-.4-.2-.6s-.2-.3-.4-.4c-.2-.1-.4-.1-.7-.1-.2 0-.4 0-.6.1s-.3.2-.4.4l-.3.6c-.1.2-.1.5-.1.8s0 .5.1.8c0 .2.1.4.2.6s.2.3.4.4c.2.1.4.1.7.1.2 0 .5 0 .6-.1.2-.1.3-.2.4-.4l.3-.6c.1-.2.1-.5.1-.8zM23.7 51.9v.4H23.4 23l-.1.1c0 .1-.1.1-.1.2v.6H23.6l.1.1V53.9c0 .1-.1.1-.1.1h-.7v3.2l-.1.1h-1s-.1 0-.1-.1V54h-.5c-.1 0-.1 0-.1-.1v-.3-.2-.1s0-.1.1-.1h.6v-.3c0-.3 0-.5.1-.7s.1-.4.2-.5.2-.2.4-.3c.2-.1.4-.1.6-.1h.3c.1 0 .2 0 .2.1.1 0 .1 0 .1.1v.4zM26.6 53.7v.6h-.1H25.9s-.1.1-.2.1l-.2.2s-.1.2-.2.3v2.5l-.1.1h-1s-.1 0-.1-.1v-4l.1-.1h.6s.1 0 .1.1v.6c.1-.1.2-.3.3-.3.1-.1.2-.2.3-.2.1-.1.2-.1.2-.1h.6v.2c.3-.1.3 0 .3.1zM28.3 57.1c0 .1 0 .1 0 0 0 .1-.1.1-.1.1h-1s-.1 0-.1-.1v-4l.1-.1h1s.1 0 .1.1v4zm.1-5c0 .2 0 .4-.1.4-.1.1-.3.1-.5.1s-.4 0-.5-.1-.1-.2-.1-.4 0-.4.1-.4c.1-.1.2-.1.5-.1.2 0 .4 0 .5.1 0 0 .1.2.1.4zM32.8 55.1c0 .1 0 .2-.1.3-.1.1-.1.1-.2.1h-2.3c0 .2 0 .3.1.4 0 .1.1.2.2.3.1.1.2.2.3.2.1 0 .3.1.5.1h.5s.3-.1.4-.1.2-.1.3-.1H32.8v.9s-.1 0-.2.1c-.1 0-.2.1-.3.1-.1 0-.3.1-.4.1h-.5c-.3 0-.6 0-.9-.1s-.5-.2-.6-.4c-.2-.2-.3-.4-.4-.7-.1-.3-.1-.6-.1-.9s0-.6.1-.9.2-.5.4-.7c.2-.2.4-.3.6-.4s.5-.1.8-.1.6 0 .8.1c.2.1.4.2.6.4.1.2.3.4.3.6.1.2.1.5.1.7h-.3zm-1-.3c0-.3-.1-.5-.2-.7s-.3-.3-.6-.3c-.1 0-.3 0-.4.1s-.2.1-.3.2c-.1.1-.1.2-.2.3 0 .1-.1.2-.1.4h1.8zM37.3 57.1c0 .1 0 .1 0 0 0 .1-.1.1-.1.1h-1s-.1 0-.1-.1V55v-.4s-.1-.2-.1-.3l-.2-.2c-.1 0-.2-.1-.3-.1-.1 0-.3 0-.4.1s-.3.2-.4.4v2.6l-.1.1h-1s-.1 0-.1-.1v-4l.1-.1h.6s.1 0 .1.1v.5c.2-.2.4-.4.6-.5s.4-.2.7-.2c.3 0 .5 0 .7.1s.3.2.4.3c.1.1.2.3.2.5s.1.4.1.7v2.6h.3zM42 57.1c0 .1 0 .1 0 0 0 .1-.1.1-.1.1h-.6s-.1 0-.1-.1v-.5c-.2.2-.4.4-.6.5s-.5.2-.7.2c-.3 0-.5-.1-.7-.2s-.4-.3-.5-.5-.2-.4-.3-.7c-.1-.3-.1-.5-.1-.8s0-.6.1-.9.2-.5.3-.7c.1-.2.3-.3.5-.4s.4-.2.7-.2c.2 0 .4 0 .6.1s.3.2.5.4v-2.2l.1-.1h1s.1 0 .1.1V57.1H42zm-1.1-2.5l-.4-.4s-.3-.2-.4-.2-.3 0-.4.1-.2.2-.2.3c-.1.1-.1.2-.1.4v.9s.1.3.1.4c.1.1.1.2.2.3.1.1.2.1.4.1h.2s.1-.1.2-.1.1-.1.2-.2l.3-.3v-1.3h-.1zM44.1 57.1c0 .1 0 .1 0 0 0 .1-.1.1-.1.1h-1s-.1 0-.1-.1V51.3l.1-.1h1s.1 0 .1.1v5.8zM47.4 57.3l-.5 1.3c0 .1-.1.1-.2.2h-1l-.1-.1v-.1l.5-1.3s-.1 0-.1-.1l-.1-.1-1.3-3.5c0-.1-.1-.2-.1-.2 0-.1 0-.1.1-.1 0 0 .1-.1.2-.1h.8s.1 0 .1.1c0 0 0 .1.1.2l.9 2.5.8-2.6c0-.1 0-.1.1-.1 0 0 .1 0 .1-.1h.6c.1 0 .1 0 .2.1l.1.1v.2l-1.2 3.7z"/></svg>