<?xml version="1.0" encoding="utf-8"?>
<!-- Generator: Adobe Illustrator 21.0.0, SVG Export Plug-In . SVG Version: 6.00 Build 0)  -->
<svg version="1.1" id="Слой_1" xmlns="http://www.w3.org/2000/svg" xmlns:xlink="http://www.w3.org/1999/xlink" x="0px" y="0px"
	 viewBox="0 0 73 64" style="enable-background:new 0 0 73 64;" xml:space="preserve">
<style type="text/css">
	.st0{fill:#3FAE2A;stroke:#3FAE2A;stroke-width:0.216;stroke-miterlimit:22.9256;}
	.st1{fill:#FF5000;stroke:#FF5000;stroke-width:0.216;stroke-miterlimit:22.9256;}
	.st2{fill:#1D1D1B;stroke:#1D1D1B;stroke-width:1.0001;stroke-miterlimit:22.9256;}
	.st3{fill:#1D1D1B;}
</style>
<g>
	<polygon class="st0" points="34.6,18.8 34,20.1 34.6,21.3 35.4,22.9 34.6,24.4 34,25.7 34.6,27 35.4,28.5 34.6,30.1 34,31.3 
		34.6,32.6 35.4,34.2 34.6,35.7 34,37 34.6,38.2 35.4,39.8 34.6,41.3 40.6,41.3 47.2,34.9 47.2,18.8 	"/>
	<polygon class="st1" points="34.9,28.5 34.2,27 33.6,25.7 34.2,24.4 34.9,22.9 34.2,21.3 33.6,20.1 34.2,18.8 28.2,18.8 21.6,25.5 
		21.6,41.3 34.2,41.3 34.9,39.8 34.2,38.2 33.6,37 34.2,35.7 34.9,34.2 34.2,32.6 33.6,31.3 34.2,30.1 	"/>
	<path class="st2" d="M6.3,57.6h41.1L62,42.9V6.5H20.9L6.3,21.2L6.3,57.6L6.3,57.6z M5.9,58.1V21.2v-0.1L20.7,6.2h41.7v37L47.6,58.1
		H5.9z"/>
	<polygon class="st3" points="57.5,30.1 54.9,24.8 54.9,27.1 45.2,27.1 45.2,33 54.9,33 54.9,35.3 	"/>
	<polygon class="st3" points="11.2,30.1 13.9,35.3 13.9,33 23.6,33 23.6,27.1 13.9,27.1 13.9,24.8 	"/>
	<polygon class="st3" points="26,28.6 26,28.6 25.3,29 25.2,28.6 26.1,28.1 26.6,28.1 26.6,32.2 26,32.2 	"/>
	<path class="st3" d="M28.6,30.2c0,1.1,0.3,1.7,0.8,1.7c0.6,0,0.8-0.7,0.8-1.7s-0.3-1.7-0.8-1.7C28.9,28.5,28.6,29.1,28.6,30.2
		L28.6,30.2z M30.8,30.1c0,1.4-0.5,2.2-1.4,2.2c-0.8,0-1.4-0.8-1.4-2.1c0-1.4,0.6-2.1,1.4-2.1C30.3,28,30.8,28.8,30.8,30.1z"/>
	<path class="st3" d="M31.8,30.2c0,1.1,0.3,1.7,0.8,1.7c0.6,0,0.8-0.7,0.8-1.7s-0.3-1.7-0.8-1.7C32.2,28.5,31.8,29.1,31.8,30.2
		L31.8,30.2z M34.1,30.1c0,1.4-0.5,2.2-1.4,2.2c-0.8,0-1.4-0.8-1.4-2.1c0-1.4,0.6-2.1,1.4-2.1C33.6,28,34.1,28.8,34.1,30.1z"/>
	<path class="st3" d="M36.7,30.6L36.7,30.6c0.1-0.1,0.2-0.2,0.3-0.3l0.9-1.1h0.7l-1.2,1.3l1.4,1.8H38l-1.1-1.5l-0.3,0.3v1.2H36v-4.5
		h0.6L36.7,30.6L36.7,30.6z"/>
	<path class="st3" d="M41.2,30.4c0-0.1,0-0.2,0-0.3c-0.1-0.3-0.4-0.6-0.8-0.6c-0.5,0-0.9,0.4-0.9,1.2c0,0.6,0.3,1.1,0.9,1.1
		c0.3,0,0.7-0.2,0.8-0.6c0-0.1,0-0.2,0-0.3V30.4L41.2,30.4z M41.7,31.8c0,0.7-0.1,1.1-0.4,1.4c-0.3,0.3-0.7,0.4-1.1,0.4
		c-0.4,0-0.8-0.1-1-0.3l0.1-0.4c0.2,0.1,0.5,0.2,0.9,0.2c0.6,0,1-0.3,1-1.1v-0.3l0,0c-0.2,0.3-0.5,0.5-1,0.5c-0.8,0-1.3-0.6-1.3-1.5
		c0-1,0.7-1.6,1.4-1.6c0.5,0,0.8,0.3,1,0.5l0,0v-0.5h0.5c0,0.2,0,0.5,0,0.8v1.9H41.7z"/>
	<path class="st3" d="M30.5,48.8c0-0.4,0-0.8-0.1-1.2s-0.2-0.7-0.4-0.9c-0.2-0.3-0.4-0.5-0.7-0.6s-0.6-0.2-1-0.2s-0.8,0.1-1,0.2
		c-0.3,0.2-0.5,0.4-0.7,0.6c-0.2,0.3-0.3,0.6-0.4,0.9c-0.1,0.4-0.1,0.7-0.1,1.1c0,0.5,0,0.9,0.1,1.2c0.1,0.4,0.2,0.7,0.3,0.9
		c0.2,0.3,0.4,0.5,0.7,0.6s0.6,0.2,1,0.2s0.8-0.1,1-0.2c0.3-0.2,0.5-0.4,0.7-0.6c0.2-0.3,0.3-0.6,0.4-0.9
		C30.4,49.6,30.5,49.2,30.5,48.8L30.5,48.8z M32.2,48.8c0,0.7-0.1,1.3-0.3,1.9c-0.2,0.5-0.4,1-0.8,1.4c-0.3,0.4-0.8,0.7-1.3,0.9
		s-1.1,0.3-1.7,0.3c-0.7,0-1.2-0.1-1.7-0.3s-0.9-0.4-1.2-0.8c-0.3-0.4-0.6-0.8-0.7-1.3c-0.2-0.5-0.2-1.2-0.2-1.9s0.1-1.3,0.3-1.8
		s0.4-1,0.8-1.4c0.3-0.4,0.8-0.7,1.3-0.9s1.1-0.3,1.8-0.3c0.6,0,1.2,0.1,1.7,0.3s0.9,0.4,1.2,0.8c0.3,0.3,0.6,0.8,0.7,1.3
		C32.2,47.4,32.2,48,32.2,48.8z"/>
	<path class="st3" d="M39.9,52.8v0.1L39.8,53c-0.1,0-0.2,0-0.3,0s-0.3,0-0.4,0c-0.2,0-0.3,0-0.4,0c-0.1,0-0.2,0-0.3,0
		s-0.1-0.1-0.2-0.1c0,0-0.1-0.1-0.1-0.2l-0.7-1.9c-0.1-0.3-0.2-0.5-0.3-0.7s-0.2-0.3-0.3-0.4c-0.1-0.1-0.3-0.2-0.4-0.2
		c-0.2,0-0.3-0.1-0.5-0.1h-0.4v3.4v0.1L35.4,53c-0.1,0-0.2,0-0.3,0s-0.2,0-0.4,0s-0.3,0-0.4,0c-0.1,0-0.2,0-0.3,0s-0.1-0.1-0.1-0.1
		v-0.1v-7.9v-0.1l0.1-0.1c0.1,0,0.2,0,0.3,0s0.2,0,0.4,0s0.3,0,0.4,0c0.1,0,0.2,0,0.3,0s0.1,0,0.1,0.1v0.1V48h0.4
		c0.2,0,0.4,0,0.5-0.1s0.3-0.1,0.4-0.2c0.1-0.1,0.2-0.3,0.3-0.4c0.1-0.2,0.2-0.4,0.3-0.7l0.6-1.7c0-0.1,0-0.1,0.1-0.2l0.1-0.1
		c0.1,0,0.2,0,0.3,0s0.3,0,0.4,0c0.2,0,0.3,0,0.4,0c0.1,0,0.2,0,0.3,0s0.1,0,0.1,0.1v0.1c0,0.1,0,0.1,0,0.2c0,0.1-0.1,0.2-0.1,0.3
		L39,46.8c-0.1,0.3-0.2,0.5-0.3,0.7s-0.2,0.4-0.3,0.5s-0.2,0.2-0.4,0.3c-0.1,0.1-0.3,0.2-0.4,0.2l0,0c0.2,0.1,0.3,0.2,0.5,0.2
		c0.1,0.1,0.3,0.2,0.4,0.4c0.1,0.1,0.2,0.3,0.3,0.5s0.2,0.5,0.3,0.8l0.7,1.7c0.1,0.2,0.1,0.3,0.1,0.4C39.9,52.7,39.9,52.8,39.9,52.8
		z"/>
	<path class="st3" d="M43.3,50.3v0.1l-0.1,0.1c-0.1,0-0.1,0-0.2,0.1c-0.1,0-0.2,0-0.3,0s-0.3,0-0.3,0c-0.1,0-0.2,0-0.2-0.1
		c-0.1,0-0.1-0.1-0.1-0.1v-0.1l-0.2-5.9c0-0.1,0-0.1,0-0.1l0.1-0.1c0.1,0,0.2,0,0.3-0.1c0.1,0,0.3,0,0.4,0c0.2,0,0.3,0,0.4,0
		c0.1,0,0.2,0,0.3,0.1c0.1,0,0.1,0.1,0.1,0.1v0.1L43.3,50.3L43.3,50.3z M43.5,52.2c0,0.2,0,0.3,0,0.4c0,0.1-0.1,0.2-0.1,0.3
		c-0.1,0.1-0.2,0.1-0.3,0.2c-0.1,0-0.3,0-0.4,0c-0.2,0-0.3,0-0.4,0c-0.1,0-0.2-0.1-0.3-0.2c-0.1-0.1-0.1-0.2-0.1-0.3s0-0.3,0-0.4
		c0-0.2,0-0.3,0-0.5c0-0.1,0.1-0.2,0.1-0.3c0.1-0.1,0.2-0.1,0.3-0.2c0.1,0,0.3,0,0.4,0c0.2,0,0.3,0,0.4,0c0.1,0,0.2,0.1,0.3,0.2
		c0.1,0.1,0.1,0.2,0.1,0.3C43.5,51.9,43.5,52,43.5,52.2z"/>
</g>
</svg>
