<?xml version="1.0" encoding="utf-8"?>
<!-- Generator: Adobe Illustrator 21.0.0, SVG Export Plug-In . SVG Version: 6.00 Build 0)  -->
<svg version="1.1" id="Слой_1" xmlns="http://www.w3.org/2000/svg" xmlns:xlink="http://www.w3.org/1999/xlink" x="0px" y="0px"
	 viewBox="0 0 72 66" style="enable-background:new 0 0 72 66;" xml:space="preserve">
<style type="text/css">
	.st0{fill:#1D1D1B;}
	.st1{fill:#1D1D1B;stroke:#1D1D1B;stroke-width:1.0001;stroke-miterlimit:22.9256;}
	.st2{fill:#1D1D1B;stroke:#1D1D1B;stroke-width:0.5;stroke-miterlimit:22.9256;}
	.st3{fill:#FF5000;stroke:#FF5000;stroke-width:0.216;stroke-miterlimit:22.9256;}
	.st4{fill:#3FAE2A;stroke:#3FAE2A;stroke-width:0.216;stroke-miterlimit:22.9256;}
</style>
<g>
	<path class="st0" d="M33.5,48.7c0-0.4,0-0.8-0.1-1.2c-0.1-0.4-0.2-0.7-0.4-0.9c-0.2-0.3-0.4-0.5-0.7-0.6c-0.3-0.1-0.6-0.2-1-0.2
		s-0.8,0.1-1,0.2c-0.3,0.2-0.5,0.4-0.7,0.6c-0.2,0.3-0.3,0.6-0.4,0.9c-0.1,0.4-0.1,0.7-0.1,1.1c0,0.5,0,0.9,0.1,1.2
		c0.1,0.4,0.2,0.7,0.4,0.9c0.2,0.3,0.4,0.5,0.7,0.6c0.3,0.1,0.6,0.2,1,0.2s0.8-0.1,1.1-0.2c0.3-0.2,0.5-0.4,0.7-0.6
		c0.2-0.3,0.3-0.6,0.4-0.9C33.4,49.5,33.5,49.1,33.5,48.7L33.5,48.7z M35.2,48.6c0,0.7-0.1,1.3-0.3,1.9c-0.2,0.6-0.4,1-0.8,1.4
		c-0.3,0.4-0.8,0.7-1.3,0.9c-0.5,0.2-1.1,0.3-1.7,0.3c-0.7,0-1.2-0.1-1.7-0.3c-0.5-0.2-0.9-0.4-1.2-0.8c-0.3-0.4-0.6-0.8-0.7-1.3
		c-0.2-0.5-0.2-1.2-0.2-1.9c0-0.7,0.1-1.3,0.3-1.8c0.2-0.5,0.4-1,0.8-1.4c0.3-0.4,0.8-0.7,1.3-0.9c0.5-0.2,1.1-0.3,1.8-0.3
		c0.6,0,1.2,0.1,1.7,0.3c0.5,0.2,0.9,0.4,1.2,0.8c0.3,0.4,0.6,0.8,0.7,1.3C35.2,47.3,35.2,47.9,35.2,48.6z"/>
	<path class="st0" d="M42.9,52.7v0.1l-0.1,0.1c-0.1,0-0.2,0-0.3,0c-0.1,0-0.3,0-0.4,0c-0.2,0-0.3,0-0.4,0s-0.2,0-0.3-0.1
		c-0.1,0-0.1-0.1-0.2-0.1c0,0-0.1-0.1-0.1-0.2l-0.7-1.9c-0.1-0.3-0.2-0.5-0.3-0.7c-0.1-0.2-0.2-0.3-0.3-0.4
		c-0.1-0.1-0.3-0.2-0.4-0.2c-0.2,0-0.3-0.1-0.5-0.1h-0.4v3.4v0.1l-0.1,0.1c-0.1,0-0.2,0-0.3,0.1c-0.1,0-0.2,0-0.4,0s-0.3,0-0.4,0
		s-0.2,0-0.3-0.1c-0.1,0-0.1-0.1-0.1-0.1v-0.1v-7.9v-0.1l0.1-0.1c0.1,0,0.2,0,0.3,0c0.1,0,0.2,0,0.4,0s0.3,0,0.4,0s0.2,0,0.3,0
		c0.1,0,0.1,0.1,0.1,0.1v0.1v3.1h0.4c0.2,0,0.4,0,0.5-0.1s0.3-0.1,0.4-0.2s0.2-0.3,0.3-0.4c0.1-0.2,0.2-0.4,0.3-0.7l0.6-1.7
		c0-0.1,0-0.1,0.1-0.2l0.1-0.1c0.1,0,0.2,0,0.3,0c0.1,0,0.3,0,0.4,0c0.2,0,0.3,0,0.4,0s0.2,0,0.3,0c0.1,0,0.1,0,0.1,0.1v0.1
		c0,0.1,0,0.1,0,0.2s-0.1,0.2-0.1,0.3L42,46.6c-0.1,0.3-0.2,0.5-0.3,0.7c-0.1,0.2-0.2,0.4-0.3,0.5c-0.1,0.1-0.2,0.2-0.4,0.3
		c-0.1,0.1-0.3,0.2-0.4,0.2l0,0c0.2,0.1,0.3,0.2,0.5,0.3c0.1,0.1,0.3,0.2,0.4,0.4c0.1,0.1,0.2,0.3,0.4,0.5c0.1,0.2,0.2,0.5,0.3,0.8
		l0.7,1.7c0.1,0.2,0.1,0.3,0.1,0.4C42.9,52.6,42.9,52.7,42.9,52.7z"/>
	<path class="st0" d="M46.4,50.2v0.1l-0.1,0.1c-0.1,0-0.1,0-0.2,0.1c-0.1,0-0.2,0-0.3,0c-0.1,0-0.3,0-0.3,0c-0.1,0-0.2,0-0.2-0.1
		c-0.1,0-0.1-0.1-0.1-0.1v-0.1L45,44.3c0-0.1,0-0.1,0-0.1l0.1-0.1c0.1,0,0.2,0,0.3-0.1c0.1,0,0.3,0,0.4,0c0.2,0,0.3,0,0.4,0
		s0.2,0,0.3,0.1c0.1,0,0.1,0.1,0.1,0.1v0.1L46.4,50.2L46.4,50.2z M46.6,52.1c0,0.2,0,0.3,0,0.4s-0.1,0.2-0.1,0.3
		c-0.1,0.1-0.2,0.1-0.3,0.2c-0.1,0-0.3,0-0.4,0c-0.2,0-0.3,0-0.4,0s-0.2-0.1-0.3-0.2C45,52.7,45,52.6,45,52.5c0-0.1,0-0.3,0-0.4
		c0-0.2,0-0.3,0-0.5c0-0.1,0.1-0.2,0.1-0.3c0.1-0.1,0.2-0.1,0.3-0.2c0.1,0,0.3,0,0.4,0c0.2,0,0.3,0,0.4,0s0.2,0.1,0.3,0.2
		c0.1,0.1,0.1,0.2,0.1,0.3C46.5,51.7,46.6,51.9,46.6,52.1z"/>
	<path class="st1" d="M9.3,57h41.1L65,42.3V5.9H23.9L9.3,20.6V57L9.3,57z M8.9,57.4V20.5v-0.1L23.7,5.5h41.7v37L50.6,57.4H8.9z"/>
	<polygon class="st2" points="36.3,28.6 25.9,39.1 21.8,35 22,34.8 20.3,34 21.1,35.7 21.3,35.5 25.4,39.6 25.9,40.1 36.8,29.1 	"/>
	<polygon class="st2" points="43.2,28.6 32.8,39.1 28.7,35 28.9,34.8 27.2,34 28,35.7 28.2,35.5 32.3,39.6 32.8,40.1 43.7,29.1 	"/>
	<polygon class="st2" points="49.9,28.6 39.4,39.1 35.3,35 35.5,34.8 33.9,34 34.7,35.7 34.8,35.5 38.9,39.6 39.4,40.1 50.4,29.1 	
		"/>
	<path class="st0" d="M53.1,19.7c0,0.3,0,0.5-0.1,0.7s-0.2,0.4-0.3,0.5c-0.2,0.1-0.3,0.3-0.6,0.3c-0.2,0.1-0.5,0.1-0.8,0.1
		s-0.5,0-0.7-0.1S50.2,21,50,20.9s-0.3-0.3-0.3-0.5c-0.1-0.2-0.1-0.5-0.1-0.7V17c0,0,0,0,0-0.1c0,0,0,0,0.1,0h0.1c0.1,0,0.1,0,0.2,0
		s0.2,0,0.2,0c0.1,0,0.1,0,0.1,0h0.1c0,0,0,0,0,0.1v2.6c0,0.2,0,0.3,0.1,0.4c0,0.1,0.1,0.2,0.2,0.3s0.2,0.1,0.3,0.2
		c0.1,0,0.2,0.1,0.4,0.1c0.1,0,0.3,0,0.4-0.1c0.1,0,0.2-0.1,0.3-0.2c0.1-0.1,0.1-0.2,0.2-0.3c0-0.1,0.1-0.3,0.1-0.4V17
		c0,0,0,0,0-0.1c0,0,0,0,0.1,0h0.1c0.1,0,0.1,0,0.2,0s0.2,0,0.2,0c0.1,0,0.1,0,0.1,0h0.1c0,0,0,0,0,0.1v2.7H53.1z"/>
	<path class="st0" d="M56.2,21.2L56.2,21.2c-0.1,0.1-0.1,0.1-0.1,0.1s-0.1,0-0.2,0s-0.2,0-0.3,0c-0.1,0-0.2,0-0.2,0
		c-0.1,0-0.1,0-0.2,0h-0.1H55l0,0c0,0,0,0,0-0.1l-1.3-3.9c0-0.1,0-0.1-0.1-0.2V17h0.1c0.1,0,0.2,0,0.3,0c0.1,0,0.2,0,0.2,0
		c0.1,0,0.1,0,0.1,0s0.1,0,0.1,0.1c0,0,0,0,0,0.1l1.1,3.4l0,0l1-3.3v-0.1c0,0,0,0,0.1-0.1h0.1c0.1,0,0.1,0,0.2,0s0.2,0,0.2,0
		c0.1,0,0.1,0,0.1,0v0.1c0,0,0,0.1,0,0.2L56.2,21.2z"/>
	<path class="st2" d="M48.6,18.8c0,2.7,2.2,4.9,4.9,4.9c2.7,0,4.9-2.2,4.9-4.9s-2.2-4.9-4.9-4.9C50.8,13.9,48.6,16.1,48.6,18.8
		L48.6,18.8z M48.2,18.8c0-2.9,2.4-5.3,5.3-5.3s5.3,2.4,5.3,5.3c0,2.9-2.4,5.3-5.3,5.3C50.5,24.2,48.2,21.8,48.2,18.8z"/>
	<rect x="53.3" y="8.2" class="st2" width="0.4" height="4.6"/>
	<rect x="53.3" y="25" class="st2" width="0.4" height="4.6"/>
	<rect x="57.1" y="12.7" transform="matrix(0.7071 -0.7071 0.7071 0.7071 8.2558 45.77)" class="st2" width="4.6" height="0.4"/>
	<rect x="45.2" y="24.7" transform="matrix(0.7071 -0.7071 0.7071 0.7071 -3.6711 40.8683)" class="st2" width="4.6" height="0.4"/>
	<rect x="59.5" y="18.6" class="st2" width="4.6" height="0.4"/>
	<rect x="42.8" y="18.6" class="st2" width="4.6" height="0.4"/>
	
		<rect x="59.2" y="22.5" transform="matrix(0.7051 -0.7092 0.7092 0.7051 -5.039489e-02 49.4477)" class="st2" width="0.4" height="4.6"/>
	<rect x="47.3" y="10.6" transform="matrix(0.704 -0.7102 0.7102 0.704 4.9469 37.5713)" class="st2" width="0.4" height="4.6"/>
	<polygon class="st3" points="41.5,41.8 41.5,40.1 46.6,40.1 48.4,41.8 	"/>
	<rect x="51.9" y="40.1" class="st3" width="5.2" height="1.7"/>
	<rect x="17.3" y="40.1" class="st4" width="5.2" height="1.7"/>
	<polygon class="st4" points="38,41.8 36.3,40.1 41.5,40.1 43.2,41.8 	"/>
	<polygon class="st3" points="32.8,41.8 31.1,40.1 36.3,40.1 38,41.8 	"/>
	<polygon class="st4" points="27.6,41.8 25.9,40.1 31.1,40.1 32.8,41.8 	"/>
	<polygon class="st4" points="48.4,41.8 46.6,40.1 51.8,40.1 53.6,41.8 	"/>
	<polygon class="st3" points="22.4,41.8 20.7,40.1 25.9,40.1 27.6,41.8 	"/>
</g>
</svg>
