<svg id="Слой_1" xmlns="http://www.w3.org/2000/svg" viewBox="0 0 69 68"><style>.st0{fill:#1D1D1B;stroke:#1D1D1B;stroke-width:1.0001;stroke-miterlimit:22.9256;} .st1{fill:#1D1D1B;} .st2{fill:#FF5000;stroke:#FF5000;stroke-width:0.216;stroke-miterlimit:22.9256;} .st3{fill:#3FAE2A;stroke:#3FAE2A;stroke-width:0.216;stroke-miterlimit:22.9256;} .st4{fill:#1D1D1B;stroke:#1D1D1B;stroke-width:0.5;stroke-miterlimit:22.9256;}</style><path class="st0" d="M7.4 60h41.1l14.6-14.7V8.9H22L7.4 23.6V60zm-.4.4v-37L21.8 8.5h41.7v37L48.7 60.4H7z"/><path class="st1" d="M47.8 33.2c0-.4 0-.8-.1-1.2-.1-.4-.2-.7-.4-.9-.2-.3-.4-.5-.7-.6-.3-.1-.6-.2-1-.2s-.8.1-1.1.2c-.3.2-.5.4-.7.6-.2.3-.3.6-.4.9-.1.4-.1.7-.1 1.1 0 .5 0 .9.1 1.2.1.4.2.7.4.9.2.3.4.5.7.6.3.1.6.2 1 .2s.8-.1 1-.2c.3-.2.5-.4.7-.6.2-.3.3-.6.4-.9.2-.3.2-.7.2-1.1zm1.8-.1c0 .7-.1 1.3-.3 1.9-.2.6-.4 1-.8 1.4-.3.4-.8.7-1.3.9-.5.2-1.1.3-1.7.3-.7 0-1.2-.1-1.7-.3-.5-.2-.9-.4-1.2-.8-.3-.3-.6-.8-.7-1.3-.2-.5-.2-1.2-.2-1.9s.1-1.3.3-1.8c.2-.5.4-1 .8-1.4.3-.4.8-.7 1.3-.9.5-.2 1.1-.3 1.8-.3.6 0 1.2.1 1.7.3.5.2.9.4 1.2.8.3.3.6.8.7 1.3 0 .5.1 1.1.1 1.8zM57.2 37.2v.1l-.1.1h-1.2c-.1 0-.2 0-.3-.1-.1 0-.1-.1-.2-.1 0 0-.1-.1-.1-.2l-.7-1.9c-.1-.3-.2-.5-.3-.7-.1-.2-.2-.3-.3-.4-.1-.1-.3-.2-.4-.2-.2 0-.3-.1-.5-.1h-.4v3.5l-.1.1c-.1 0-.2 0-.3.1h-.8s-.2 0-.3-.1c-.1 0-.1-.1-.1-.1v-8.1l.1-.1H52.6c.1 0 .1 0 .1.1v3.2h.4c.2 0 .4 0 .5-.1s.3-.1.4-.2.2-.3.3-.4c.1-.2.2-.4.3-.7l.6-1.7c0-.1 0-.1.1-.2l.1-.1H56.8c.1 0 .1 0 .1.1V29.3s-.1.2-.1.3l-.6 1.5c-.1.3-.2.5-.3.7-.1.2-.2.4-.3.5-.1.1-.2.2-.4.3-.1.1-.3.2-.4.2.2.1.3.2.5.2.1.1.3.2.4.4.1.1.2.3.3.5.1.2.2.5.3.8l.7 1.7c.1.2.1.3.1.4.1.3.1.3.1.4zM60.7 34.6v.1l-.1.1c-.1 0-.1 0-.2.1h-.6c-.1 0-.2 0-.2-.1-.1 0-.1-.1-.1-.1v-.1l-.2-5.9v-.1l.1-.1c.1 0 .2 0 .3-.1h.8s.2 0 .3.1c.1 0 .1.1.1.1v.1l-.2 5.9zm.2 1.9v.4s-.1.2-.1.3c-.1.1-.2.1-.3.2h-.8s-.2-.1-.3-.2c-.1-.1-.1-.2-.1-.3v-.4-.5c0-.1.1-.2.1-.3.1-.1.2-.1.3-.2h.8s.2.1.3.2c.1.1.1.2.1.3v.5z"/><path class="st2" d="M36.9 19.7h1.7v5.2h-1.7z"/><path class="st3" d="M36.9 43.9h1.7v5.2h-1.7zM38.6 28.3l-1.7 1.8v-5.2l1.7-1.7z"/><path class="st2" d="M38.6 33.5l-1.7 1.7v-5.1l1.7-1.8z"/><path class="st3" d="M38.6 38.7l-1.7 1.7v-5.2l1.7-1.7z"/><path class="st2" d="M38.6 43.9l-1.7 1.7v-5.2l1.7-1.7z"/><path class="st4" d="M10.695 31.887l13.594-3.745.105.386L10.8 32.273zM10.756 35.49l.106-.387 13.595 3.74-.106.386zM11 33.5h15.2v.4H11z"/><path class="st4" d="M22.2 43.2l.2-.4c.9.4 1.6.5 2.2.5 1.1 0 1.8-.5 2.2-1.1.4-.5.5-1.1.5-1.1V41h.1c1.7-.8 2.1-1.9 2.1-2.9 0-.5-.1-1-.2-1.3s-.2-.5-.2-.5l-.1-.2.1-.1c.9-.8 1.2-1.5 1.2-2.2s-.3-1.3-.6-1.7c-.3-.4-.6-.7-.6-.7l-.1-.1.1-.1s.4-.9.4-1.9-.3-2.1-1.8-2.7l-.1-.1v-.1c0-1.9-1.3-2.8-2.8-2.8-.7 0-1.6.2-2.3.7l-.2-.4c.8-.5 1.7-.8 2.5-.8s1.6.3 2.2.8.9 1.3 1 2.3c1.5.7 1.9 2 1.9 3 0 .9-.3 1.6-.4 1.9.3.3 1.2 1.3 1.2 2.6 0 .8-.3 1.6-1.2 2.4.2.3.5 1 .5 1.9 0 1.1-.5 2.4-2.2 3.2-.1.5-.9 2.4-3.2 2.4-.7.2-1.5 0-2.4-.4z"/></svg>