<?xml version="1.0" encoding="utf-8"?>
<!-- Generator: Adobe Illustrator 21.0.0, SVG Export Plug-In . SVG Version: 6.00 Build 0)  -->
<svg version="1.1" id="Слой_1" xmlns="http://www.w3.org/2000/svg" xmlns:xlink="http://www.w3.org/1999/xlink" x="0px" y="0px"
	 viewBox="0 0 71 66" style="enable-background:new 0 0 71 66;" xml:space="preserve">
<style type="text/css">
	.st0{fill:#1D1D1B;stroke:#1D1D1B;stroke-width:1.0001;stroke-miterlimit:22.9256;}
	.st1{fill:#1D1D1B;}
	.st2{fill:#1D1D1B;stroke:#1D1D1B;stroke-width:0.5;stroke-miterlimit:22.9256;}
	.st3{fill:#FF5000;stroke:#FF5000;stroke-width:0.216;stroke-miterlimit:22.9256;}
	.st4{fill:#3FAE2A;stroke:#3FAE2A;stroke-width:0.216;stroke-miterlimit:22.9256;}
</style>
<g>
	<path class="st0" d="M5.6,59.3h41.1l14.6-14.7V8.2H20.2L5.6,22.9V59.3L5.6,59.3z M5.2,59.7V22.8v-0.1L20,7.8h41.7v37L46.9,59.7H5.2
		z"/>
	<path class="st1" d="M29.8,51c0-0.4,0-0.8-0.1-1.2c-0.1-0.4-0.2-0.7-0.4-0.9c-0.2-0.3-0.4-0.5-0.7-0.6c-0.3-0.1-0.6-0.2-1-0.2
		s-0.8,0.1-1.1,0.2c-0.3,0.2-0.5,0.4-0.7,0.6c-0.2,0.3-0.3,0.6-0.4,0.9c-0.1,0.4-0.1,0.7-0.1,1.1c0,0.5,0,0.9,0.1,1.2
		c0.1,0.4,0.2,0.7,0.3,0.9c0.2,0.3,0.4,0.5,0.7,0.6c0.3,0.1,0.6,0.2,1,0.2s0.8-0.1,1.1-0.2c0.3-0.2,0.5-0.4,0.7-0.6
		c0.2-0.3,0.3-0.6,0.4-0.9C29.8,51.8,29.8,51.4,29.8,51L29.8,51z M31.6,50.9c0,0.7-0.1,1.3-0.3,1.9c-0.2,0.6-0.4,1-0.8,1.4
		c-0.3,0.4-0.8,0.7-1.3,0.9c-0.5,0.2-1.1,0.3-1.7,0.3c-0.7,0-1.2-0.1-1.7-0.3c-0.5-0.2-0.9-0.4-1.2-0.8C24.3,54,24,53.5,23.9,53
		c-0.2-0.5-0.2-1.2-0.2-1.9c0-0.7,0.1-1.3,0.3-1.8c0.2-0.5,0.4-1,0.8-1.4c0.3-0.4,0.8-0.7,1.3-0.9c0.5-0.2,1.1-0.3,1.8-0.3
		c0.6,0,1.2,0.1,1.7,0.3c0.5,0.2,0.9,0.4,1.2,0.8c0.3,0.4,0.6,0.8,0.7,1.3C31.5,49.6,31.6,50.2,31.6,50.9z"/>
	<path class="st1" d="M39.2,55v0.1l-0.1,0.1c-0.1,0-0.2,0-0.3,0c-0.1,0-0.3,0-0.4,0c-0.2,0-0.3,0-0.4,0s-0.2,0-0.3-0.1
		c-0.1,0-0.1-0.1-0.2-0.1c0,0-0.1-0.1-0.1-0.2l-0.7-1.9c-0.1-0.3-0.2-0.5-0.3-0.7c-0.1-0.2-0.2-0.3-0.3-0.4
		c-0.1-0.1-0.3-0.2-0.4-0.2c-0.2,0-0.3-0.1-0.5-0.1h-0.4v3.4V55l-0.1,0.1c-0.1,0-0.2,0-0.3,0.1c-0.1,0-0.2,0-0.4,0
		c-0.2,0-0.3,0-0.4,0s-0.2,0-0.3-0.1c-0.1,0-0.1-0.1-0.1-0.1v-0.1V47v-0.1l0.1-0.1c0.1,0,0.2,0,0.3,0c0.1,0,0.2,0,0.4,0
		c0.2,0,0.3,0,0.4,0s0.2,0,0.3,0c0.1,0,0.1,0.1,0.1,0.1V47v3.1h0.4c0.2,0,0.4,0,0.5-0.1s0.3-0.1,0.4-0.2s0.2-0.3,0.3-0.4
		c0.1-0.2,0.2-0.4,0.3-0.7l0.6-1.7c0-0.1,0-0.1,0.1-0.2l0.1-0.1c0.1,0,0.2,0,0.3-0.1c0.1,0,0.3,0,0.4,0c0.2,0,0.3,0,0.4,0
		s0.2,0,0.3,0c0.1,0,0.1,0,0.1,0.1v0.1c0,0.1,0,0.1,0,0.2s-0.1,0.2-0.1,0.3l-0.6,1.5c-0.1,0.3-0.2,0.5-0.3,0.7
		c-0.1,0.2-0.2,0.4-0.3,0.5c-0.1,0.1-0.2,0.2-0.4,0.3c-0.1,0.1-0.3,0.2-0.4,0.2l0,0c0.2,0.1,0.3,0.2,0.5,0.3
		c0.1,0.1,0.3,0.2,0.4,0.4c0.1,0.1,0.2,0.3,0.4,0.5c0.1,0.2,0.2,0.5,0.3,0.8l0.7,1.7c0.1,0.2,0.1,0.3,0.1,0.4
		C39.2,54.9,39.2,55,39.2,55z"/>
	<path class="st1" d="M42.7,52.5v0.1l-0.1,0.1c-0.1,0-0.1,0-0.2,0.1c-0.1,0-0.2,0-0.3,0c-0.1,0-0.3,0-0.3,0c-0.1,0-0.2,0-0.2-0.1
		c-0.1,0-0.1-0.1-0.1-0.1v-0.1l-0.2-5.9c0-0.1,0-0.1,0-0.1l0.1-0.1c0.1,0,0.2,0,0.3-0.1c0.1,0,0.3,0,0.4,0c0.2,0,0.3,0,0.4,0
		s0.2,0,0.3,0.1c0.1,0,0.1,0.1,0.1,0.1v0.1L42.7,52.5L42.7,52.5z M42.9,54.4c0,0.2,0,0.3,0,0.4s-0.1,0.2-0.1,0.3
		c-0.1,0.1-0.2,0.1-0.3,0.2c-0.1,0-0.3,0-0.4,0c-0.2,0-0.3,0-0.4,0s-0.2-0.1-0.3-0.2c-0.1-0.1-0.1-0.2-0.1-0.3c0-0.1,0-0.3,0-0.4
		c0-0.2,0-0.3,0-0.5c0-0.1,0.1-0.2,0.1-0.3c0.1-0.1,0.2-0.1,0.3-0.2c0.1,0,0.3,0,0.4,0c0.2,0,0.3,0,0.4,0s0.2,0.1,0.3,0.2
		c0.1,0.1,0.1,0.2,0.1,0.3C42.9,54.1,42.9,54.2,42.9,54.4z"/>
	<path class="st2" d="M30.2,28.9l0.2-0.4l0.2,0.1L30.4,29L30.2,28.9L30.2,28.9z M29.1,31.1l0.5-1.1l0.2,0.1l-0.5,1.1L29.1,31.1
		L29.1,31.1z M28,33.4l0.5-1.1l0.2,0.1l-0.5,1.1L28,33.4L28,33.4z M26.9,35.6l0.5-1.1l0.2,0.1l-0.5,1.1L26.9,35.6L26.9,35.6z
		 M25.8,37.9l0.5-1.1l0.2,0.1L26,38L25.8,37.9L25.8,37.9z M24.8,40.1l0.5-1.1l0.2,0.1L25,40.2L24.8,40.1L24.8,40.1z M23.7,42.3
		l0.5-1.1l0.2,0.1l-0.5,1.1L23.7,42.3z"/>
	<path class="st2" d="M32.5,33.3l0.5-1.1l0.2,0.1l-0.5,1.1L32.5,33.3L32.5,33.3z M31.4,35.6l0.5-1.1l0.2,0.1l-0.5,1.1L31.4,35.6
		L31.4,35.6z M30.4,37.8l0.5-1.1l0.2,0.1l-0.5,1.1L30.4,37.8L30.4,37.8z M29.3,40.1l0.5-1.1l0.2,0.1l-0.5,1.1L29.3,40.1L29.3,40.1z
		 M28.2,42.3l0.5-1.1l0.2,0.1l-0.5,1.1L28.2,42.3z"/>
	<path class="st2" d="M37.6,31.1L37.6,31.1h0.2v0.1L37.6,31.1L37.6,31.1z M36.5,33.4l0.5-1.1l0.2,0.1l-0.5,1.1L36.5,33.4L36.5,33.4z
		 M35.5,35.6l0.5-1.1l0.2,0.1l-0.5,1.1L35.5,35.6L35.5,35.6z M34.4,37.9l0.5-1.1l0.2,0.1L34.6,38L34.4,37.9L34.4,37.9z M33.3,40.1
		l0.5-1.1l0.2,0.1l-0.5,1.1L33.3,40.1L33.3,40.1z M32.2,42.3l0.5-1.1l0.2,0.1l-0.5,1.1L32.2,42.3z"/>
	<path class="st2" d="M34.5,33.4l0.5-1.1l0.2,0.1l-0.5,1.1L34.5,33.4L34.5,33.4z M33.4,35.6l0.5-1.1l0.2,0.1l-0.5,1.1L33.4,35.6
		L33.4,35.6z M32.3,37.9l0.5-1.1l0.2,0.1L32.5,38L32.3,37.9L32.3,37.9z M31.2,40.1l0.5-1.1l0.2,0.1l-0.5,1.1L31.2,40.1L31.2,40.1z
		 M30.2,42.3l0.5-1.1l0.2,0.1l-0.5,1.1L30.2,42.3z"/>
	<path class="st2" d="M38.6,33.4l0.5-1.1l0.2,0.1l-0.5,1.1L38.6,33.4L38.6,33.4z M37.6,35.6l0.5-1.1l0.2,0.1l-0.5,1.1L37.6,35.6
		L37.6,35.6z M36.5,37.8l0.5-1.1l0.2,0.1l-0.5,1.1L36.5,37.8L36.5,37.8z M35.4,40.1l0.5-1.1l0.2,0.1l-0.5,1.1L35.4,40.1L35.4,40.1z
		 M34.3,42.3l0.5-1.1l0.2,0.1l-0.5,1.1L34.3,42.3z"/>
	<path class="st2" d="M40.5,33.3l0.3-0.6l0.2,0.1l-0.3,0.6L40.5,33.3L40.5,33.3z M39.4,35.5l0.5-1.1l0.2,0.1l-0.5,1.1L39.4,35.5
		L39.4,35.5z M38.3,37.8l0.5-1.1l0.2,0.1l-0.5,1.1L38.3,37.8L38.3,37.8z M37.2,40l0.5-1.1l0.2,0.1l-0.5,1.1L37.2,40L37.2,40z
		 M36.1,42.3l0.5-1.1l0.2,0.1l-0.5,1.1L36.1,42.3z"/>
	<path class="st2" d="M42.3,33.3l0.1-0.3l0.2,0.1l-0.1,0.3L42.3,33.3L42.3,33.3z M41.2,35.5l0.5-1.1l0.2,0.1l-0.5,1.1L41.2,35.5
		L41.2,35.5z M40.1,37.8l0.5-1.1l0.2,0.1l-0.5,1.1L40.1,37.8L40.1,37.8z M39,40l0.5-1.1l0.2,0.1l-0.5,1.1L39,40L39,40z M38,42.3
		l0.5-1.1l0.2,0.1l-0.5,1.1L38,42.3z"/>
	<path class="st2" d="M44.4,33.3l0.5-1.1l0.2,0.1l-0.5,1.1L44.4,33.3L44.4,33.3z M43.3,35.5l0.5-1.1l0.2,0.1l-0.5,1.1L43.3,35.5
		L43.3,35.5z M42.2,37.8l0.5-1.1l0.2,0.1l-0.5,1.1L42.2,37.8L42.2,37.8z M41.1,40l0.5-1.1l0.2,0.1l-0.5,1.1L41.1,40L41.1,40z
		 M40.1,42.3l0.5-1.1l0.2,0.1l-0.5,1.1L40.1,42.3z"/>
	<path class="st2" d="M31.5,31.1l0.4-0.8l0.2,0.1l-0.4,0.8L31.5,31.1L31.5,31.1z M30.4,33.4l0.5-1.1l0.2,0.1l-0.5,1.1L30.4,33.4
		L30.4,33.4z M29.3,35.6l0.5-1.1l0.2,0.1l-0.5,1.1L29.3,35.6L29.3,35.6z M28.3,37.9l0.5-1.1l0.2,0.1L28.5,38L28.3,37.9L28.3,37.9z
		 M27.2,40.1l0.5-1.1l0.2,0.1l-0.5,1.1L27.2,40.1L27.2,40.1z M26.1,42.3l0.5-1.1l0.2,0.1l-0.5,1.1L26.1,42.3z"/>
	<path class="st0" d="M39,30.6c0.7,0.9,1.9,1.5,3.1,1.5c1.9,0,3.4-1.3,3.9-3V29h0.1c2-0.3,3.5-2,3.5-4c0-2.2-1.8-4-4-4.1
		c-0.4,0-0.8,0.1-1.1,0.2h-0.1L44.3,21c-0.7-0.7-1.7-1.2-2.8-1.2c-0.6,0-1.2,0.1-1.7,0.4l-0.2,0.1l-0.1-0.2c-0.7-1.2-2-2.1-3.5-2.1
		c-1.6,0-2.9,0.9-3.6,2.2l-0.1,0.1h-0.2c-0.3-0.1-0.5-0.1-0.8-0.1c-2.2,0-4,1.8-4,4s1.8,4,4,4.1c0.4,0,0.7-0.1,1.1-0.2l0.2-0.1
		l0.1,0.2c0.5,1.7,2,2.9,3.9,2.9c0.8,0,1.6-0.3,2.3-0.7l0.2-0.1L39,30.6L39,30.6z M38.8,31c-0.7,0.4-1.5,0.7-2.3,0.7
		c-2,0-3.6-1.3-4.2-3c-0.3,0.1-0.7,0.1-1,0.1c-2.5,0-4.5-2-4.5-4.5s2-4.5,4.5-4.5c0.3,0,0.5,0,0.8,0.1c0.8-1.4,2.2-2.3,3.9-2.3
		c1.6,0,3,0.9,3.8,2.1c0.5-0.2,1.1-0.3,1.7-0.3c1.2,0,2.2,0.5,3,1.2c0.4-0.1,0.7-0.2,1.1-0.2c2.5,0,4.5,2,4.5,4.5
		c0,2.2-1.6,4-3.7,4.4c-0.6,1.8-2.3,3.1-4.3,3.1C40.8,32.4,39.6,31.9,38.8,31z"/>
	<polygon class="st3" points="37.8,44.1 37.8,42.4 43,42.4 44.7,44.1 	"/>
	<rect x="48.2" y="42.4" class="st3" width="5.2" height="1.7"/>
	<rect x="13.6" y="42.4" class="st4" width="5.2" height="1.7"/>
	<polygon class="st4" points="34.3,44.1 32.6,42.4 37.8,42.4 39.5,44.1 	"/>
	<polygon class="st3" points="29.1,44.1 27.4,42.4 32.6,42.4 34.3,44.1 	"/>
	<polygon class="st4" points="24,44.1 22.2,42.4 27.4,42.4 29.1,44.1 	"/>
	<polygon class="st4" points="44.7,44.1 43,42.4 48.2,42.4 49.9,44.1 	"/>
	<polygon class="st3" points="18.8,44.1 17.1,42.4 22.2,42.4 24,44.1 	"/>
</g>
</svg>
