<svg id="Слой_1" xmlns="http://www.w3.org/2000/svg" viewBox="0 0 71 66"><style>.st0{fill:#1D1D1B;stroke:#1D1D1B;stroke-width:1.0001;stroke-miterlimit:22.9256;} .st1{fill:#1D1D1B;} .st2{fill:#1D1D1B;stroke:#1D1D1B;stroke-width:0.5;stroke-miterlimit:22.9256;} .st3{fill:#FF5000;stroke:#FF5000;stroke-width:0.216;stroke-miterlimit:22.9256;} .st4{fill:#3FAE2A;stroke:#3FAE2A;stroke-width:0.216;stroke-miterlimit:22.9256;}</style><path class="st0" d="M5.6 59.3h41.1l14.6-14.7V8.2H20.2L5.6 22.9v36.4zm-.4.4v-37L20 7.8h41.7v37L46.9 59.7H5.2z"/><path class="st1" d="M29.8 51c0-.4 0-.8-.1-1.2-.1-.4-.2-.7-.4-.9-.2-.3-.4-.5-.7-.6-.3-.1-.6-.2-1-.2s-.8.1-1.1.2c-.3.2-.5.4-.7.6-.2.3-.3.6-.4.9-.1.4-.1.7-.1 1.1 0 .5 0 .9.1 1.2.1.4.2.7.3.9.2.3.4.5.7.6.3.1.6.2 1 .2s.8-.1 1.1-.2c.3-.2.5-.4.7-.6.2-.3.3-.6.4-.9.2-.3.2-.7.2-1.1zm1.8-.1c0 .7-.1 1.3-.3 1.9-.2.6-.4 1-.8 1.4-.3.4-.8.7-1.3.9-.5.2-1.1.3-1.7.3-.7 0-1.2-.1-1.7-.3-.5-.2-.9-.4-1.2-.8-.3-.3-.6-.8-.7-1.3-.2-.5-.2-1.2-.2-1.9s.1-1.3.3-1.8c.2-.5.4-1 .8-1.4.3-.4.8-.7 1.3-.9.5-.2 1.1-.3 1.8-.3.6 0 1.2.1 1.7.3.5.2.9.4 1.2.8.3.4.6.8.7 1.3 0 .5.1 1.1.1 1.8zM39.2 55v.1l-.1.1H38s-.2 0-.3-.1c-.1 0-.1-.1-.2-.1 0 0-.1-.1-.1-.2l-.7-1.9c-.1-.3-.2-.5-.3-.7-.1-.2-.2-.3-.3-.4-.1-.1-.3-.2-.4-.2-.2 0-.3-.1-.5-.1h-.4V55l-.1.1c-.1 0-.2 0-.3.1h-.8s-.2 0-.3-.1c-.1 0-.1-.1-.1-.1v-8.1l.1-.1H34.7c.1 0 .1.1.1.1v3.2h.4c.2 0 .4 0 .5-.1s.3-.1.4-.2.2-.3.3-.4c.1-.2.2-.4.3-.7l.6-1.7c0-.1 0-.1.1-.2l.1-.1c.1 0 .2 0 .3-.1h1.1c.1 0 .1 0 .1.1V47s-.1.2-.1.3l-.6 1.5c-.1.3-.2.5-.3.7-.1.2-.2.4-.3.5-.1.1-.2.2-.4.3-.1.1-.3.2-.4.2.2.1.3.2.5.3.1.1.3.2.4.4.1.1.2.3.4.5.1.2.2.5.3.8l.7 1.7c.1.2.1.3.1.4-.1.3-.1.4-.1.4zM42.7 52.5v.1l-.1.1c-.1 0-.1 0-.2.1h-.6c-.1 0-.2 0-.2-.1-.1 0-.1-.1-.1-.1v-.1l-.2-5.9v-.1l.1-.1c.1 0 .2 0 .3-.1h.8s.2 0 .3.1c.1 0 .1.1.1.1v.1l-.2 5.9zm.2 1.9v.4s-.1.2-.1.3c-.1.1-.2.1-.3.2h-.8s-.2-.1-.3-.2c-.1-.1-.1-.2-.1-.3v-.4-.5c0-.1.1-.2.1-.3.1-.1.2-.1.3-.2h.8s.2.1.3.2c.1.1.1.2.1.3v.5z"/><path class="st2" d="M30.2 28.9l.2-.4.2.1-.2.4-.2-.1zm-1.1 2.2l.5-1.1.2.1-.5 1.1-.2-.1zM28 33.4l.5-1.1.2.1-.5 1.1-.2-.1zm-1.1 2.2l.5-1.1.2.1-.5 1.1-.2-.1zm-1.1 2.3l.5-1.1.2.1L26 38l-.2-.1zm-1 2.2l.5-1.1.2.1-.5 1.1-.2-.1zm-1.1 2.2l.5-1.1.2.1-.5 1.1-.2-.1zM32.5 33.3l.5-1.1.2.1-.5 1.1-.2-.1zm-1.1 2.3l.5-1.1.2.1-.5 1.1-.2-.1zm-1 2.2l.5-1.1.2.1-.5 1.1-.2-.1zm-1.1 2.3l.5-1.1.2.1-.5 1.1-.2-.1zm-1.1 2.2l.5-1.1.2.1-.5 1.1-.2-.1zM37.6 31.1h.2v.1l-.2-.1zm-1.1 2.3l.5-1.1.2.1-.5 1.1-.2-.1zm-1 2.2l.5-1.1.2.1-.5 1.1-.2-.1zm-1.1 2.3l.5-1.1.2.1-.5 1.1-.2-.1zm-1.1 2.2l.5-1.1.2.1-.5 1.1-.2-.1zm-1.1 2.2l.5-1.1.2.1-.5 1.1-.2-.1zM34.5 33.4l.5-1.1.2.1-.5 1.1-.2-.1zm-1.1 2.2l.5-1.1.2.1-.5 1.1-.2-.1zm-1.1 2.3l.5-1.1.2.1-.5 1.1-.2-.1zm-1.1 2.2l.5-1.1.2.1-.5 1.1-.2-.1zm-1 2.2l.5-1.1.2.1-.5 1.1-.2-.1zM38.6 33.4l.5-1.1.2.1-.5 1.1-.2-.1zm-1 2.2l.5-1.1.2.1-.5 1.1-.2-.1zm-1.1 2.2l.5-1.1.2.1-.5 1.1-.2-.1zm-1.1 2.3l.5-1.1.2.1-.5 1.1-.2-.1zm-1.1 2.2l.5-1.1.2.1-.5 1.1-.2-.1zM40.5 33.3l.3-.6.2.1-.3.6-.2-.1zm-1.1 2.2l.5-1.1.2.1-.5 1.1-.2-.1zm-1.1 2.3l.5-1.1.2.1-.5 1.1-.2-.1zM37.2 40l.5-1.1.2.1-.5 1.1-.2-.1zm-1.1 2.3l.5-1.1.2.1-.5 1.1-.2-.1zM42.3 33.3l.1-.3.2.1-.1.3-.2-.1zm-1.1 2.2l.5-1.1.2.1-.5 1.1-.2-.1zm-1.1 2.3l.5-1.1.2.1-.5 1.1-.2-.1zM39 40l.5-1.1.2.1-.5 1.1-.2-.1zm-1 2.3l.5-1.1.2.1-.5 1.1-.2-.1zM44.4 33.3l.5-1.1.2.1-.5 1.1-.2-.1zm-1.1 2.2l.5-1.1.2.1-.5 1.1-.2-.1zm-1.1 2.3l.5-1.1.2.1-.5 1.1-.2-.1zM41.1 40l.5-1.1.2.1-.5 1.1-.2-.1zm-1 2.3l.5-1.1.2.1-.5 1.1-.2-.1zM31.5 31.1l.4-.8.2.1-.4.8-.2-.1zm-1.1 2.3l.5-1.1.2.1-.5 1.1-.2-.1zm-1.1 2.2l.5-1.1.2.1-.5 1.1-.2-.1zm-1 2.3l.5-1.1.2.1-.5 1.1-.2-.1zm-1.1 2.2l.5-1.1.2.1-.5 1.1-.2-.1zm-1.1 2.2l.5-1.1.2.1-.5 1.1-.2-.1z"/><path class="st0" d="M39 30.6c.7.9 1.9 1.5 3.1 1.5 1.9 0 3.4-1.3 3.9-3V29h.1c2-.3 3.5-2 3.5-4 0-2.2-1.8-4-4-4.1-.4 0-.8.1-1.1.2h-.1l-.1-.1c-.7-.7-1.7-1.2-2.8-1.2-.6 0-1.2.1-1.7.4l-.2.1-.1-.2c-.7-1.2-2-2.1-3.5-2.1-1.6 0-2.9.9-3.6 2.2l-.1.1h-.2c-.3-.1-.5-.1-.8-.1-2.2 0-4 1.8-4 4s1.8 4 4 4.1c.4 0 .7-.1 1.1-.2l.2-.1.1.2c.5 1.7 2 2.9 3.9 2.9.8 0 1.6-.3 2.3-.7l.2-.1-.1.3zm-.2.4c-.7.4-1.5.7-2.3.7-2 0-3.6-1.3-4.2-3-.3.1-.7.1-1 .1-2.5 0-4.5-2-4.5-4.5s2-4.5 4.5-4.5c.3 0 .5 0 .8.1.8-1.4 2.2-2.3 3.9-2.3 1.6 0 3 .9 3.8 2.1.5-.2 1.1-.3 1.7-.3 1.2 0 2.2.5 3 1.2.4-.1.7-.2 1.1-.2 2.5 0 4.5 2 4.5 4.5 0 2.2-1.6 4-3.7 4.4-.6 1.8-2.3 3.1-4.3 3.1-1.3 0-2.5-.5-3.3-1.4z"/><path class="st3" d="M37.8 44.1v-1.7H43l1.7 1.7zM48.2 42.4h5.2v1.7h-5.2z"/><path class="st4" d="M13.6 42.4h5.2v1.7h-5.2zM34.3 44.1l-1.7-1.7h5.2l1.7 1.7z"/><path class="st3" d="M29.1 44.1l-1.7-1.7h5.2l1.7 1.7z"/><path class="st4" d="M24 44.1l-1.8-1.7h5.2l1.7 1.7zM44.7 44.1L43 42.4h5.2l1.7 1.7z"/><path class="st3" d="M18.8 44.1l-1.7-1.7h5.1l1.8 1.7z"/></svg>