<svg id="Слой_1" xmlns="http://www.w3.org/2000/svg" viewBox="0 0 72 66"><style>.st0{fill:#1D1D1B;} .st1{fill:#1D1D1B;stroke:#1D1D1B;stroke-width:1.0001;stroke-miterlimit:22.9256;} .st2{fill:#1D1D1B;stroke:#1D1D1B;stroke-width:0.5;stroke-miterlimit:22.9256;} .st3{fill:#FF5000;stroke:#FF5000;stroke-width:0.216;stroke-miterlimit:22.9256;} .st4{fill:#3FAE2A;stroke:#3FAE2A;stroke-width:0.216;stroke-miterlimit:22.9256;}</style><path class="st0" d="M33.5 48.7c0-.4 0-.8-.1-1.2-.1-.4-.2-.7-.4-.9-.2-.3-.4-.5-.7-.6-.3-.1-.6-.2-1-.2s-.8.1-1 .2c-.3.2-.5.4-.7.6-.2.3-.3.6-.4.9-.1.4-.1.7-.1 1.1 0 .5 0 .9.1 1.2.1.4.2.7.4.9.2.3.4.5.7.6.3.1.6.2 1 .2s.8-.1 1.1-.2c.3-.2.5-.4.7-.6.2-.3.3-.6.4-.9-.1-.3 0-.7 0-1.1zm1.7-.1c0 .7-.1 1.3-.3 1.9-.2.6-.4 1-.8 1.4-.3.4-.8.7-1.3.9-.5.2-1.1.3-1.7.3-.7 0-1.2-.1-1.7-.3-.5-.2-.9-.4-1.2-.8-.3-.4-.6-.8-.7-1.3-.2-.5-.2-1.2-.2-1.9s.1-1.3.3-1.8c.2-.5.4-1 .8-1.4.3-.4.8-.7 1.3-.9.5-.2 1.1-.3 1.8-.3.6 0 1.2.1 1.7.3.5.2.9.4 1.2.8.3.4.6.8.7 1.3.1.5.1 1.1.1 1.8zM42.9 52.7v.1l-.1.1h-1.1s-.2 0-.3-.1c-.1 0-.1-.1-.2-.1 0 0-.1-.1-.1-.2l-.7-1.9c-.1-.3-.2-.5-.3-.7-.1-.2-.2-.3-.3-.4-.1-.1-.3-.2-.4-.2-.2 0-.3-.1-.5-.1h-.4v3.5l-.1.1c-.1 0-.2 0-.3.1h-.8s-.2 0-.3-.1c-.1 0-.1-.1-.1-.1v-8.1l.1-.1H38.4c.1 0 .1.1.1.1v3.2h.4c.2 0 .4 0 .5-.1s.3-.1.4-.2.2-.3.3-.4c.1-.2.2-.4.3-.7l.6-1.7c0-.1 0-.1.1-.2l.1-.1H42.6c.1 0 .1 0 .1.1V44.8s-.1.2-.1.3l-.6 1.5c-.1.3-.2.5-.3.7-.1.2-.2.4-.3.5-.1.1-.2.2-.4.3-.1.1-.3.2-.4.2.2.1.3.2.5.3.1.1.3.2.4.4.1.1.2.3.4.5.1.2.2.5.3.8l.7 1.7c.1.2.1.3.1.4-.1.2-.1.3-.1.3zM46.4 50.2v.1l-.1.1c-.1 0-.1 0-.2.1h-.6c-.1 0-.2 0-.2-.1-.1 0-.1-.1-.1-.1v-.1l-.2-5.9v-.1l.1-.1c.1 0 .2 0 .3-.1h.8s.2 0 .3.1c.1 0 .1.1.1.1v.1l-.2 5.9zm.2 1.9v.4s-.1.2-.1.3c-.1.1-.2.1-.3.2h-.8s-.2-.1-.3-.2c-.1-.1-.1-.2-.1-.3v-.4-.5c0-.1.1-.2.1-.3.1-.1.2-.1.3-.2h.8s.2.1.3.2c.1.1.1.2.1.3-.1.1 0 .3 0 .5z"/><path class="st1" d="M9.3 57h41.1L65 42.3V5.9H23.9L9.3 20.6V57zm-.4.4v-37L23.7 5.5h41.7v37L50.6 57.4H8.9z"/><path class="st2" d="M36.3 28.6L25.9 39.1 21.8 35l.2-.2-1.7-.8.8 1.7.2-.2 4.1 4.1.5.5 10.9-11z"/><path class="st2" d="M43.2 28.6L32.8 39.1 28.7 35l.2-.2-1.7-.8.8 1.7.2-.2 4.1 4.1.5.5 10.9-11z"/><path class="st2" d="M49.9 28.6L39.4 39.1 35.3 35l.2-.2-1.6-.8.8 1.7.1-.2 4.1 4.1.5.5 11-11z"/><path class="st0" d="M53.1 19.7c0 .3 0 .5-.1.7s-.2.4-.3.5c-.2.1-.3.3-.6.3-.2.1-.5.1-.8.1s-.5 0-.7-.1l-.6-.3s-.3-.3-.3-.5c-.1-.2-.1-.5-.1-.7V17v-.1h.8v2.7c0 .2 0 .3.1.4 0 .1.1.2.2.3s.2.1.3.2c.1 0 .2.1.4.1.1 0 .3 0 .4-.1.1 0 .2-.1.3-.2.1-.1.1-.2.2-.3 0-.1.1-.3.1-.4V17v-.1h.8V19.7h-.1zM56.2 21.2l-.1.1H55v-.1l-1.3-3.9c0-.1 0-.1-.1-.2V17H54.3s.1 0 .1.1v.1l1.1 3.4 1-3.3v-.1l.1-.1h.6V17.4l-1 3.8z"/><path class="st2" d="M48.6 18.8c0 2.7 2.2 4.9 4.9 4.9s4.9-2.2 4.9-4.9-2.2-4.9-4.9-4.9-4.9 2.2-4.9 4.9zm-.4 0c0-2.9 2.4-5.3 5.3-5.3s5.3 2.4 5.3 5.3-2.4 5.3-5.3 5.3c-3 .1-5.3-2.3-5.3-5.3zM53.3 8.2h.4v4.6h-.4zM53.3 25h.4v4.6h-.4zM57.61 14.375l3.254-3.253.283.283-3.253 3.253zM45.755 26.373l3.253-3.253.283.283-3.252 3.253zM59.5 18.6h4.6v.4h-4.6zM42.8 18.6h4.6v.4h-4.6zM57.65 23.328l.28-.284 3.263 3.244-.282.283zM45.774 11.44l.282-.283 3.267 3.24-.282.283z"/><path class="st3" d="M41.5 41.8v-1.7h5.1l1.8 1.7zM51.9 40.1h5.2v1.7h-5.2z"/><path class="st4" d="M17.3 40.1h5.2v1.7h-5.2zM38 41.8l-1.7-1.7h5.2l1.7 1.7z"/><path class="st3" d="M32.8 41.8l-1.7-1.7h5.2l1.7 1.7z"/><path class="st4" d="M27.6 41.8l-1.7-1.7h5.2l1.7 1.7zM48.4 41.8l-1.8-1.7h5.2l1.8 1.7z"/><path class="st3" d="M22.4 41.8l-1.7-1.7h5.2l1.7 1.7z"/></svg>