<?xml version="1.0" encoding="utf-8"?>
<!-- Generator: Adobe Illustrator 21.0.0, SVG Export Plug-In . SVG Version: 6.00 Build 0)  -->
<svg version="1.1" id="Слой_1" xmlns="http://www.w3.org/2000/svg" xmlns:xlink="http://www.w3.org/1999/xlink" x="0px" y="0px"
	 viewBox="0 0 69 68" style="enable-background:new 0 0 69 68;" xml:space="preserve">
<style type="text/css">
	.st0{fill:#1D1D1B;stroke:#1D1D1B;stroke-width:1.0001;stroke-miterlimit:22.9256;}
	.st1{fill:#1D1D1B;}
	.st2{fill:#FF5000;stroke:#FF5000;stroke-width:0.216;stroke-miterlimit:22.9256;}
	.st3{fill:#3FAE2A;stroke:#3FAE2A;stroke-width:0.216;stroke-miterlimit:22.9256;}
	.st4{fill:#1D1D1B;stroke:#1D1D1B;stroke-width:0.5;stroke-miterlimit:22.9256;}
</style>
<g>
	<path class="st0" d="M7.4,60h41.1l14.6-14.7V8.9H22L7.4,23.6V60L7.4,60z M7,60.4V23.5v-0.1L21.8,8.5h41.7v37L48.7,60.4H7z"/>
	<path class="st1" d="M47.8,33.2c0-0.4,0-0.8-0.1-1.2c-0.1-0.4-0.2-0.7-0.4-0.9c-0.2-0.3-0.4-0.5-0.7-0.6c-0.3-0.1-0.6-0.2-1-0.2
		s-0.8,0.1-1.1,0.2c-0.3,0.2-0.5,0.4-0.7,0.6c-0.2,0.3-0.3,0.6-0.4,0.9c-0.1,0.4-0.1,0.7-0.1,1.1c0,0.5,0,0.9,0.1,1.2
		c0.1,0.4,0.2,0.7,0.4,0.9c0.2,0.3,0.4,0.5,0.7,0.6c0.3,0.1,0.6,0.2,1,0.2s0.8-0.1,1-0.2c0.3-0.2,0.5-0.4,0.7-0.6
		c0.2-0.3,0.3-0.6,0.4-0.9C47.8,34,47.8,33.6,47.8,33.2L47.8,33.2z M49.6,33.1c0,0.7-0.1,1.3-0.3,1.9c-0.2,0.6-0.4,1-0.8,1.4
		c-0.3,0.4-0.8,0.7-1.3,0.9c-0.5,0.2-1.1,0.3-1.7,0.3c-0.7,0-1.2-0.1-1.7-0.3c-0.5-0.2-0.9-0.4-1.2-0.8c-0.3-0.3-0.6-0.8-0.7-1.3
		c-0.2-0.5-0.2-1.2-0.2-1.9c0-0.7,0.1-1.3,0.3-1.8c0.2-0.5,0.4-1,0.8-1.4c0.3-0.4,0.8-0.7,1.3-0.9c0.5-0.2,1.1-0.3,1.8-0.3
		c0.6,0,1.2,0.1,1.7,0.3c0.5,0.2,0.9,0.4,1.2,0.8c0.3,0.3,0.6,0.8,0.7,1.3C49.5,31.8,49.6,32.4,49.6,33.1z"/>
	<path class="st1" d="M57.2,37.2v0.1l-0.1,0.1c-0.1,0-0.2,0-0.3,0c-0.1,0-0.3,0-0.4,0c-0.2,0-0.3,0-0.5,0c-0.1,0-0.2,0-0.3-0.1
		c-0.1,0-0.1-0.1-0.2-0.1c0,0-0.1-0.1-0.1-0.2l-0.7-1.9c-0.1-0.3-0.2-0.5-0.3-0.7c-0.1-0.2-0.2-0.3-0.3-0.4
		c-0.1-0.1-0.3-0.2-0.4-0.2c-0.2,0-0.3-0.1-0.5-0.1h-0.4v3.4v0.1l-0.1,0.1c-0.1,0-0.2,0-0.3,0.1c-0.1,0-0.2,0-0.4,0
		c-0.2,0-0.3,0-0.4,0s-0.2,0-0.3-0.1c-0.1,0-0.1-0.1-0.1-0.1v-0.1v-7.9v-0.1l0.1-0.1c0.1,0,0.2,0,0.3,0c0.1,0,0.2,0,0.4,0
		c0.2,0,0.3,0,0.4,0s0.2,0,0.3,0c0.1,0,0.1,0,0.1,0.1v0.1v3.1h0.4c0.2,0,0.4,0,0.5-0.1s0.3-0.1,0.4-0.2s0.2-0.3,0.3-0.4
		c0.1-0.2,0.2-0.4,0.3-0.7l0.6-1.7c0-0.1,0-0.1,0.1-0.2l0.1-0.1c0.1,0,0.2,0,0.3,0c0.1,0,0.3,0,0.4,0c0.2,0,0.3,0,0.4,0s0.2,0,0.3,0
		c0.1,0,0.1,0,0.1,0.1v0.1c0,0.1,0,0.1,0,0.2s-0.1,0.2-0.1,0.3l-0.6,1.5c-0.1,0.3-0.2,0.5-0.3,0.7c-0.1,0.2-0.2,0.4-0.3,0.5
		c-0.1,0.1-0.2,0.2-0.4,0.3c-0.1,0.1-0.3,0.2-0.4,0.2l0,0c0.2,0.1,0.3,0.2,0.5,0.2c0.1,0.1,0.3,0.2,0.4,0.4c0.1,0.1,0.2,0.3,0.3,0.5
		c0.1,0.2,0.2,0.5,0.3,0.8l0.7,1.7c0.1,0.2,0.1,0.3,0.1,0.4C57.2,37.1,57.2,37.1,57.2,37.2z"/>
	<path class="st1" d="M60.7,34.6v0.1l-0.1,0.1c-0.1,0-0.1,0-0.2,0.1c-0.1,0-0.2,0-0.3,0c-0.1,0-0.3,0-0.3,0c-0.1,0-0.2,0-0.2-0.1
		c-0.1,0-0.1-0.1-0.1-0.1v-0.1l-0.2-5.9c0-0.1,0-0.1,0-0.1l0.1-0.1c0.1,0,0.2,0,0.3-0.1c0.1,0,0.3,0,0.4,0c0.2,0,0.3,0,0.4,0
		s0.2,0,0.3,0.1c0.1,0,0.1,0.1,0.1,0.1v0.1L60.7,34.6L60.7,34.6z M60.9,36.5c0,0.2,0,0.3,0,0.4s-0.1,0.2-0.1,0.3
		c-0.1,0.1-0.2,0.1-0.3,0.2c-0.1,0-0.3,0-0.4,0c-0.2,0-0.3,0-0.4,0s-0.2-0.1-0.3-0.2c-0.1-0.1-0.1-0.2-0.1-0.3c0-0.1,0-0.3,0-0.4
		c0-0.2,0-0.3,0-0.5c0-0.1,0.1-0.2,0.1-0.3c0.1-0.1,0.2-0.1,0.3-0.2c0.1,0,0.3,0,0.4,0c0.2,0,0.3,0,0.4,0s0.2,0.1,0.3,0.2
		c0.1,0.1,0.1,0.2,0.1,0.3C60.9,36.2,60.9,36.4,60.9,36.5z"/>
	<rect x="36.9" y="19.7" class="st2" width="1.7" height="5.2"/>
	<rect x="36.9" y="43.9" class="st3" width="1.7" height="5.2"/>
	<polygon class="st3" points="38.6,28.3 36.9,30.1 36.9,24.9 38.6,23.2 	"/>
	<polygon class="st2" points="38.6,33.5 36.9,35.2 36.9,30.1 38.6,28.3 	"/>
	<polygon class="st3" points="38.6,38.7 36.9,40.4 36.9,35.2 38.6,33.5 	"/>
	<polygon class="st2" points="38.6,43.9 36.9,45.6 36.9,40.4 38.6,38.7 	"/>
	<rect x="10.5" y="30" transform="matrix(0.9641 -0.2656 0.2656 0.9641 -7.3961 5.753)" class="st4" width="14.1" height="0.4"/>
	
		<rect x="17.4" y="30.1" transform="matrix(0.2653 -0.9642 0.9642 0.2653 -22.8825 44.2803)" class="st4" width="0.4" height="14.1"/>
	<rect x="11" y="33.5" class="st4" width="15.2" height="0.4"/>
	<path class="st4" d="M22.2,43.2l0.2-0.4c0.9,0.4,1.6,0.5,2.2,0.5c1.1,0,1.8-0.5,2.2-1.1c0.4-0.5,0.5-1.1,0.5-1.1V41h0.1
		c1.7-0.8,2.1-1.9,2.1-2.9c0-0.5-0.1-1-0.2-1.3s-0.2-0.5-0.2-0.5L29,36.1l0.1-0.1c0.9-0.8,1.2-1.5,1.2-2.2s-0.3-1.3-0.6-1.7
		c-0.3-0.4-0.6-0.7-0.6-0.7L29,31.3l0.1-0.1c0,0,0.4-0.9,0.4-1.9s-0.3-2.1-1.8-2.7l-0.1-0.1v-0.1c0-1.9-1.3-2.8-2.8-2.8
		c-0.7,0-1.6,0.2-2.3,0.7l-0.2-0.4c0.8-0.5,1.7-0.8,2.5-0.8s1.6,0.3,2.2,0.8s0.9,1.3,1,2.3c1.5,0.7,1.9,2,1.9,3
		c0,0.9-0.3,1.6-0.4,1.9c0.3,0.3,1.2,1.3,1.2,2.6c0,0.8-0.3,1.6-1.2,2.4c0.2,0.3,0.5,1,0.5,1.9c0,1.1-0.5,2.4-2.2,3.2
		c-0.1,0.5-0.9,2.4-3.2,2.4C23.9,43.8,23.1,43.6,22.2,43.2z"/>
</g>
</svg>
