<svg id="Слой_1" xmlns="http://www.w3.org/2000/svg" viewBox="0 0 71 63"><style>.st0{fill:#1D1D1B;stroke:#1D1D1B;stroke-width:1.0001;stroke-miterlimit:22.9256;} .st1{fill:#1D1D1B;} .st2{fill:#FF5000;stroke:#FF5000;stroke-width:0.216;stroke-miterlimit:22.9256;} .st3{fill:#3FAE2A;stroke:#3FAE2A;stroke-width:0.216;stroke-miterlimit:22.9256;}</style><path class="st0" d="M7.5 57.6h41.1l14.6-14.7V6.5H22.1L7.5 21.2v36.4zm-.4.5v-37L21.9 6.2h41.7v37L48.8 58.1H7.1z"/><path class="st1" d="M43.5 32.6c0-.4 0-.8-.1-1.2s-.2-.7-.4-.9c-.2-.3-.4-.5-.7-.6-.3-.1-.6-.2-1-.2s-.8.1-1 .2c-.3.2-.5.4-.7.6-.2.3-.3.6-.4.9-.1.4-.1.7-.1 1.1 0 .5 0 .9.1 1.2.1.4.2.7.4.9.2.3.4.5.7.6.3.1.6.2 1 .2s.8-.1 1-.2c.3-.2.5-.4.7-.6.2-.3.3-.6.4-.9.1-.3.1-.7.1-1.1zm1.8-.1c0 .7-.1 1.3-.3 1.9-.2.6-.4 1-.8 1.4-.3.4-.8.7-1.3.9s-1.1.3-1.7.3c-.7 0-1.2-.1-1.7-.3s-.9-.4-1.2-.8c-.3-.3-.6-.8-.7-1.3-.2-.5-.2-1.2-.2-1.9s.1-1.3.3-1.8c.2-.5.4-1 .8-1.4.3-.4.8-.7 1.3-.9s1.1-.3 1.8-.3c.6 0 1.2.1 1.7.3s.9.4 1.2.8c.3.3.6.8.7 1.3 0 .5.1 1.1.1 1.8zM52.9 36.6v.1l-.1.1h-1.1s-.2 0-.3-.1c-.1 0-.1-.1-.2-.1 0 0-.1-.1-.1-.2l-.7-1.9c-.1-.3-.2-.5-.3-.7-.1-.2-.2-.3-.3-.4-.1-.1-.3-.2-.4-.2-.2 0-.3-.1-.5-.1h-.4v3.5l-.1.1c-.1 0-.2 0-.3.1h-.8s-.2 0-.3-.1c-.1 0-.1 0-.1-.1v-8.1l.1-.1H48.4c.1 0 .1 0 .1.1v3.2h.4c.2 0 .4 0 .5-.1s.3-.1.4-.2c.1-.1.2-.3.3-.4.1-.2.2-.4.3-.7l.6-1.7c0-.1 0-.1.1-.2l.1-.1c.1 0 .2 0 .3-.1h1.1c.1 0 .1 0 .1.1V28.6c0 .1-.1.2-.1.3l-.6 1.5c-.1.3-.2.5-.3.7-.1.2-.2.4-.3.5-.1.1-.2.2-.4.3-.1.1-.3.2-.4.2.2.1.3.2.5.2.1.1.3.2.4.4.1.1.2.3.4.5.1.2.2.5.3.8l.7 1.7c.1.2.1.3.1.4-.1.4-.1.4-.1.5zM56.4 34.1v.1l-.1.1c-.1 0-.1 0-.2.1h-.6c-.1 0-.2 0-.2-.1-.1 0-.1-.1-.1-.1v-.1l-.2-5.9v-.1l.1-.1c.1 0 .2 0 .3-.1h.8s.2 0 .3.1c.1 0 .1.1.1.1v.1l-.2 5.9zm.2 1.9v.4c0 .1-.1.2-.1.3-.1.1-.2.1-.3.2h-.8s-.2-.1-.3-.2c-.1-.1-.1-.2-.1-.3V36v-.5c0-.1.1-.2.1-.3.1-.1.2-.1.3-.2h.8s.2.1.3.2c.1.1.1.2.1.3v.5zM20.7 38.8s-9.3-1.4-5.1-6.3c-1 1.8.8 1.5.8 1.5s1.4-.2 0-1.9-.3-5.6 2.8-6.4c-.8 1.1-.4 1.6.6 1.6s5.1-2.3.6-4.8c5.7.8 4.6 4.2 4.1 5.1-.6.9-.5 2 .3 2s.2-1.3.2-1.3 4.3 3.2 2.2 7.4c-2.2 4.1-6 5.6-6 5.6s4.6-2.3 1.4-5.6c-3.2-3.2-2.3-3.9-1.3-4.5-3.1 1-2.4 4.6-2.4 4.6s.3 2 1.8 3z"/><path class="st2" d="M31.6 17.4h1.7v5.2h-1.7z"/><path class="st3" d="M31.6 41.6h1.7v5.2h-1.7zM33.3 26.1l-1.7 1.7v-5.2l1.7-1.7z"/><path class="st2" d="M33.3 31.2L31.6 33v-5.2l1.7-1.7z"/><path class="st3" d="M33.3 36.4l-1.7 1.8V33l1.7-1.8z"/><path class="st2" d="M33.3 41.6l-1.7 1.7v-5.1l1.7-1.8z"/></svg>