<?xml version="1.0" encoding="utf-8"?>
<!-- Generator: Adobe Illustrator 21.0.0, SVG Export Plug-In . SVG Version: 6.00 Build 0)  -->
<svg version="1.1" id="Слой_1" xmlns="http://www.w3.org/2000/svg" xmlns:xlink="http://www.w3.org/1999/xlink" x="0px" y="0px"
	 viewBox="0 0 71 63" style="enable-background:new 0 0 71 63;" xml:space="preserve">
<style type="text/css">
	.st0{fill:#1D1D1B;stroke:#1D1D1B;stroke-width:1.0001;stroke-miterlimit:22.9256;}
	.st1{fill:#1D1D1B;}
	.st2{fill:#FF5000;stroke:#FF5000;stroke-width:0.216;stroke-miterlimit:22.9256;}
	.st3{fill:#3FAE2A;stroke:#3FAE2A;stroke-width:0.216;stroke-miterlimit:22.9256;}
</style>
<g>
	<path class="st0" d="M7.5,57.6h41.1l14.6-14.7V6.5H22.1L7.5,21.2V57.6L7.5,57.6z M7.1,58.1V21.2v-0.1L21.9,6.2h41.7v37L48.8,58.1
		H7.1z"/>
	<path class="st1" d="M43.5,32.6c0-0.4,0-0.8-0.1-1.2s-0.2-0.7-0.4-0.9c-0.2-0.3-0.4-0.5-0.7-0.6c-0.3-0.1-0.6-0.2-1-0.2
		s-0.8,0.1-1,0.2c-0.3,0.2-0.5,0.4-0.7,0.6c-0.2,0.3-0.3,0.6-0.4,0.9c-0.1,0.4-0.1,0.7-0.1,1.1c0,0.5,0,0.9,0.1,1.2
		c0.1,0.4,0.2,0.7,0.4,0.9c0.2,0.3,0.4,0.5,0.7,0.6c0.3,0.1,0.6,0.2,1,0.2s0.8-0.1,1-0.2c0.3-0.2,0.5-0.4,0.7-0.6
		c0.2-0.3,0.3-0.6,0.4-0.9C43.5,33.4,43.5,33,43.5,32.6L43.5,32.6z M45.3,32.5c0,0.7-0.1,1.3-0.3,1.9c-0.2,0.6-0.4,1-0.8,1.4
		c-0.3,0.4-0.8,0.7-1.3,0.9S41.8,37,41.2,37c-0.7,0-1.2-0.1-1.7-0.3s-0.9-0.4-1.2-0.8c-0.3-0.3-0.6-0.8-0.7-1.3
		c-0.2-0.5-0.2-1.2-0.2-1.9s0.1-1.3,0.3-1.8c0.2-0.5,0.4-1,0.8-1.4c0.3-0.4,0.8-0.7,1.3-0.9s1.1-0.3,1.8-0.3c0.6,0,1.2,0.1,1.7,0.3
		s0.9,0.4,1.2,0.8c0.3,0.3,0.6,0.8,0.7,1.3C45.2,31.2,45.3,31.8,45.3,32.5z"/>
	<path class="st1" d="M52.9,36.6v0.1l-0.1,0.1c-0.1,0-0.2,0-0.3,0c-0.1,0-0.3,0-0.4,0c-0.2,0-0.3,0-0.4,0s-0.2,0-0.3-0.1
		c-0.1,0-0.1-0.1-0.2-0.1c0,0-0.1-0.1-0.1-0.2l-0.7-1.9c-0.1-0.3-0.2-0.5-0.3-0.7c-0.1-0.2-0.2-0.3-0.3-0.4
		c-0.1-0.1-0.3-0.2-0.4-0.2c-0.2,0-0.3-0.1-0.5-0.1h-0.4v3.4v0.1l-0.1,0.1c-0.1,0-0.2,0-0.3,0.1c-0.1,0-0.2,0-0.4,0
		c-0.2,0-0.3,0-0.4,0s-0.2,0-0.3-0.1c-0.1,0-0.1,0-0.1-0.1v-0.1v-7.9v-0.1l0.1-0.1c0.1,0,0.2,0,0.3,0c0.1,0,0.2,0,0.4,0
		c0.2,0,0.3,0,0.4,0s0.2,0,0.3,0c0.1,0,0.1,0,0.1,0.1v0.1v3.1h0.4c0.2,0,0.4,0,0.5-0.1s0.3-0.1,0.4-0.2c0.1-0.1,0.2-0.3,0.3-0.4
		c0.1-0.2,0.2-0.4,0.3-0.7l0.6-1.7c0-0.1,0-0.1,0.1-0.2l0.1-0.1c0.1,0,0.2,0,0.3-0.1c0.1,0,0.3,0,0.4,0c0.2,0,0.3,0,0.4,0
		s0.2,0,0.3,0c0.1,0,0.1,0,0.1,0.1v0.1c0,0.1,0,0.1,0,0.2c0,0.1-0.1,0.2-0.1,0.3L52,30.4c-0.1,0.3-0.2,0.5-0.3,0.7
		c-0.1,0.2-0.2,0.4-0.3,0.5c-0.1,0.1-0.2,0.2-0.4,0.3c-0.1,0.1-0.3,0.2-0.4,0.2l0,0c0.2,0.1,0.3,0.2,0.5,0.2
		c0.1,0.1,0.3,0.2,0.4,0.4c0.1,0.1,0.2,0.3,0.4,0.5c0.1,0.2,0.2,0.5,0.3,0.8l0.7,1.7C53,35.9,53,36,53,36.1
		C52.9,36.5,52.9,36.5,52.9,36.6z"/>
	<path class="st1" d="M56.4,34.1v0.1l-0.1,0.1c-0.1,0-0.1,0-0.2,0.1c-0.1,0-0.2,0-0.3,0c-0.1,0-0.3,0-0.3,0c-0.1,0-0.2,0-0.2-0.1
		c-0.1,0-0.1-0.1-0.1-0.1v-0.1L55,28.2c0-0.1,0-0.1,0-0.1l0.1-0.1c0.1,0,0.2,0,0.3-0.1c0.1,0,0.3,0,0.4,0c0.2,0,0.3,0,0.4,0
		s0.2,0,0.3,0.1c0.1,0,0.1,0.1,0.1,0.1v0.1L56.4,34.1L56.4,34.1z M56.6,36c0,0.2,0,0.3,0,0.4c0,0.1-0.1,0.2-0.1,0.3
		c-0.1,0.1-0.2,0.1-0.3,0.2c-0.1,0-0.3,0-0.4,0c-0.2,0-0.3,0-0.4,0s-0.2-0.1-0.3-0.2C55,36.6,55,36.5,55,36.4s0-0.3,0-0.4
		c0-0.2,0-0.3,0-0.5c0-0.1,0.1-0.2,0.1-0.3c0.1-0.1,0.2-0.1,0.3-0.2c0.1,0,0.3,0,0.4,0c0.2,0,0.3,0,0.4,0s0.2,0.1,0.3,0.2
		c0.1,0.1,0.1,0.2,0.1,0.3S56.6,35.8,56.6,36z"/>
	<path class="st1" d="M20.7,38.8c0,0-9.3-1.4-5.1-6.3c-1,1.8,0.8,1.5,0.8,1.5s1.4-0.2,0-1.9s-0.3-5.6,2.8-6.4
		c-0.8,1.1-0.4,1.6,0.6,1.6s5.1-2.3,0.6-4.8c5.7,0.8,4.6,4.2,4.1,5.1c-0.6,0.9-0.5,2,0.3,2s0.2-1.3,0.2-1.3s4.3,3.2,2.2,7.4
		c-2.2,4.1-6,5.6-6,5.6s4.6-2.3,1.4-5.6c-3.2-3.2-2.3-3.9-1.3-4.5c-3.1,1-2.4,4.6-2.4,4.6S19.2,37.8,20.7,38.8z"/>
	<rect x="31.6" y="17.4" class="st2" width="1.7" height="5.2"/>
	<rect x="31.6" y="41.6" class="st3" width="1.7" height="5.2"/>
	<polygon class="st3" points="33.3,26.1 31.6,27.8 31.6,22.6 33.3,20.9 	"/>
	<polygon class="st2" points="33.3,31.2 31.6,33 31.6,27.8 33.3,26.1 	"/>
	<polygon class="st3" points="33.3,36.4 31.6,38.2 31.6,33 33.3,31.2 	"/>
	<polygon class="st2" points="33.3,41.6 31.6,43.3 31.6,38.2 33.3,36.4 	"/>
</g>
</svg>
