<svg id="Слой_1" xmlns="http://www.w3.org/2000/svg" viewBox="0 0 73 64"><style>.st0{fill:#3FAE2A;stroke:#3FAE2A;stroke-width:0.216;stroke-miterlimit:22.9256;} .st1{fill:#FF5000;stroke:#FF5000;stroke-width:0.216;stroke-miterlimit:22.9256;} .st2{fill:#1D1D1B;stroke:#1D1D1B;stroke-width:1.0001;stroke-miterlimit:22.9256;} .st3{fill:#1D1D1B;}</style><path class="st0" d="M34.6 18.8l-.6 1.3.6 1.2.8 1.6-.8 1.5-.6 1.3.6 1.3.8 1.5-.8 1.6-.6 1.2.6 1.3.8 1.6-.8 1.5L34 37l.6 1.2.8 1.6-.8 1.5h6l6.6-6.4V18.8z"/><path class="st1" d="M34.9 28.5l-.7-1.5-.6-1.3.6-1.3.7-1.5-.7-1.6-.6-1.2.6-1.3h-6l-6.6 6.7v15.8h12.6l.7-1.5-.7-1.6-.6-1.2.6-1.3.7-1.5-.7-1.6-.6-1.3.6-1.2z"/><path class="st2" d="M6.3 57.6h41.1L62 42.9V6.5H20.9L6.3 21.2v36.4zm-.4.5v-37L20.7 6.2h41.7v37L47.6 58.1H5.9z"/><path class="st3" d="M57.5 30.1l-2.6-5.3v2.3h-9.7V33h9.7v2.3zM11.2 30.1l2.7 5.2V33h9.7v-5.9h-9.7v-2.3zM26 28.6l-.7.4-.1-.4.9-.5h.5v4.1H26zM28.6 30.2c0 1.1.3 1.7.8 1.7.6 0 .8-.7.8-1.7s-.3-1.7-.8-1.7-.8.6-.8 1.7zm2.2-.1c0 1.4-.5 2.2-1.4 2.2-.8 0-1.4-.8-1.4-2.1 0-1.4.6-2.1 1.4-2.1.9-.1 1.4.7 1.4 2zM31.8 30.2c0 1.1.3 1.7.8 1.7.6 0 .8-.7.8-1.7s-.3-1.7-.8-1.7c-.4 0-.8.6-.8 1.7zm2.3-.1c0 1.4-.5 2.2-1.4 2.2-.8 0-1.4-.8-1.4-2.1 0-1.4.6-2.1 1.4-2.1.9-.1 1.4.7 1.4 2zM36.7 30.6l.3-.3.9-1.1h.7l-1.2 1.3 1.4 1.8H38l-1.1-1.5-.3.3v1.2H36v-4.5h.6l.1 2.8zM41.2 30.4v-.3c-.1-.3-.4-.6-.8-.6-.5 0-.9.4-.9 1.2 0 .6.3 1.1.9 1.1.3 0 .7-.2.8-.6v-.8zm.5 1.4c0 .7-.1 1.1-.4 1.4-.3.3-.7.4-1.1.4-.4 0-.8-.1-1-.3l.1-.4c.2.1.5.2.9.2.6 0 1-.3 1-1.1v-.3c-.2.3-.5.5-1 .5-.8 0-1.3-.6-1.3-1.5 0-1 .7-1.6 1.4-1.6.5 0 .8.3 1 .5v-.5h.5v2.7h-.1zM30.5 48.8c0-.4 0-.8-.1-1.2s-.2-.7-.4-.9c-.2-.3-.4-.5-.7-.6s-.6-.2-1-.2-.8.1-1 .2c-.3.2-.5.4-.7.6-.2.3-.3.6-.4.9-.1.4-.1.7-.1 1.1 0 .5 0 .9.1 1.2.1.4.2.7.3.9.2.3.4.5.7.6s.6.2 1 .2.8-.1 1-.2c.3-.2.5-.4.7-.6.2-.3.3-.6.4-.9.1-.3.2-.7.2-1.1zm1.7 0c0 .7-.1 1.3-.3 1.9-.2.5-.4 1-.8 1.4-.3.4-.8.7-1.3.9s-1.1.3-1.7.3c-.7 0-1.2-.1-1.7-.3s-.9-.4-1.2-.8c-.3-.4-.6-.8-.7-1.3-.2-.5-.2-1.2-.2-1.9s.1-1.3.3-1.8.4-1 .8-1.4c.3-.4.8-.7 1.3-.9s1.1-.3 1.8-.3c.6 0 1.2.1 1.7.3s.9.4 1.2.8c.3.3.6.8.7 1.3.1.4.1 1 .1 1.8zM39.9 52.8v.1l-.1.1H38.4s-.1-.1-.2-.1c0 0-.1-.1-.1-.2l-.7-1.9c-.1-.3-.2-.5-.3-.7s-.2-.3-.3-.4c-.1-.1-.3-.2-.4-.2-.2 0-.3-.1-.5-.1h-.4v3.5l-.1.1H34l-.1-.1v-8.1l.1-.1H35.4s.1 0 .1.1V48h.4c.2 0 .4 0 .5-.1s.3-.1.4-.2c.1-.1.2-.3.3-.4.1-.2.2-.4.3-.7l.6-1.7c0-.1 0-.1.1-.2l.1-.1H39.6s.1 0 .1.1V45c0 .1-.1.2-.1.3l-.6 1.5c-.1.3-.2.5-.3.7s-.2.4-.3.5-.2.2-.4.3c-.1.1-.3.2-.4.2.2.1.3.2.5.2.1.1.3.2.4.4.1.1.2.3.3.5s.2.5.3.8l.7 1.7c.1.2.1.3.1.4v.3zM43.3 50.3v.1l-.1.1c-.1 0-.1 0-.2.1h-.6c-.1 0-.2 0-.2-.1-.1 0-.1-.1-.1-.1v-.1l-.2-5.9v-.1l.1-.1c.1 0 .2 0 .3-.1h.8c.1 0 .2 0 .3.1.1 0 .1.1.1.1v.1l-.2 5.9zm.2 1.9v.4c0 .1-.1.2-.1.3-.1.1-.2.1-.3.2h-.8c-.1 0-.2-.1-.3-.2-.1-.1-.1-.2-.1-.3v-.4-.5c0-.1.1-.2.1-.3.1-.1.2-.1.3-.2h.8c.1 0 .2.1.3.2.1.1.1.2.1.3v.5z"/></svg>