<?xml version="1.0" encoding="utf-8"?>
<!-- Generator: Adobe Illustrator 21.0.0, SVG Export Plug-In . SVG Version: 6.00 Build 0)  -->
<svg version="1.1" id="Слой_1" xmlns="http://www.w3.org/2000/svg" xmlns:xlink="http://www.w3.org/1999/xlink" x="0px" y="0px"
	 viewBox="0 0 77 71" style="enable-background:new 0 0 77 71;" xml:space="preserve">
<style type="text/css">
	.st0{clip-path:url(#SVGID_2_);}
	.st1{fill:#1D1D1B;stroke:#1D1D1B;stroke-width:1.0001;stroke-miterlimit:22.9256;}
	.st2{fill:#1D1D1B;}
</style>
<g>
	<g>
		<g>
			<defs>
				<rect id="SVGID_1_" x="16.8" y="15.5" width="31.3" height="31.3"/>
			</defs>
			<clipPath id="SVGID_2_">
				<use xlink:href="#SVGID_1_"  style="overflow:visible;"/>
			</clipPath>
			<g class="st0">
				
					<image style="overflow:visible;enable-background:new    ;" width="132" height="128" xlink:href="A528E4D7BD78E24D.jpeg"  transform="matrix(0.2369 0 0 0.2443 16.8213 15.544)">
				</image>
			</g>
		</g>
	</g>
	<path class="st1" d="M9.5,61.3h41.1l14.6-14.7V10.2H24.1L9.5,24.9V61.3L9.5,61.3z M9,61.7V24.8v-0.1L23.8,9.8h41.7v37L50.7,61.7H9z
		"/>
	<path class="st2" d="M47.5,42.3c0,0.2,0,0.3-0.1,0.4s-0.2,0.1-0.4,0.1h-3.5c0,0.2,0,0.5,0.1,0.7s0.1,0.4,0.3,0.5
		c0.1,0.1,0.3,0.2,0.5,0.3c0.2,0.1,0.4,0.1,0.7,0.1c0.3,0,0.5,0,0.7-0.1c0.2,0,0.4-0.1,0.6-0.1s0.3-0.1,0.4-0.1S47,44,47,44h0.1
		c0,0,0,0,0.1,0.1c0,0,0,0.1,0,0.2s0,0.2,0,0.3c0,0.1,0,0.2,0,0.2c0,0.1,0,0.1,0,0.2v0.1c0,0,0,0.1-0.1,0.1c0,0-0.1,0.1-0.2,0.1
		s-0.3,0.1-0.5,0.1s-0.4,0.1-0.7,0.1c-0.2,0-0.5,0.1-0.8,0.1c-0.5,0-0.9-0.1-1.3-0.2s-0.7-0.3-1-0.6c-0.3-0.3-0.4-0.6-0.6-1
		c-0.1-0.4-0.2-0.9-0.2-1.4s0.1-1,0.2-1.4s0.3-0.8,0.6-1c0.3-0.3,0.6-0.5,0.9-0.6c0.4-0.1,0.8-0.2,1.2-0.2c0.5,0,0.9,0.1,1.2,0.2
		c0.3,0.1,0.6,0.3,0.8,0.6c0.2,0.2,0.4,0.5,0.5,0.9c0.1,0.3,0.2,0.7,0.2,1.1L47.5,42.3L47.5,42.3z M46,41.8c0-0.5-0.1-0.8-0.3-1.1
		c-0.2-0.3-0.5-0.4-0.9-0.4c-0.2,0-0.4,0-0.5,0.1c-0.2,0.1-0.3,0.2-0.4,0.3c-0.1,0.1-0.2,0.3-0.2,0.5c-0.1,0.2-0.1,0.4-0.1,0.6H46z"
		/>
	<path class="st2" d="M53.1,44.4c0,0.1,0,0.2,0,0.3c0,0.1,0,0.1,0,0.2s0,0.1,0,0.1s0,0.1-0.1,0.1s-0.1,0.1-0.3,0.2
		c-0.1,0.1-0.3,0.1-0.4,0.2c-0.2,0.1-0.3,0.1-0.5,0.1s-0.4,0.1-0.6,0.1c-0.4,0-0.8-0.1-1.2-0.2c-0.3-0.1-0.6-0.3-0.9-0.6
		c-0.2-0.3-0.4-0.6-0.5-1s-0.2-0.8-0.2-1.3c0-0.6,0.1-1.1,0.2-1.5s0.3-0.8,0.6-1c0.3-0.3,0.6-0.5,0.9-0.6s0.7-0.2,1.1-0.2
		c0.2,0,0.3,0,0.5,0s0.3,0.1,0.5,0.1c0.1,0.1,0.3,0.1,0.4,0.2s0.2,0.1,0.2,0.2l0.1,0.1V40c0,0,0,0.1,0,0.2s0,0.2,0,0.3
		c0,0.2,0,0.4-0.1,0.5c0,0.1-0.1,0.1-0.2,0.1s-0.1,0-0.2-0.1s-0.2-0.1-0.3-0.2c-0.1-0.1-0.2-0.1-0.4-0.2c-0.2-0.1-0.3-0.1-0.5-0.1
		c-0.4,0-0.7,0.2-1,0.5c-0.2,0.3-0.3,0.8-0.3,1.4c0,0.3,0,0.6,0.1,0.8c0.1,0.2,0.1,0.4,0.2,0.6s0.2,0.3,0.4,0.4
		c0.2,0.1,0.4,0.1,0.6,0.1s0.4,0,0.6-0.1s0.3-0.1,0.4-0.2s0.2-0.2,0.3-0.2c0.1-0.1,0.1-0.1,0.2-0.1h0.1c0,0,0,0.1,0.1,0.1
		c0,0.1,0,0.1,0,0.2C53.1,44.1,53.1,44.2,53.1,44.4z"/>
	<path class="st2" d="M60,42.4c0,0.5-0.1,0.9-0.2,1.3s-0.3,0.7-0.6,1c-0.3,0.3-0.6,0.5-1,0.7s-0.8,0.2-1.4,0.2
		c-0.5,0-0.9-0.1-1.3-0.2s-0.7-0.3-0.9-0.6c-0.2-0.3-0.4-0.6-0.5-1s-0.2-0.8-0.2-1.3s0.1-0.9,0.2-1.3s0.3-0.7,0.6-1
		c0.3-0.3,0.6-0.5,1-0.7s0.8-0.2,1.4-0.2c0.5,0,1,0.1,1.3,0.2c0.4,0.1,0.7,0.3,0.9,0.6c0.2,0.3,0.4,0.6,0.5,1
		C59.9,41.4,60,41.9,60,42.4L60,42.4z M58.3,42.4c0-0.3,0-0.5-0.1-0.8c0-0.2-0.1-0.4-0.2-0.6s-0.2-0.3-0.4-0.4
		c-0.2-0.1-0.4-0.1-0.7-0.1c-0.2,0-0.4,0-0.6,0.1S56,40.8,55.9,41c-0.1,0.2-0.2,0.4-0.3,0.6c-0.1,0.2-0.1,0.5-0.1,0.8s0,0.5,0.1,0.8
		c0,0.2,0.1,0.4,0.2,0.6s0.2,0.3,0.4,0.4c0.2,0.1,0.4,0.1,0.7,0.1c0.2,0,0.5,0,0.6-0.1c0.2-0.1,0.3-0.2,0.4-0.4
		c0.1-0.2,0.2-0.4,0.3-0.6C58.3,43,58.3,42.7,58.3,42.4z"/>
	<path class="st2" d="M23.7,51.9c0,0.1,0,0.1,0,0.2v0.1c0,0,0,0,0,0.1l0,0c0,0,0,0-0.1,0h-0.1h-0.1c0,0-0.1,0-0.2,0s-0.1,0-0.2,0
		s-0.1,0.1-0.1,0.1c0,0.1-0.1,0.1-0.1,0.2s0,0.2,0,0.3v0.3h0.7c0,0,0,0,0.1,0c0,0,0,0,0.1,0.1v0.1c0,0.1,0,0.1,0,0.2
		c0,0.2,0,0.3,0,0.3c0,0.1-0.1,0.1-0.1,0.1h-0.7v3.1v0.1c0,0,0,0-0.1,0.1c0,0-0.1,0-0.2,0s-0.2,0-0.3,0c-0.1,0-0.2,0-0.3,0
		c-0.1,0-0.1,0-0.2,0c0,0-0.1,0-0.1-0.1c0,0,0,0,0-0.1V54h-0.5c-0.1,0-0.1,0-0.1-0.1s0-0.2,0-0.3c0-0.1,0-0.2,0-0.2
		c0-0.1,0-0.1,0-0.1s0-0.1,0.1-0.1c0,0,0,0,0.1,0h0.5v-0.3c0-0.3,0-0.5,0.1-0.7s0.1-0.4,0.2-0.5s0.2-0.2,0.4-0.3
		c0.2-0.1,0.4-0.1,0.6-0.1c0.1,0,0.2,0,0.3,0c0.1,0,0.2,0,0.2,0.1c0.1,0,0.1,0,0.1,0.1c0,0,0,0,0,0.1v0.1
		C23.7,51.8,23.7,51.8,23.7,51.9z"/>
	<path class="st2" d="M26.6,53.7c0,0.1,0,0.2,0,0.3c0,0.1,0,0.1,0,0.2v0.1c0,0,0,0-0.1,0c0,0,0,0-0.1,0h-0.1h-0.1h-0.1
		c-0.1,0-0.1,0-0.2,0s-0.1,0.1-0.2,0.1c-0.1,0.1-0.1,0.1-0.2,0.2s-0.1,0.2-0.2,0.3v2.4v0.1c0,0,0,0-0.1,0.1c0,0-0.1,0-0.2,0
		s-0.2,0-0.3,0c-0.1,0-0.2,0-0.3,0c-0.1,0-0.1,0-0.2,0c0,0-0.1,0-0.1-0.1c0,0,0,0,0-0.1v-3.8v-0.1c0,0,0,0,0.1-0.1h0.1
		c0.1,0,0.1,0,0.2,0s0.2,0,0.2,0c0.1,0,0.1,0,0.1,0s0.1,0,0.1,0.1c0,0,0,0,0,0.1V54c0.1-0.1,0.2-0.3,0.3-0.3
		c0.1-0.1,0.2-0.2,0.3-0.2c0.1-0.1,0.2-0.1,0.2-0.1c0.1,0,0.2,0,0.2,0H26h0.1h0.1h0.1l0,0c0,0,0,0,0,0.1v0.1
		C26.6,53.5,26.6,53.6,26.6,53.7z"/>
	<path class="st2" d="M28.3,57.1C28.3,57.2,28.3,57.2,28.3,57.1c0,0.1-0.1,0.1-0.1,0.1s-0.1,0-0.2,0s-0.2,0-0.3,0
		c-0.1,0-0.2,0-0.3,0c-0.1,0-0.1,0-0.2,0c0,0-0.1,0-0.1-0.1c0,0,0,0,0-0.1v-3.8v-0.1c0,0,0,0,0.1-0.1c0,0,0.1,0,0.2,0s0.2,0,0.3,0
		c0.1,0,0.2,0,0.3,0c0.1,0,0.1,0,0.2,0c0,0,0.1,0,0.1,0.1c0,0,0,0,0,0.1V57.1L28.3,57.1z M28.4,52.1c0,0.2,0,0.4-0.1,0.4
		c-0.1,0.1-0.3,0.1-0.5,0.1s-0.4,0-0.5-0.1s-0.1-0.2-0.1-0.4c0-0.2,0-0.4,0.1-0.4c0.1-0.1,0.2-0.1,0.5-0.1c0.2,0,0.4,0,0.5,0.1
		C28.3,51.7,28.4,51.9,28.4,52.1z"/>
	<path class="st2" d="M32.8,55.1c0,0.1,0,0.2-0.1,0.3c-0.1,0.1-0.1,0.1-0.2,0.1h-2.3c0,0.2,0,0.3,0.1,0.4c0,0.1,0.1,0.2,0.2,0.3
		c0.1,0.1,0.2,0.2,0.3,0.2c0.1,0,0.3,0.1,0.5,0.1s0.4,0,0.5,0s0.3-0.1,0.4-0.1s0.2-0.1,0.3-0.1c0.1,0,0.1,0,0.2,0c0,0,0,0,0.1,0
		c0,0,0,0,0,0.1v0.1c0,0,0,0.1,0,0.2s0,0.1,0,0.2V57v0.1c0,0,0,0,0,0.1c0,0-0.1,0-0.2,0.1c-0.1,0-0.2,0.1-0.3,0.1
		c-0.1,0-0.3,0.1-0.4,0.1c-0.2,0-0.3,0-0.5,0c-0.3,0-0.6,0-0.9-0.1S30,57.2,29.9,57c-0.2-0.2-0.3-0.4-0.4-0.7
		c-0.1-0.3-0.1-0.6-0.1-0.9s0-0.6,0.1-0.9s0.2-0.5,0.4-0.7c0.2-0.2,0.4-0.3,0.6-0.4s0.5-0.1,0.8-0.1s0.6,0,0.8,0.1
		c0.2,0.1,0.4,0.2,0.6,0.4c0.1,0.2,0.3,0.4,0.3,0.6c0.1,0.2,0.1,0.5,0.1,0.7v0H32.8z M31.8,54.8c0-0.3-0.1-0.5-0.2-0.7
		s-0.3-0.3-0.6-0.3c-0.1,0-0.3,0-0.4,0.1s-0.2,0.1-0.3,0.2c-0.1,0.1-0.1,0.2-0.2,0.3c0,0.1-0.1,0.2-0.1,0.4H31.8z"/>
	<path class="st2" d="M37.3,57.1C37.3,57.2,37.3,57.2,37.3,57.1c0,0.1-0.1,0.1-0.1,0.1s-0.1,0-0.2,0s-0.2,0-0.3,0
		c-0.1,0-0.2,0-0.3,0c-0.1,0-0.1,0-0.2,0c0,0-0.1,0-0.1-0.1c0,0,0,0,0-0.1v-2c0-0.2,0-0.3,0-0.4S36,54.4,36,54.3
		c-0.1-0.1-0.1-0.1-0.2-0.2c-0.1,0-0.2-0.1-0.3-0.1c-0.1,0-0.3,0-0.4,0.1s-0.3,0.2-0.4,0.4V57v0.1c0,0,0,0-0.1,0.1c0,0-0.1,0-0.2,0
		s-0.2,0-0.3,0c-0.1,0-0.2,0-0.3,0c-0.1,0-0.1,0-0.2,0c0,0-0.1,0-0.1-0.1c0,0,0,0,0-0.1v-3.8v-0.1c0,0,0,0,0.1-0.1h0.1
		c0.1,0,0.1,0,0.2,0s0.2,0,0.2,0c0.1,0,0.1,0,0.1,0s0.1,0,0.1,0.1c0,0,0,0,0,0.1v0.4c0.2-0.2,0.4-0.4,0.6-0.5s0.4-0.2,0.7-0.2
		c0.3,0,0.5,0,0.7,0.1s0.3,0.2,0.4,0.3c0.1,0.1,0.2,0.3,0.2,0.5s0.1,0.4,0.1,0.7v2.6H37.3z"/>
	<path class="st2" d="M42,57.1C42,57.2,42,57.2,42,57.1c0,0.1-0.1,0.1-0.1,0.1h-0.1c-0.1,0-0.1,0-0.2,0s-0.2,0-0.2,0
		c-0.1,0-0.1,0-0.1,0s-0.1,0-0.1-0.1c0,0,0,0,0-0.1v-0.4c-0.2,0.2-0.4,0.4-0.6,0.5s-0.5,0.2-0.7,0.2c-0.3,0-0.5-0.1-0.7-0.2
		s-0.4-0.3-0.5-0.5s-0.2-0.4-0.3-0.7c-0.1-0.3-0.1-0.5-0.1-0.8s0-0.6,0.1-0.9s0.2-0.5,0.3-0.7c0.1-0.2,0.3-0.3,0.5-0.4
		s0.4-0.2,0.7-0.2c0.2,0,0.4,0,0.6,0.1s0.3,0.2,0.5,0.4v-2.1v-0.1c0,0,0,0,0.1-0.1c0,0,0.1,0,0.2,0s0.2,0,0.3,0c0.1,0,0.2,0,0.3,0
		c0.1,0,0.1,0,0.2,0c0,0,0.1,0,0.1,0.1c0,0,0,0,0,0.1v5.8H42z M40.9,54.6c-0.2-0.2-0.3-0.3-0.4-0.4S40.2,54,40.1,54s-0.3,0-0.4,0.1
		s-0.2,0.2-0.2,0.3c-0.1,0.1-0.1,0.2-0.1,0.4c0,0.1,0,0.3,0,0.4c0,0.2,0,0.3,0,0.5s0.1,0.3,0.1,0.4c0.1,0.1,0.1,0.2,0.2,0.3
		c0.1,0.1,0.2,0.1,0.4,0.1c0.1,0,0.1,0,0.2,0s0.1-0.1,0.2-0.1s0.1-0.1,0.2-0.2s0.2-0.2,0.3-0.3v-1.3H40.9z"/>
	<path class="st2" d="M44.1,57.1C44.1,57.2,44.1,57.2,44.1,57.1c0,0.1-0.1,0.1-0.1,0.1s-0.1,0-0.2,0s-0.2,0-0.3,0
		c-0.1,0-0.2,0-0.3,0c-0.1,0-0.1,0-0.2,0c0,0-0.1,0-0.1-0.1c0,0,0,0,0-0.1v-5.6v-0.1c0,0,0,0,0.1-0.1c0,0,0.1,0,0.2,0s0.2,0,0.3,0
		c0.1,0,0.2,0,0.3,0c0.1,0,0.1,0,0.2,0c0,0,0.1,0,0.1,0.1s0,0,0,0.1V57.1z"/>
	<path class="st2" d="M47.4,57.3l-0.5,1.3c0,0.1-0.1,0.1-0.2,0.2c-0.1,0-0.3,0-0.5,0c-0.1,0-0.2,0-0.3,0c-0.1,0-0.1,0-0.2,0
		l-0.1-0.1v-0.1l0.5-1.3c0,0-0.1,0-0.1-0.1l-0.1-0.1l-1.3-3.5c0-0.1-0.1-0.2-0.1-0.2c0-0.1,0-0.1,0.1-0.1c0,0,0.1-0.1,0.2-0.1
		s0.2,0,0.3,0c0.1,0,0.2,0,0.3,0c0.1,0,0.1,0,0.2,0c0,0,0.1,0,0.1,0.1c0,0,0,0.1,0.1,0.2l0.9,2.5l0,0l0.8-2.6c0-0.1,0-0.1,0.1-0.1
		c0,0,0.1,0,0.1-0.1c0.1,0,0.2,0,0.3,0c0.1,0,0.2,0,0.3,0c0.1,0,0.1,0,0.2,0.1l0.1,0.1c0,0.1,0,0.1,0,0.2L47.4,57.3z"/>
</g>
</svg>
