<?xml version="1.0" encoding="utf-8"?>
<!-- Generator: Adobe Illustrator 21.0.0, SVG Export Plug-In . SVG Version: 6.00 Build 0)  -->
<svg version="1.1" id="Слой_1" xmlns="http://www.w3.org/2000/svg" xmlns:xlink="http://www.w3.org/1999/xlink" x="0px" y="0px"
	 viewBox="0 0 225.9 59" style="enable-background:new 0 0 225.9 59;" xml:space="preserve">
<style type="text/css">
	.st0{fill:#231F20;}
	.st1{fill:none;stroke:#231F20;stroke-width:0.22;stroke-miterlimit:22.93;}
	.st2{fill:#231F20;stroke:#231F20;stroke-miterlimit:22.93;}
	.st3{fill:none;}
	.st4{fill:none;stroke:#231F20;stroke-width:1.42;stroke-miterlimit:22.93;}
	.st5{fill:#FF5000;}
	.st6{fill:#3FAE2A;}
</style>
<title>иконка без белого поля</title>
<path class="st0" d="M9.1,55.7c0,0.1-0.1,0.2-0.1,0.2H8.8H8.4H8.1H7.9c0,0-0.1,0-0.1-0.1c0,0,0-0.1,0-0.1v-4.8h-5v4.8
	c0,0,0,0.1,0,0.1c0,0.1-0.1,0.1-0.2,0.1H2.4H2H1.7H1.4c-0.1,0-0.2-0.1-0.2-0.2V45.2c0-0.1,0.1-0.2,0.2-0.2h0.2H2h0.3h0.2
	c0,0,0.1,0,0.1,0.1c0,0,0,0.1,0,0.1v4.3h4.9v-4.3c0,0,0-0.1,0-0.1c0,0,0.1-0.1,0.1-0.1H8h0.4h0.3h0.2c0.1,0,0.2,0.1,0.1,0.2
	L9.1,55.7z"/>
<path class="st0" d="M18.3,51.6c0,0.2,0,0.3-0.2,0.5c-0.1,0.1-0.2,0.1-0.4,0.1h-5c0,0.4,0,0.8,0.1,1.1c0.1,0.3,0.2,0.6,0.4,0.9
	c0.2,0.2,0.5,0.4,0.8,0.5c0.4,0.1,0.8,0.2,1.1,0.2c0.3,0,0.7,0,1-0.1c0.2,0,0.5-0.1,0.7-0.2l0.5-0.2c0.1,0,0.2-0.1,0.3-0.1
	c0,0,0.1,0,0.1,0c0,0,0.1,0.1,0.1,0.1c0,0.1,0,0.1,0,0.2c0,0.1,0,0.2,0,0.2c0,0.1,0,0.1,0,0.2c0,0,0,0.1,0,0.1c0,0,0,0.1,0,0.1
	l-0.1,0.1c-0.1,0.1-0.2,0.1-0.3,0.2c-0.2,0.1-0.4,0.2-0.6,0.2c-0.2,0.1-0.5,0.1-0.8,0.2c-0.3,0.1-0.7,0.1-1,0.1
	c-0.6,0-1.1-0.1-1.6-0.3c-0.4-0.2-0.9-0.4-1.2-0.8c-0.4-0.3-0.6-0.8-0.8-1.2c-0.2-0.6-0.3-1.2-0.2-1.8c0-0.6,0.1-1.2,0.2-1.7
	c0.2-0.5,0.4-0.9,0.7-1.3c0.3-0.4,0.7-0.6,1.1-0.8c0.5-0.2,1-0.3,1.5-0.3c0.5,0,1,0.1,1.5,0.3c0.4,0.2,0.7,0.4,1,0.8
	c0.3,0.3,0.5,0.7,0.6,1.1c0.1,0.5,0.2,0.9,0.2,1.4L18.3,51.6L18.3,51.6z M16.9,51.2c0-0.6-0.1-1.2-0.5-1.7c-0.4-0.4-0.9-0.7-1.5-0.6
	c-0.3,0-0.6,0.1-0.9,0.2c-0.3,0.1-0.5,0.3-0.6,0.5c-0.2,0.2-0.3,0.5-0.4,0.7c-0.1,0.3-0.1,0.6-0.2,0.9L16.9,51.2z"/>
<path class="st0" d="M25,48.5c0,0.1,0,0.2,0,0.3c0,0.1,0,0.1-0.1,0.2c0,0-0.1,0.1-0.1,0.1c0,0-0.1,0-0.1,0h-2.9v6.5c0,0,0,0.1,0,0.1
	c0,0-0.1,0.1-0.1,0.1c-0.1,0-0.1,0-0.2,0h-0.4h-0.3c-0.1,0-0.2,0-0.2,0c0,0-0.1,0-0.1-0.1c0,0,0-0.1,0-0.1v-7.3c0-0.1,0-0.3,0.1-0.4
	c0.1-0.1,0.2-0.1,0.3-0.1h3.8c0,0,0.1,0,0.1,0c0,0,0.1,0.1,0.1,0.1c0,0.1,0,0.1,0.1,0.2C25,48.3,25,48.4,25,48.5z"/>
<path class="st0" d="M33.2,51.8c0,0.6-0.1,1.1-0.2,1.7c-0.1,0.5-0.4,0.9-0.7,1.3c-0.3,0.4-0.7,0.7-1.2,0.9c-0.5,0.2-1.1,0.3-1.7,0.3
	c-0.6,0-1.1-0.1-1.6-0.3c-0.4-0.2-0.8-0.4-1.2-0.8c-0.3-0.4-0.6-0.8-0.7-1.3c-0.2-0.6-0.2-1.1-0.2-1.7c0-0.6,0.1-1.1,0.2-1.7
	c0.1-0.5,0.4-0.9,0.7-1.3c0.3-0.4,0.7-0.7,1.2-0.9c0.5-0.2,1.1-0.3,1.7-0.3c0.6,0,1.1,0.1,1.6,0.3c0.4,0.2,0.8,0.4,1.2,0.8
	c0.3,0.4,0.6,0.8,0.7,1.3C33.1,50.7,33.2,51.2,33.2,51.8L33.2,51.8z M31.8,51.9c0-0.4,0-0.8-0.1-1.2c-0.1-0.4-0.2-0.7-0.4-1
	c-0.2-0.3-0.4-0.5-0.7-0.7c-0.3-0.2-0.7-0.3-1.1-0.2c-0.4,0-0.7,0.1-1.1,0.2c-0.3,0.1-0.5,0.4-0.7,0.6c-0.2,0.3-0.3,0.6-0.4,0.9
	c-0.1,0.4-0.1,0.8-0.1,1.2c0,0.4,0,0.8,0.1,1.2c0.1,0.3,0.2,0.7,0.4,1c0.2,0.3,0.4,0.5,0.7,0.7c0.7,0.3,1.5,0.3,2.2,0
	c0.3-0.1,0.5-0.3,0.7-0.6c0.2-0.3,0.3-0.6,0.4-0.9C31.7,52.6,31.8,52.3,31.8,51.9z"/>
<path class="st0" d="M42.2,51.8c0,0.6-0.1,1.2-0.2,1.8c-0.1,0.5-0.3,0.9-0.6,1.3c-0.3,0.4-0.6,0.6-1,0.8C39.9,55.9,39.5,56,39,56
	c-0.2,0-0.4,0-0.6-0.1c-0.2,0-0.4-0.1-0.6-0.2c-0.2-0.1-0.4-0.2-0.5-0.4c-0.2-0.2-0.4-0.3-0.6-0.5v3.8c0,0,0,0.1,0,0.1
	c0,0-0.1,0.1-0.1,0.1c-0.1,0-0.1,0-0.2,0h-0.8c-0.1,0-0.1,0-0.2,0c0,0-0.1,0-0.1-0.1c0,0,0-0.1,0-0.1V48.1c0,0,0-0.1,0-0.1
	c0,0,0.1-0.1,0.1-0.1c0.1,0,0.1,0,0.2,0h0.6c0.1,0,0.1,0,0.2,0c0,0,0.1,0,0.1,0.1c0,0,0,0.1,0,0.1v1c0.2-0.2,0.4-0.4,0.7-0.6
	c0.2-0.2,0.4-0.3,0.6-0.4c0.2-0.1,0.4-0.2,0.7-0.3c0.2-0.1,0.5-0.1,0.7-0.1c0.5,0,1,0.1,1.4,0.3c0.4,0.2,0.7,0.5,0.9,0.9
	c0.3,0.4,0.4,0.8,0.5,1.3C42.1,50.7,42.2,51.2,42.2,51.8L42.2,51.8z M40.8,51.9c0-0.4,0-0.7-0.1-1.1c0-0.3-0.1-0.7-0.3-1
	c-0.1-0.3-0.3-0.5-0.6-0.7c-0.3-0.2-0.6-0.3-0.9-0.2c-0.2,0-0.4,0-0.5,0.1c-0.2,0.1-0.4,0.1-0.5,0.2c-0.2,0.1-0.4,0.3-0.6,0.5
	c-0.2,0.2-0.4,0.4-0.6,0.7v3c0.3,0.4,0.7,0.8,1.1,1.1c0.3,0.2,0.7,0.4,1.1,0.4c0.3,0,0.6-0.1,0.9-0.2c0.3-0.2,0.5-0.4,0.6-0.7
	c0.2-0.3,0.3-0.6,0.3-0.9C40.7,52.6,40.8,52.3,40.8,51.9z"/>
<path class="st0" d="M54.7,51.8c0,0.6-0.1,1.1-0.2,1.7c-0.1,0.5-0.4,0.9-0.7,1.3c-0.3,0.4-0.7,0.7-1.2,0.9c-0.5,0.2-1,0.3-1.6,0.3
	c-0.5,0-1.1-0.1-1.6-0.2c-0.4-0.1-0.8-0.4-1.1-0.7c-0.3-0.3-0.5-0.7-0.7-1.2c-0.2-0.5-0.3-1-0.3-1.6h-1.7v3.3c0,0,0,0.1,0,0.1
	c0,0-0.1,0.1-0.1,0.1c-0.1,0-0.1,0-0.2,0H45h-0.3c-0.1,0-0.1,0-0.2,0c0,0-0.1,0-0.1-0.1c0,0,0-0.1,0-0.1v-7.5c0,0,0-0.1,0-0.1
	c0,0,0.1-0.1,0.1-0.1c0.1,0,0.1,0,0.2,0h0.7c0.1,0,0.1,0,0.2,0c0,0,0.1,0,0.1,0.1c0,0,0,0.1,0,0.1v3.1h1.7c0-0.5,0.2-1,0.3-1.4
	c0.2-0.4,0.4-0.8,0.7-1.1c0.3-0.3,0.7-0.6,1.1-0.7c0.5-0.2,1-0.3,1.5-0.3c0.5,0,1.1,0.1,1.6,0.3c0.4,0.2,0.8,0.5,1.1,0.8
	c0.3,0.4,0.5,0.8,0.7,1.3C54.6,50.7,54.7,51.2,54.7,51.8L54.7,51.8z M53.2,51.9c0-0.4,0-0.8-0.1-1.1c-0.1-0.3-0.2-0.7-0.3-1
	c-0.2-0.3-0.4-0.5-0.7-0.7c-0.7-0.3-1.4-0.3-2.1,0c-0.3,0.1-0.5,0.4-0.7,0.6c-0.2,0.3-0.3,0.6-0.4,0.9c-0.1,0.4-0.1,0.8-0.1,1.2
	c0,0.4,0,0.8,0.1,1.2c0.1,0.4,0.2,0.7,0.3,1c0.2,0.3,0.4,0.5,0.7,0.6c0.3,0.2,0.7,0.2,1.1,0.2c0.3,0,0.7-0.1,1-0.2
	c0.3-0.1,0.5-0.3,0.7-0.6c0.2-0.3,0.4-0.6,0.4-0.9C53.2,52.8,53.3,52.3,53.2,51.9z"/>
<path class="st0" d="M62.2,55.7c0,0,0,0.1,0,0.1c0,0-0.1,0.1-0.1,0.1c-0.1,0-0.1,0-0.2,0h-0.3h-0.3c-0.1,0-0.1,0-0.2,0
	c0,0-0.1,0-0.1-0.1c0,0,0-0.1,0-0.1v-3c-0.3,0.1-0.7,0.3-1,0.3c-0.4,0.1-0.8,0.1-1.1,0.1c-0.4,0-0.9-0.1-1.3-0.2
	c-0.3-0.1-0.6-0.3-0.8-0.5c-0.2-0.2-0.4-0.5-0.4-0.8c-0.1-0.4-0.1-0.8-0.1-1.2v-2.2c0,0,0-0.1,0-0.1c0,0,0.1-0.1,0.1-0.1
	c0.1,0,0.1,0,0.2,0h0.7c0.1,0,0.1,0,0.2,0c0,0,0.1,0,0.1,0.1c0,0,0,0.1,0,0.1V50c0,0.3,0,0.7,0.1,1c0.1,0.2,0.2,0.4,0.3,0.5
	c0.1,0.1,0.3,0.2,0.5,0.3c0.2,0.1,0.4,0.1,0.7,0.1c0.3,0,0.7,0,1-0.1c0.3-0.1,0.6-0.2,1-0.4v-3.3c0,0,0-0.1,0-0.1
	c0,0,0.1-0.1,0.1-0.1c0.1,0,0.1,0,0.2,0h0.7c0.1,0,0.1,0,0.2,0c0,0,0.1,0,0.1,0.1c0,0,0,0.1,0,0.1L62.2,55.7z"/>
<path class="st0" d="M70.5,55.7c0,0.1,0,0.1-0.1,0.2c-0.1,0-0.1,0.1-0.2,0.1c-0.1,0-0.2,0-0.3,0c-0.1,0-0.2,0-0.3,0
	c-0.1,0-0.1,0-0.2-0.1c0,0-0.1-0.1-0.1-0.2v-0.8c-0.3,0.3-0.7,0.6-1.1,0.8c-0.4,0.2-0.8,0.3-1.3,0.3c-0.4,0-0.7,0-1.1-0.2
	c-0.3-0.1-0.6-0.2-0.8-0.5c-0.2-0.2-0.4-0.4-0.5-0.7c-0.1-0.3-0.2-0.7-0.2-1c0-0.4,0.1-0.7,0.3-1.1c0.2-0.3,0.4-0.6,0.8-0.8
	c0.4-0.2,0.8-0.4,1.2-0.5c0.5-0.1,1.1-0.2,1.6-0.2h1v-0.6c0-0.3,0-0.5-0.1-0.8c-0.1-0.4-0.4-0.8-0.8-0.9c-0.3-0.1-0.5-0.1-0.8-0.1
	c-0.3,0-0.6,0-0.9,0.1c-0.2,0.1-0.5,0.2-0.7,0.3c-0.2,0.1-0.4,0.2-0.5,0.3c-0.1,0.1-0.2,0.1-0.3,0.1c0,0-0.1,0-0.1,0
	c0,0-0.1-0.1-0.1-0.1c0-0.1,0-0.1-0.1-0.2c0-0.1,0-0.2,0-0.2c0-0.1,0-0.2,0-0.3c0-0.1,0.1-0.2,0.1-0.2c0.1-0.1,0.2-0.2,0.4-0.2
	c0.2-0.1,0.4-0.2,0.6-0.3c0.3-0.1,0.5-0.2,0.8-0.2c0.3-0.1,0.6-0.1,0.9-0.1c0.5,0,0.9,0.1,1.4,0.2c0.3,0.1,0.7,0.3,0.9,0.5
	c0.2,0.2,0.4,0.5,0.5,0.9c0.1,0.4,0.2,0.8,0.2,1.2L70.5,55.7L70.5,55.7z M69.1,52.2h-1.2c-0.3,0-0.7,0-1,0.1
	c-0.2,0.1-0.5,0.2-0.7,0.3c-0.2,0.1-0.3,0.3-0.4,0.5c-0.1,0.2-0.1,0.4-0.1,0.6c0,0.4,0.1,0.7,0.4,0.9c0.3,0.2,0.6,0.4,1,0.3
	c0.4,0,0.7-0.1,1-0.3c0.4-0.2,0.7-0.5,1-0.8L69.1,52.2z"/>
<path class="st0" d="M78.6,55.7c0,0,0,0.1,0,0.1c0,0-0.1,0.1-0.1,0.1h-0.2H78h-0.3h-0.2c0,0-0.1,0-0.1-0.1c0,0,0-0.1,0-0.1v-3.2
	h-0.8c-0.3,0-0.5,0-0.8,0.1c-0.2,0.1-0.4,0.2-0.5,0.3c-0.2,0.1-0.3,0.3-0.4,0.5c-0.1,0.2-0.3,0.5-0.3,0.8l-0.6,1.5
	c0,0.1-0.1,0.1-0.1,0.2c0,0.1-0.1,0.1-0.2,0.1c-0.1,0-0.2,0-0.2,0h-0.7h-0.2c-0.1,0-0.1,0-0.1-0.1c0,0,0-0.1,0-0.1
	c0-0.1,0-0.1,0-0.2c0-0.1,0.1-0.2,0.2-0.5l0.6-1.4c0.1-0.3,0.3-0.7,0.6-0.9c0.2-0.3,0.5-0.5,0.8-0.6c-0.5-0.1-0.9-0.3-1.3-0.7
	c-0.3-0.4-0.5-0.8-0.5-1.3c0-0.3,0.1-0.7,0.2-1c0.2-0.3,0.4-0.5,0.7-0.7c0.3-0.2,0.7-0.4,1.1-0.5c0.5-0.1,1-0.2,1.5-0.2h0.4h0.6h0.6
	h0.5c0.1,0,0.3,0.1,0.4,0.2c0.1,0.1,0.1,0.3,0.1,0.4L78.6,55.7L78.6,55.7z M77.2,48.9c-0.2,0-0.4,0-0.6,0H76c-0.3,0-0.7,0-1,0.1
	c-0.2,0-0.4,0.1-0.6,0.3c-0.1,0.1-0.3,0.3-0.3,0.4C74,49.8,74,50,74,50.2c0,0.2,0,0.4,0.1,0.5c0.1,0.2,0.2,0.3,0.3,0.4
	c0.2,0.1,0.4,0.2,0.6,0.2c0.3,0.1,0.7,0.1,1,0.1h1.1L77.2,48.9z"/>
<path class="st0" d="M90.6,54.5c0,0.1,0,0.2,0,0.2c0,0.1,0,0.1,0,0.2c0,0,0,0.1-0.1,0.1c0,0.1-0.1,0.1-0.1,0.2
	c-0.1,0.1-0.2,0.2-0.4,0.3c-0.2,0.1-0.4,0.2-0.6,0.3c-0.2,0.1-0.5,0.2-0.7,0.2C88.5,56,88.3,56,88,56c-0.5,0-1-0.1-1.4-0.3
	c-0.4-0.2-0.8-0.4-1.1-0.8c-0.3-0.4-0.5-0.8-0.7-1.3c-0.2-0.6-0.3-1.1-0.3-1.7c0-0.7,0.1-1.3,0.3-1.9c0.1-0.5,0.4-0.9,0.7-1.3
	c0.3-0.3,0.7-0.6,1.1-0.8c0.4-0.2,0.9-0.3,1.4-0.2c0.2,0,0.5,0,0.7,0.1c0.2,0,0.4,0.1,0.6,0.2c0.2,0.1,0.3,0.1,0.5,0.2
	c0.1,0.1,0.2,0.1,0.3,0.2c0.1,0,0.1,0.1,0.1,0.2c0,0,0,0.1,0.1,0.1c0,0.1,0,0.1,0,0.2c0,0.1,0,0.2,0,0.2c0,0.2,0,0.3-0.1,0.5
	c0,0.1-0.1,0.1-0.2,0.1c-0.1,0-0.2-0.1-0.3-0.1c-0.1-0.1-0.2-0.2-0.3-0.3c-0.2-0.1-0.4-0.2-0.6-0.3c-0.3-0.1-0.6-0.1-0.8-0.1
	c-0.6,0-1.2,0.3-1.5,0.8c-0.4,0.7-0.6,1.5-0.5,2.2c0,0.4,0,0.9,0.1,1.3c0.1,0.3,0.2,0.6,0.4,0.9c0.2,0.2,0.4,0.4,0.7,0.5
	c0.3,0.1,0.6,0.2,0.9,0.2c0.3,0,0.6,0,0.8-0.2c0.2-0.1,0.4-0.2,0.6-0.3l0.4-0.3c0.1-0.1,0.2-0.1,0.3-0.2c0,0,0.1,0,0.1,0
	c0,0,0.1,0.1,0.1,0.1c0,0.1,0,0.1,0,0.2C90.6,54.3,90.6,54.4,90.6,54.5z"/>
<path class="st0" d="M97.7,48.5c0,0.1,0,0.2,0,0.3c0,0.1,0,0.1-0.1,0.2c0,0-0.1,0.1-0.1,0.1c0,0-0.1,0-0.1,0h-2.3v6.5
	c0,0,0,0.1,0,0.1c0,0-0.1,0.1-0.1,0.1c-0.1,0-0.1,0-0.2,0h-0.3h-0.3l-0.2,0c0,0-0.1,0-0.1-0.1c0,0,0-0.1,0-0.1v-6.5h-2.3
	c0,0-0.1,0-0.1,0c0,0-0.1-0.1-0.1-0.1c0-0.1,0-0.1-0.1-0.2c0-0.1,0-0.2,0-0.3c0-0.1,0-0.2,0-0.3c0-0.1,0-0.1,0.1-0.2
	c0,0,0.1-0.1,0.1-0.1c0,0,0.1,0,0.1,0h5.9c0,0,0.1,0,0.1,0c0,0,0.1,0.1,0.1,0.1c0,0.1,0,0.1,0.1,0.2C97.7,48.4,97.7,48.4,97.7,48.5z
	"/>
<path class="st0" d="M106,51.8c0,0.6-0.1,1.2-0.2,1.8c-0.1,0.5-0.3,0.9-0.6,1.3c-0.3,0.4-0.6,0.6-1,0.8c-0.4,0.2-0.9,0.3-1.4,0.3
	c-0.2,0-0.4,0-0.6-0.1c-0.2,0-0.4-0.1-0.6-0.2c-0.2-0.1-0.4-0.2-0.5-0.4c-0.2-0.2-0.4-0.3-0.6-0.5v3.8c0,0,0,0.1,0,0.1
	c0,0-0.1,0.1-0.1,0.1c-0.1,0-0.1,0-0.2,0h-0.7c-0.1,0-0.1,0-0.2,0c0,0-0.1,0-0.1-0.1c0,0,0-0.1,0-0.1V48.1c0,0,0-0.1,0-0.1
	c0,0,0.1-0.1,0.1-0.1c0.1,0,0.1,0,0.2,0h0.6c0.1,0,0.1,0,0.2,0c0,0,0.1,0,0.1,0.1c0,0,0,0.1,0,0.1v1c0.2-0.2,0.4-0.4,0.7-0.6
	c0.2-0.2,0.4-0.3,0.6-0.4c0.2-0.1,0.4-0.2,0.7-0.3c0.2-0.1,0.5-0.1,0.7-0.1c0.5,0,1,0.1,1.4,0.3c0.4,0.2,0.7,0.5,0.9,0.9
	c0.3,0.4,0.4,0.8,0.5,1.3C106,50.7,106,51.2,106,51.8L106,51.8z M104.6,51.9c0-0.4,0-0.7-0.1-1.1c0-0.3-0.1-0.7-0.3-1
	c-0.1-0.3-0.3-0.5-0.6-0.7c-0.3-0.2-0.6-0.3-0.9-0.2c-0.2,0-0.4,0-0.5,0.1c-0.2,0.1-0.4,0.1-0.5,0.2c-0.2,0.1-0.4,0.3-0.6,0.5
	c-0.2,0.2-0.4,0.4-0.6,0.7v3c0.3,0.4,0.7,0.8,1.1,1.1c0.3,0.2,0.7,0.4,1.1,0.4c0.3,0,0.6-0.1,0.9-0.2c0.3-0.2,0.5-0.4,0.6-0.7
	c0.2-0.3,0.3-0.6,0.3-0.9C104.5,52.6,104.6,52.3,104.6,51.9L104.6,51.9z"/>
<path class="st0" d="M115.1,51.8c0,0.6-0.1,1.1-0.2,1.7c-0.1,0.5-0.4,0.9-0.7,1.3c-0.3,0.4-0.7,0.7-1.2,0.9
	c-0.5,0.2-1.1,0.3-1.7,0.3c-0.6,0-1.1-0.1-1.6-0.3c-0.4-0.2-0.8-0.4-1.2-0.8c-0.3-0.4-0.6-0.8-0.7-1.3c-0.2-0.6-0.2-1.1-0.2-1.7
	c0-0.6,0.1-1.1,0.2-1.7c0.1-0.5,0.4-0.9,0.7-1.3c0.3-0.4,0.7-0.7,1.2-0.9c0.5-0.2,1.1-0.3,1.7-0.3c0.6,0,1.1,0.1,1.6,0.3
	c0.4,0.2,0.8,0.4,1.2,0.8c0.3,0.4,0.6,0.8,0.7,1.3C115.1,50.6,115.2,51.2,115.1,51.8L115.1,51.8z M113.7,51.9c0-0.4,0-0.8-0.1-1.2
	c-0.1-0.4-0.2-0.7-0.4-1c-0.2-0.3-0.4-0.5-0.7-0.7c-0.3-0.2-0.7-0.3-1.1-0.2c-0.4,0-0.7,0.1-1.1,0.2c-0.3,0.1-0.5,0.4-0.7,0.6
	c-0.2,0.3-0.3,0.6-0.4,0.9c-0.1,0.4-0.1,0.8-0.1,1.2c0,0.4,0,0.8,0.1,1.2c0.1,0.3,0.2,0.7,0.4,1c0.2,0.3,0.4,0.5,0.7,0.7
	c0.7,0.3,1.5,0.3,2.2,0c0.3-0.1,0.5-0.3,0.7-0.6c0.2-0.3,0.3-0.6,0.4-0.9C113.6,52.6,113.7,52.3,113.7,51.9z"/>
<path class="st0" d="M123.9,55.7c0,0,0,0.1,0,0.1c0,0-0.1,0.1-0.1,0.1h-0.2h-0.3h-0.3h-0.2c0,0-0.1,0-0.1-0.1c0,0,0-0.1,0-0.1v-4.4
	c0-0.2,0-0.4,0-0.7s0-0.5,0-0.7c-0.1,0.2-0.3,0.4-0.4,0.7l-0.5,0.6l-3.2,4.4l-0.1,0.1c0,0-0.1,0.1-0.1,0.1h-0.2h-0.3h-0.3h-0.2
	c0,0-0.1,0-0.1-0.1c0,0,0-0.1,0-0.1v-7.6c0,0,0-0.1,0-0.1c0,0,0.1-0.1,0.1-0.1c0.1,0,0.1,0,0.2,0h0.3c0.2,0,0.4,0,0.6,0.1
	c0.1,0,0.1,0.1,0.2,0.2v4.3c0,0.2,0,0.4,0,0.7s0,0.4,0,0.6l0.4-0.6c0.1-0.2,0.3-0.4,0.4-0.6l3.2-4.4l0.1-0.1c0,0,0.1-0.1,0.1-0.1
	h0.2h0.6c0.1,0,0.1,0,0.2,0c0,0,0.1,0,0.1,0.1c0,0,0,0.1,0,0.1L123.9,55.7z"/>
<path class="st0" d="M131.8,48.5c0,0.1,0,0.2,0,0.3c0,0.1,0,0.1-0.1,0.2c0,0-0.1,0.1-0.1,0.1c0,0-0.1,0-0.1,0h-2.3v6.5
	c0,0,0,0.1,0,0.1c0,0-0.1,0.1-0.1,0.1c-0.1,0-0.1,0-0.2,0h-0.3h-0.3l-0.2,0c0,0-0.1,0-0.1-0.1c0,0,0-0.1,0-0.1v-6.5h-2.3
	c0,0-0.1,0-0.1,0c0,0-0.1-0.1-0.1-0.1c0-0.1,0-0.1-0.1-0.2c0-0.1,0-0.2,0-0.3c0-0.1,0-0.2,0-0.3c0-0.1,0-0.1,0.1-0.2
	c0,0,0.1-0.1,0.1-0.1c0,0,0.1,0,0.1,0h5.9c0,0,0.1,0,0.1,0c0,0,0.1,0.1,0.1,0.1c0,0.1,0,0.1,0.1,0.2
	C131.8,48.4,131.8,48.4,131.8,48.5z"/>
<path class="st0" d="M139.4,51.6c0,0.2,0,0.3-0.2,0.5c-0.1,0.1-0.2,0.1-0.4,0.1h-5c0,0.4,0,0.8,0.1,1.1c0.1,0.3,0.2,0.6,0.4,0.9
	c0.2,0.2,0.5,0.4,0.8,0.5c0.4,0.1,0.8,0.2,1.1,0.2c0.3,0,0.7,0,1-0.1c0.2,0,0.5-0.1,0.7-0.2l0.5-0.2c0.1,0,0.2-0.1,0.3-0.1
	c0,0,0.1,0,0.1,0c0,0,0.1,0.1,0.1,0.1c0,0.1,0,0.1,0,0.2c0,0.1,0,0.2,0,0.2c0,0.1,0,0.1,0,0.2c0,0,0,0.1,0,0.1c0,0,0,0.1,0,0.1
	l-0.1,0.1c-0.1,0.1-0.2,0.1-0.3,0.2c-0.2,0.1-0.4,0.2-0.6,0.2c-0.2,0.1-0.5,0.1-0.8,0.2c-0.3,0.1-0.7,0.1-1,0.1
	c-0.6,0-1.1-0.1-1.6-0.3c-0.4-0.2-0.9-0.4-1.2-0.8c-0.3-0.4-0.6-0.8-0.7-1.3c-0.2-0.6-0.3-1.2-0.2-1.8c0-0.6,0.1-1.2,0.2-1.8
	c0.2-0.5,0.4-0.9,0.7-1.3c0.3-0.4,0.7-0.6,1.1-0.8c0.5-0.2,1-0.3,1.5-0.3c0.5,0,1,0.1,1.5,0.3c0.4,0.2,0.7,0.4,1,0.8
	c0.3,0.3,0.5,0.7,0.6,1.1c0.1,0.5,0.2,0.9,0.2,1.4V51.6L139.4,51.6z M138.1,51.2c0.1-0.6-0.1-1.2-0.5-1.7c-0.4-0.4-0.9-0.7-1.5-0.6
	c-0.3,0-0.6,0.1-0.9,0.2c-0.3,0.1-0.5,0.3-0.6,0.5c-0.2,0.2-0.3,0.5-0.4,0.7c-0.1,0.3-0.1,0.6-0.2,0.9L138.1,51.2z"/>
<path class="st0" d="M147.5,55.7c0,0,0,0.1,0,0.1c0,0-0.1,0.1-0.1,0.1c-0.1,0-0.1,0-0.2,0h-0.3h-0.3c-0.1,0-0.1,0-0.2,0
	c0,0-0.1,0-0.1-0.1c0,0,0-0.1,0-0.1v-6.6h-2.1c-0.1,0.9-0.2,1.7-0.3,2.4c-0.1,0.6-0.2,1.2-0.4,1.8c-0.1,0.5-0.3,0.9-0.5,1.3
	c-0.2,0.3-0.4,0.6-0.6,0.8c-0.2,0.2-0.5,0.4-0.8,0.5c-0.3,0.1-0.6,0.1-0.9,0.1c0,0-0.1,0-0.1,0c0,0-0.1-0.1-0.1-0.1
	c0-0.1,0-0.1-0.1-0.2c0-0.1,0-0.2,0-0.3c0-0.1,0-0.2,0-0.3c0-0.1,0-0.1,0-0.2c0,0,0-0.1,0.1-0.1c0,0,0.1,0,0.1,0
	c0.2,0,0.4,0,0.5-0.1c0.2-0.1,0.3-0.3,0.5-0.4c0.2-0.2,0.3-0.5,0.4-0.8c0.1-0.4,0.3-0.8,0.4-1.2c0.1-0.5,0.2-1,0.3-1.7
	c0.1-0.6,0.2-1.3,0.3-2.2c0-0.1,0-0.3,0.1-0.4c0.1-0.1,0.2-0.1,0.3-0.1h3.9c0.1,0,0.2,0,0.3,0.1c0.1,0.1,0.1,0.2,0.1,0.4L147.5,55.7
	z"/>
<path class="st0" d="M156.3,53.3c0,0.4-0.1,0.7-0.2,1.1c-0.1,0.3-0.4,0.6-0.7,0.9c-0.3,0.3-0.7,0.5-1.2,0.6
	c-0.6,0.2-1.1,0.2-1.7,0.2h-0.5h-0.5h-0.5h-0.4c-0.4,0-0.7-0.3-0.7-0.7c0,0,0-0.1,0-0.1v-7c0,0,0-0.1,0-0.1c0,0,0.1-0.1,0.1-0.1
	c0.1,0,0.1,0,0.2,0h0.7c0.1,0,0.1,0,0.2,0c0,0,0.1,0,0.1,0.1c0,0,0,0.1,0,0.1v2.7h0.7h0.7c0.5,0,1.1,0.1,1.6,0.2
	c0.4,0.1,0.8,0.3,1.1,0.5c0.3,0.2,0.5,0.5,0.6,0.8C156.2,52.7,156.2,53,156.3,53.3L156.3,53.3z M154.9,53.4c0-0.2,0-0.4-0.1-0.6
	c-0.1-0.2-0.2-0.4-0.4-0.5c-0.2-0.1-0.4-0.2-0.7-0.3c-0.3-0.1-0.7-0.1-1-0.1H152h-0.6v2.9l0.6,0.1h0.8c0.5,0,1.1-0.1,1.6-0.4
	C154.7,54.1,154.9,53.8,154.9,53.4L154.9,53.4z"/>
<path class="st0" d="M164.8,55.7c0,0,0,0.1,0,0.1c0,0-0.1,0.1-0.1,0.1c-0.1,0-0.1,0-0.2,0h-0.3h-0.4c-0.1,0-0.1,0-0.2,0
	c0,0-0.1,0-0.1-0.1c0,0,0-0.1,0-0.1v-3.3h-3.9v3.3c0,0,0,0.1,0,0.1c0,0-0.1,0.1-0.1,0.1c-0.1,0-0.1,0-0.2,0h-0.4h-0.3
	c-0.1,0-0.1,0-0.2,0c0,0-0.1,0-0.1-0.1c0,0,0-0.1,0-0.1v-7.6c0,0,0-0.1,0-0.1c0,0,0.1-0.1,0.1-0.1c0.1,0,0.1,0,0.2,0h0.7
	c0.1,0,0.1,0,0.2,0c0,0,0.1,0,0.1,0.1c0,0,0,0.1,0,0.1v3.1h3.9v-3.1c0,0,0-0.1,0-0.1c0,0,0.1-0.1,0.1-0.1c0.1,0,0.1,0,0.2,0h0.7
	c0.1,0,0.1,0,0.2,0c0,0,0.1,0,0.1,0.1c0,0,0,0.1,0,0.1L164.8,55.7z"/>
<path class="st0" d="M173,55.7c0,0.1,0,0.1-0.1,0.2c-0.1,0-0.1,0.1-0.2,0.1c-0.1,0-0.2,0-0.3,0c-0.1,0-0.2,0-0.4,0
	c-0.1,0-0.1,0-0.2-0.1c0,0-0.1-0.1-0.1-0.2v-0.8c-0.3,0.3-0.7,0.6-1.1,0.8c-0.4,0.2-0.8,0.3-1.3,0.3c-0.4,0-0.7,0-1.1-0.2
	c-0.3-0.1-0.6-0.2-0.8-0.4c-0.2-0.2-0.4-0.4-0.5-0.7c-0.1-0.3-0.2-0.7-0.2-1c0-0.4,0.1-0.8,0.3-1.1c0.2-0.3,0.4-0.6,0.8-0.8
	c0.4-0.2,0.8-0.4,1.2-0.5c0.5-0.1,1.1-0.2,1.6-0.2h1v-0.6c0-0.3,0-0.5-0.1-0.8c-0.1-0.4-0.4-0.8-0.8-0.9c-0.3-0.1-0.5-0.1-0.8-0.1
	c-0.3,0-0.6,0-0.9,0.1c-0.2,0.1-0.5,0.2-0.7,0.3c-0.2,0.1-0.4,0.2-0.5,0.3c-0.1,0.1-0.2,0.1-0.3,0.1c0,0-0.1,0-0.1,0
	c0,0-0.1-0.1-0.1-0.1c0-0.1,0-0.1-0.1-0.2c0-0.1,0-0.2,0-0.2c0-0.1,0-0.2,0-0.3c0-0.1,0.1-0.2,0.1-0.2c0.1-0.1,0.2-0.2,0.4-0.2
	c0.2-0.1,0.4-0.2,0.6-0.3c0.3-0.1,0.5-0.2,0.8-0.2c0.3-0.1,0.6-0.1,0.9-0.1c0.5,0,0.9,0.1,1.4,0.2c0.3,0.1,0.7,0.3,0.9,0.5
	c0.2,0.2,0.4,0.5,0.5,0.9c0.1,0.4,0.2,0.8,0.2,1.2L173,55.7L173,55.7z M171.7,52.2h-1.2c-0.3,0-0.7,0-1,0.1
	c-0.2,0.1-0.5,0.2-0.7,0.3c-0.2,0.1-0.3,0.3-0.4,0.5c-0.1,0.2-0.1,0.4-0.1,0.6c0,0.4,0.1,0.7,0.4,0.9c0.3,0.2,0.6,0.4,1,0.3
	c0.4,0,0.7-0.1,1-0.3c0.4-0.2,0.7-0.5,1-0.8L171.7,52.2z"/>
<path class="st0" d="M181.2,55.7c0,0,0,0.1,0,0.1c0,0-0.1,0.1-0.1,0.1h-0.2h-0.4h-0.3h-0.2c0,0-0.1,0-0.1-0.1c0,0,0-0.1,0-0.1v-3.2
	H179c-0.3,0-0.5,0-0.8,0.1c-0.2,0.1-0.4,0.2-0.5,0.3c-0.2,0.1-0.3,0.3-0.4,0.5c-0.1,0.2-0.3,0.5-0.4,0.8l-0.6,1.5
	c0,0.1-0.1,0.1-0.1,0.2c0,0.1-0.1,0.1-0.1,0.1c-0.1,0-0.2,0-0.2,0h-0.6H175c-0.1,0-0.1,0-0.1-0.1c0,0,0-0.1,0-0.1c0-0.1,0-0.1,0-0.2
	c0-0.1,0.1-0.2,0.2-0.5l0.6-1.4c0.1-0.3,0.3-0.7,0.6-0.9c0.2-0.3,0.5-0.5,0.8-0.6c-0.5-0.1-0.9-0.3-1.3-0.7
	c-0.3-0.4-0.5-0.8-0.5-1.3c0-0.3,0.1-0.7,0.2-1c0.2-0.3,0.4-0.6,0.7-0.8c0.3-0.2,0.7-0.4,1.1-0.5c0.5-0.1,1-0.2,1.5-0.2h0.5h0.6h0.6
	h0.5c0.1,0,0.3,0.1,0.4,0.2c0.1,0.1,0.1,0.3,0.1,0.4v7.2L181.2,55.7z M179.8,48.9c-0.2,0-0.4,0-0.6,0h-0.6c-0.3,0-0.7,0-1,0.1
	c-0.2,0-0.4,0.1-0.6,0.3c-0.1,0.1-0.3,0.3-0.3,0.4c-0.1,0.2-0.1,0.4-0.1,0.5c0,0.2,0,0.4,0.1,0.5c0.1,0.2,0.2,0.3,0.4,0.4
	c0.2,0.1,0.4,0.2,0.6,0.2c0.3,0.1,0.7,0.1,1,0.1h1.1L179.8,48.9z"/>
<path class="st0" d="M192.9,48.5c0,0.1,0,0.2,0,0.3c0,0.1,0,0.1-0.1,0.2c0,0-0.1,0.1-0.1,0.1c0,0-0.1,0-0.1,0h-2.3v6.5
	c0,0,0,0.1,0,0.1c0,0-0.1,0.1-0.1,0.1c-0.1,0-0.1,0-0.2,0h-0.3h-0.3l-0.2,0c0,0-0.1,0-0.1-0.1c0,0,0-0.1,0-0.1v-6.5h-2.3
	c0,0-0.1,0-0.1,0c0,0-0.1-0.1-0.1-0.1c0-0.1,0-0.1-0.1-0.2c0-0.1,0-0.2,0-0.3c0-0.1,0-0.2,0-0.3c0-0.1,0-0.1,0.1-0.2
	c0,0,0.1-0.1,0.1-0.1c0,0,0.1,0,0.1,0h5.9c0,0,0.1,0,0.1,0c0,0,0.1,0.1,0.1,0.1c0,0.1,0,0.1,0.1,0.2C193,48.4,193,48.4,192.9,48.5z"
	/>
<path class="st0" d="M200.5,55.7C200.5,55.7,200.5,55.8,200.5,55.7c0,0.1-0.1,0.1-0.1,0.2h-0.2h-0.3h-0.4h-0.2c0,0-0.1,0-0.1-0.1
	c0,0,0-0.1-0.1-0.1l-0.8-2c-0.1-0.2-0.2-0.4-0.3-0.7c-0.1-0.2-0.2-0.3-0.4-0.4c-0.2-0.1-0.3-0.2-0.5-0.2c-0.2-0.1-0.4-0.1-0.6-0.1
	h-0.6v3.4c0,0,0,0.1,0,0.1c0,0-0.1,0.1-0.1,0.1h-0.2h-0.3h-0.3h-0.2c0,0-0.1,0-0.1-0.1c0,0,0-0.1,0-0.1V48c0,0,0-0.1,0-0.1
	c0,0,0.1,0,0.1-0.1h0.2h0.6h0.2c0,0,0.1,0,0.1,0.1c0,0,0,0.1,0,0.1v3.2h0.6c0.2,0,0.4,0,0.6-0.1c0.2,0,0.3-0.1,0.5-0.2
	c0.2-0.1,0.3-0.3,0.4-0.4c0.1-0.2,0.2-0.4,0.3-0.6l0.7-1.7c0-0.1,0.1-0.2,0.2-0.2c0.1,0,0.1,0,0.2,0h0.7h0.2c0,0,0.1,0,0.1,0.1
	c0,0,0,0.1,0,0.1c0,0.1,0,0.1,0,0.2c0,0.1,0,0.1-0.1,0.2l-0.7,1.7c-0.1,0.2-0.2,0.5-0.4,0.7c-0.1,0.2-0.3,0.3-0.4,0.5
	c-0.1,0.1-0.3,0.2-0.4,0.3c-0.1,0.1-0.3,0.1-0.4,0.2l0,0c0.2,0.1,0.4,0.1,0.5,0.2c0.2,0.1,0.3,0.2,0.5,0.3c0.2,0.2,0.3,0.3,0.4,0.5
	c0.1,0.2,0.3,0.4,0.4,0.7l0.8,1.9l0.1,0.1c0,0,0,0.1,0,0.1L200.5,55.7C200.5,55.7,200.5,55.7,200.5,55.7z"/>
<path class="st0" d="M207.7,55.7c0,0.1,0,0.1-0.1,0.2c-0.1,0-0.1,0.1-0.2,0.1c-0.1,0-0.2,0-0.3,0c-0.1,0-0.2,0-0.4,0
	c-0.1,0-0.1,0-0.2-0.1c0,0-0.1-0.1-0.1-0.2v-0.8c-0.3,0.3-0.7,0.6-1.1,0.8c-0.4,0.2-0.8,0.3-1.3,0.3c-0.4,0-0.7,0-1.1-0.2
	c-0.3-0.1-0.6-0.2-0.8-0.5c-0.2-0.2-0.4-0.4-0.5-0.7c-0.1-0.3-0.2-0.7-0.2-1c0-0.4,0.1-0.8,0.3-1.1c0.2-0.3,0.4-0.6,0.8-0.8
	c0.4-0.2,0.8-0.4,1.2-0.5c0.5-0.1,1.1-0.2,1.6-0.2h1v-0.6c0-0.3,0-0.5-0.1-0.8c-0.1-0.4-0.4-0.8-0.8-0.9c-0.3-0.1-0.5-0.1-0.8-0.1
	c-0.3,0-0.6,0-0.9,0.1c-0.2,0.1-0.5,0.2-0.7,0.3c-0.2,0.1-0.4,0.2-0.5,0.3c-0.1,0.1-0.2,0.1-0.3,0.1c0,0-0.1,0-0.1,0
	c0,0-0.1-0.1-0.1-0.1c0-0.1,0-0.1-0.1-0.2c0-0.1,0-0.2,0-0.2c0-0.1,0-0.2,0-0.3c0-0.1,0.1-0.2,0.1-0.2c0.1-0.1,0.2-0.2,0.4-0.2
	c0.2-0.1,0.4-0.2,0.6-0.3c0.3-0.1,0.5-0.2,0.8-0.2c0.3-0.1,0.6-0.1,0.9-0.1c0.5,0,0.9,0.1,1.4,0.2c0.3,0.1,0.7,0.3,0.9,0.5
	c0.2,0.2,0.4,0.5,0.5,0.9c0.1,0.4,0.2,0.8,0.2,1.2L207.7,55.7L207.7,55.7z M206.3,52.2h-1.2c-0.3,0-0.7,0-1,0.1
	c-0.2,0.1-0.5,0.2-0.7,0.3c-0.2,0.1-0.3,0.3-0.4,0.5c-0.1,0.2-0.1,0.4-0.1,0.6c0,0.4,0.1,0.7,0.4,0.9c0.3,0.2,0.6,0.4,1,0.3
	c0.4,0,0.7-0.1,1-0.3c0.4-0.2,0.7-0.5,1-0.8L206.3,52.2z"/>
<path class="st0" d="M216.9,55.7c0,0,0,0.1,0,0.1c0,0-0.1,0.1-0.1,0.1c-0.1,0-0.1,0-0.2,0h-0.3h-0.4c-0.1,0-0.1,0-0.2,0
	c0,0-0.1,0-0.1-0.1c0,0,0-0.1,0-0.1v-3.3h-3.9v3.3c0,0,0,0.1,0,0.1c0,0-0.1,0.1-0.1,0.1c-0.1,0-0.1,0-0.2,0H211h-0.3
	c-0.1,0-0.1,0-0.2,0c0,0-0.1,0-0.1-0.1c0,0,0-0.1,0-0.1v-7.6c0,0,0-0.1,0-0.1c0,0,0.1-0.1,0.1-0.1c0.1,0,0.1,0,0.2,0h0.7
	c0.1,0,0.1,0,0.2,0c0,0,0.1,0,0.1,0.1c0,0,0,0.1,0,0.1v3.1h3.9v-3.1c0,0,0-0.1,0-0.1c0,0,0.1-0.1,0.1-0.1c0.1,0,0.1,0,0.2,0h0.7
	c0.1,0,0.1,0,0.2,0c0,0,0.1,0,0.1,0.1c0,0,0,0.1,0,0.1L216.9,55.7z"/>
<path class="st0" d="M225.8,53.3c0,0.4-0.1,0.7-0.2,1.1c-0.1,0.3-0.4,0.6-0.7,0.9c-0.3,0.3-0.7,0.5-1.2,0.6
	c-0.6,0.2-1.1,0.2-1.7,0.2h-0.4h-0.5h-0.5h-0.4c-0.4,0-0.7-0.3-0.7-0.7c0,0,0-0.1,0-0.1v-7c0,0,0-0.1,0-0.1c0,0,0.1-0.1,0.1-0.1
	c0.1,0,0.1,0,0.2,0h0.7c0.1,0,0.1,0,0.2,0c0,0,0.1,0,0.1,0.1c0,0,0,0.1,0,0.1v2.7h0.7h0.7c0.5,0,1.1,0.1,1.6,0.2
	c0.4,0.1,0.8,0.3,1.1,0.5c0.3,0.2,0.5,0.5,0.6,0.8C225.6,52.7,225.7,53,225.8,53.3L225.8,53.3z M224.3,53.4c0-0.2,0-0.4-0.1-0.6
	c-0.1-0.2-0.2-0.4-0.4-0.5c-0.2-0.1-0.4-0.2-0.7-0.3c-0.3-0.1-0.7-0.1-1-0.1h-0.7h-0.6v2.9l0.6,0.1h0.8c0.5,0,1.1-0.1,1.6-0.4
	C224.1,54.1,224.3,53.8,224.3,53.4L224.3,53.4z"/>
<path class="st1" d="M9.1,55.7c0,0.1-0.1,0.2-0.1,0.2H8.8H8.4H8.1H7.9c0,0-0.1,0-0.1-0.1c0,0,0-0.1,0-0.1v-4.8h-5v4.8
	c0,0,0,0.1,0,0.1c0,0.1-0.1,0.1-0.2,0.1H2.4H2H1.7H1.4c-0.1,0-0.2-0.1-0.2-0.2V45.2c0-0.1,0.1-0.2,0.2-0.2h0.2H2h0.3h0.2
	c0,0,0.1,0,0.1,0.1c0,0,0,0.1,0,0.1v4.3h4.9v-4.3c0,0,0-0.1,0-0.1c0,0,0.1-0.1,0.1-0.1H8h0.4h0.3h0.2c0.1,0,0.2,0.1,0.1,0.2
	L9.1,55.7z"/>
<path class="st1" d="M18.3,51.6c0,0.2,0,0.3-0.2,0.5c-0.1,0.1-0.2,0.1-0.4,0.1h-5c0,0.4,0,0.8,0.1,1.1c0.1,0.3,0.2,0.6,0.4,0.9
	c0.2,0.2,0.5,0.4,0.8,0.5c0.4,0.1,0.8,0.2,1.1,0.2c0.3,0,0.7,0,1-0.1c0.2,0,0.5-0.1,0.7-0.2l0.5-0.2c0.1,0,0.2-0.1,0.3-0.1
	c0,0,0.1,0,0.1,0c0,0,0.1,0.1,0.1,0.1c0,0.1,0,0.1,0,0.2c0,0.1,0,0.2,0,0.2c0,0.1,0,0.1,0,0.2c0,0,0,0.1,0,0.1c0,0,0,0.1,0,0.1
	l-0.1,0.1c-0.1,0.1-0.2,0.1-0.3,0.2c-0.2,0.1-0.4,0.2-0.6,0.2c-0.2,0.1-0.5,0.1-0.8,0.2c-0.3,0.1-0.7,0.1-1,0.1
	c-0.6,0-1.1-0.1-1.6-0.3c-0.4-0.2-0.9-0.4-1.2-0.8c-0.4-0.3-0.6-0.8-0.8-1.2c-0.2-0.6-0.3-1.2-0.2-1.8c0-0.6,0.1-1.2,0.2-1.7
	c0.2-0.5,0.4-0.9,0.7-1.3c0.3-0.4,0.7-0.6,1.1-0.8c0.5-0.2,1-0.3,1.5-0.3c0.5,0,1,0.1,1.5,0.3c0.4,0.2,0.7,0.4,1,0.8
	c0.3,0.3,0.5,0.7,0.6,1.1c0.1,0.5,0.2,0.9,0.2,1.4L18.3,51.6L18.3,51.6z M16.9,51.2c0-0.6-0.1-1.2-0.5-1.7c-0.4-0.4-0.9-0.7-1.5-0.6
	c-0.3,0-0.6,0.1-0.9,0.2c-0.3,0.1-0.5,0.3-0.6,0.5c-0.2,0.2-0.3,0.5-0.4,0.7c-0.1,0.3-0.1,0.6-0.2,0.9L16.9,51.2z"/>
<path class="st1" d="M25,48.5c0,0.1,0,0.2,0,0.3c0,0.1,0,0.1-0.1,0.2c0,0-0.1,0.1-0.1,0.1c0,0-0.1,0-0.1,0h-2.9v6.5c0,0,0,0.1,0,0.1
	c0,0-0.1,0.1-0.1,0.1c-0.1,0-0.1,0-0.2,0h-0.4h-0.3c-0.1,0-0.2,0-0.2,0c0,0-0.1,0-0.1-0.1c0,0,0-0.1,0-0.1v-7.3c0-0.1,0-0.3,0.1-0.4
	c0.1-0.1,0.2-0.1,0.3-0.1h3.8c0,0,0.1,0,0.1,0c0,0,0.1,0.1,0.1,0.1c0,0.1,0,0.1,0.1,0.2C25,48.3,25,48.4,25,48.5z"/>
<path class="st1" d="M33.2,51.8c0,0.6-0.1,1.1-0.2,1.7c-0.1,0.5-0.4,0.9-0.7,1.3c-0.3,0.4-0.7,0.7-1.2,0.9c-0.5,0.2-1.1,0.3-1.7,0.3
	c-0.6,0-1.1-0.1-1.6-0.3c-0.4-0.2-0.8-0.4-1.2-0.8c-0.3-0.4-0.6-0.8-0.7-1.3c-0.2-0.6-0.2-1.1-0.2-1.7c0-0.6,0.1-1.1,0.2-1.7
	c0.1-0.5,0.4-0.9,0.7-1.3c0.3-0.4,0.7-0.7,1.2-0.9c0.5-0.2,1.1-0.3,1.7-0.3c0.6,0,1.1,0.1,1.6,0.3c0.4,0.2,0.8,0.4,1.2,0.8
	c0.3,0.4,0.6,0.8,0.7,1.3C33.1,50.7,33.2,51.2,33.2,51.8L33.2,51.8z M31.8,51.9c0-0.4,0-0.8-0.1-1.2c-0.1-0.4-0.2-0.7-0.4-1
	c-0.2-0.3-0.4-0.5-0.7-0.7c-0.3-0.2-0.7-0.3-1.1-0.2c-0.4,0-0.7,0.1-1.1,0.2c-0.3,0.1-0.5,0.4-0.7,0.6c-0.2,0.3-0.3,0.6-0.4,0.9
	c-0.1,0.4-0.1,0.8-0.1,1.2c0,0.4,0,0.8,0.1,1.2c0.1,0.3,0.2,0.7,0.4,1c0.2,0.3,0.4,0.5,0.7,0.7c0.7,0.3,1.5,0.3,2.2,0
	c0.3-0.1,0.5-0.3,0.7-0.6c0.2-0.3,0.3-0.6,0.4-0.9C31.7,52.6,31.8,52.3,31.8,51.9z"/>
<path class="st1" d="M42.2,51.8c0,0.6-0.1,1.2-0.2,1.8c-0.1,0.5-0.3,0.9-0.6,1.3c-0.3,0.4-0.6,0.6-1,0.8C39.9,55.9,39.5,56,39,56
	c-0.2,0-0.4,0-0.6-0.1c-0.2,0-0.4-0.1-0.6-0.2c-0.2-0.1-0.4-0.2-0.5-0.4c-0.2-0.2-0.4-0.3-0.6-0.5v3.8c0,0,0,0.1,0,0.1
	c0,0-0.1,0.1-0.1,0.1c-0.1,0-0.1,0-0.2,0h-0.8c-0.1,0-0.1,0-0.2,0c0,0-0.1,0-0.1-0.1c0,0,0-0.1,0-0.1V48.1c0,0,0-0.1,0-0.1
	c0,0,0.1-0.1,0.1-0.1c0.1,0,0.1,0,0.2,0h0.6c0.1,0,0.1,0,0.2,0c0,0,0.1,0,0.1,0.1c0,0,0,0.1,0,0.1v1c0.2-0.2,0.4-0.4,0.7-0.6
	c0.2-0.2,0.4-0.3,0.6-0.4c0.2-0.1,0.4-0.2,0.7-0.3c0.2-0.1,0.5-0.1,0.7-0.1c0.5,0,1,0.1,1.4,0.3c0.4,0.2,0.7,0.5,0.9,0.9
	c0.3,0.4,0.4,0.8,0.5,1.3C42.1,50.7,42.2,51.2,42.2,51.8L42.2,51.8z M40.8,51.9c0-0.4,0-0.7-0.1-1.1c0-0.3-0.1-0.7-0.3-1
	c-0.1-0.3-0.3-0.5-0.6-0.7c-0.3-0.2-0.6-0.3-0.9-0.2c-0.2,0-0.4,0-0.5,0.1c-0.2,0.1-0.4,0.1-0.5,0.2c-0.2,0.1-0.4,0.3-0.6,0.5
	c-0.2,0.2-0.4,0.4-0.6,0.7v3c0.3,0.4,0.7,0.8,1.1,1.1c0.3,0.2,0.7,0.4,1.1,0.4c0.3,0,0.6-0.1,0.9-0.2c0.3-0.2,0.5-0.4,0.6-0.7
	c0.2-0.3,0.3-0.6,0.3-0.9C40.7,52.6,40.8,52.3,40.8,51.9z"/>
<path class="st1" d="M54.7,51.8c0,0.6-0.1,1.1-0.2,1.7c-0.1,0.5-0.4,0.9-0.7,1.3c-0.3,0.4-0.7,0.7-1.2,0.9c-0.5,0.2-1,0.3-1.6,0.3
	c-0.5,0-1.1-0.1-1.6-0.2c-0.4-0.1-0.8-0.4-1.1-0.7c-0.3-0.3-0.5-0.7-0.7-1.2c-0.2-0.5-0.3-1-0.3-1.6h-1.7v3.3c0,0,0,0.1,0,0.1
	c0,0-0.1,0.1-0.1,0.1c-0.1,0-0.1,0-0.2,0H45h-0.3c-0.1,0-0.1,0-0.2,0c0,0-0.1,0-0.1-0.1c0,0,0-0.1,0-0.1v-7.5c0,0,0-0.1,0-0.1
	c0,0,0.1-0.1,0.1-0.1c0.1,0,0.1,0,0.2,0h0.7c0.1,0,0.1,0,0.2,0c0,0,0.1,0,0.1,0.1c0,0,0,0.1,0,0.1v3.1h1.7c0-0.5,0.2-1,0.3-1.4
	c0.2-0.4,0.4-0.8,0.7-1.1c0.3-0.3,0.7-0.6,1.1-0.7c0.5-0.2,1-0.3,1.5-0.3c0.5,0,1.1,0.1,1.6,0.3c0.4,0.2,0.8,0.5,1.1,0.8
	c0.3,0.4,0.5,0.8,0.7,1.3C54.6,50.7,54.7,51.2,54.7,51.8L54.7,51.8z M53.2,51.9c0-0.4,0-0.8-0.1-1.1c-0.1-0.3-0.2-0.7-0.3-1
	c-0.2-0.3-0.4-0.5-0.7-0.7c-0.7-0.3-1.4-0.3-2.1,0c-0.3,0.1-0.5,0.4-0.7,0.6c-0.2,0.3-0.3,0.6-0.4,0.9c-0.1,0.4-0.1,0.8-0.1,1.2
	c0,0.4,0,0.8,0.1,1.2c0.1,0.4,0.2,0.7,0.3,1c0.2,0.3,0.4,0.5,0.7,0.6c0.3,0.2,0.7,0.2,1.1,0.2c0.3,0,0.7-0.1,1-0.2
	c0.3-0.1,0.5-0.3,0.7-0.6c0.2-0.3,0.4-0.6,0.4-0.9C53.2,52.8,53.3,52.3,53.2,51.9z"/>
<path class="st1" d="M62.2,55.7c0,0,0,0.1,0,0.1c0,0-0.1,0.1-0.1,0.1c-0.1,0-0.1,0-0.2,0h-0.3h-0.3c-0.1,0-0.1,0-0.2,0
	c0,0-0.1,0-0.1-0.1c0,0,0-0.1,0-0.1v-3c-0.3,0.1-0.7,0.3-1,0.3c-0.4,0.1-0.8,0.1-1.1,0.1c-0.4,0-0.9-0.1-1.3-0.2
	c-0.3-0.1-0.6-0.3-0.8-0.5c-0.2-0.2-0.4-0.5-0.4-0.8c-0.1-0.4-0.1-0.8-0.1-1.2v-2.2c0,0,0-0.1,0-0.1c0,0,0.1-0.1,0.1-0.1
	c0.1,0,0.1,0,0.2,0h0.7c0.1,0,0.1,0,0.2,0c0,0,0.1,0,0.1,0.1c0,0,0,0.1,0,0.1V50c0,0.3,0,0.7,0.1,1c0.1,0.2,0.2,0.4,0.3,0.5
	c0.1,0.1,0.3,0.2,0.5,0.3c0.2,0.1,0.4,0.1,0.7,0.1c0.3,0,0.7,0,1-0.1c0.3-0.1,0.6-0.2,1-0.4v-3.3c0,0,0-0.1,0-0.1
	c0,0,0.1-0.1,0.1-0.1c0.1,0,0.1,0,0.2,0h0.7c0.1,0,0.1,0,0.2,0c0,0,0.1,0,0.1,0.1c0,0,0,0.1,0,0.1L62.2,55.7z"/>
<path class="st1" d="M70.5,55.7c0,0.1,0,0.1-0.1,0.2c-0.1,0-0.1,0.1-0.2,0.1c-0.1,0-0.2,0-0.3,0c-0.1,0-0.2,0-0.3,0
	c-0.1,0-0.1,0-0.2-0.1c0,0-0.1-0.1-0.1-0.2v-0.8c-0.3,0.3-0.7,0.6-1.1,0.8c-0.4,0.2-0.8,0.3-1.3,0.3c-0.4,0-0.7,0-1.1-0.2
	c-0.3-0.1-0.6-0.2-0.8-0.5c-0.2-0.2-0.4-0.4-0.5-0.7c-0.1-0.3-0.2-0.7-0.2-1c0-0.4,0.1-0.7,0.3-1.1c0.2-0.3,0.4-0.6,0.8-0.8
	c0.4-0.2,0.8-0.4,1.2-0.5c0.5-0.1,1.1-0.2,1.6-0.2h1v-0.6c0-0.3,0-0.5-0.1-0.8c-0.1-0.4-0.4-0.8-0.8-0.9c-0.3-0.1-0.5-0.1-0.8-0.1
	c-0.3,0-0.6,0-0.9,0.1c-0.2,0.1-0.5,0.2-0.7,0.3c-0.2,0.1-0.4,0.2-0.5,0.3c-0.1,0.1-0.2,0.1-0.3,0.1c0,0-0.1,0-0.1,0
	c0,0-0.1-0.1-0.1-0.1c0-0.1,0-0.1-0.1-0.2c0-0.1,0-0.2,0-0.2c0-0.1,0-0.2,0-0.3c0-0.1,0.1-0.2,0.1-0.2c0.1-0.1,0.2-0.2,0.4-0.2
	c0.2-0.1,0.4-0.2,0.6-0.3c0.3-0.1,0.5-0.2,0.8-0.2c0.3-0.1,0.6-0.1,0.9-0.1c0.5,0,0.9,0.1,1.4,0.2c0.3,0.1,0.7,0.3,0.9,0.5
	c0.2,0.2,0.4,0.5,0.5,0.9c0.1,0.4,0.2,0.8,0.2,1.2L70.5,55.7L70.5,55.7z M69.1,52.2h-1.2c-0.3,0-0.7,0-1,0.1
	c-0.2,0.1-0.5,0.2-0.7,0.3c-0.2,0.1-0.3,0.3-0.4,0.5c-0.1,0.2-0.1,0.4-0.1,0.6c0,0.4,0.1,0.7,0.4,0.9c0.3,0.2,0.6,0.4,1,0.3
	c0.4,0,0.7-0.1,1-0.3c0.4-0.2,0.7-0.5,1-0.8L69.1,52.2z"/>
<path class="st1" d="M78.6,55.7c0,0,0,0.1,0,0.1c0,0-0.1,0.1-0.1,0.1h-0.2H78h-0.3h-0.2c0,0-0.1,0-0.1-0.1c0,0,0-0.1,0-0.1v-3.2
	h-0.8c-0.3,0-0.5,0-0.8,0.1c-0.2,0.1-0.4,0.2-0.5,0.3c-0.2,0.1-0.3,0.3-0.4,0.5c-0.1,0.2-0.3,0.5-0.3,0.8l-0.6,1.5
	c0,0.1-0.1,0.1-0.1,0.2c0,0.1-0.1,0.1-0.2,0.1c-0.1,0-0.2,0-0.2,0h-0.7h-0.2c-0.1,0-0.1,0-0.1-0.1c0,0,0-0.1,0-0.1
	c0-0.1,0-0.1,0-0.2c0-0.1,0.1-0.2,0.2-0.5l0.6-1.4c0.1-0.3,0.3-0.7,0.6-0.9c0.2-0.3,0.5-0.5,0.8-0.6c-0.5-0.1-0.9-0.3-1.3-0.7
	c-0.3-0.4-0.5-0.8-0.5-1.3c0-0.3,0.1-0.7,0.2-1c0.2-0.3,0.4-0.5,0.7-0.7c0.3-0.2,0.7-0.4,1.1-0.5c0.5-0.1,1-0.2,1.5-0.2h0.4h0.6h0.6
	h0.5c0.1,0,0.3,0.1,0.4,0.2c0.1,0.1,0.1,0.3,0.1,0.4L78.6,55.7L78.6,55.7z M77.2,48.9c-0.2,0-0.4,0-0.6,0H76c-0.3,0-0.7,0-1,0.1
	c-0.2,0-0.4,0.1-0.6,0.3c-0.1,0.1-0.3,0.3-0.3,0.4C74,49.8,74,50,74,50.2c0,0.2,0,0.4,0.1,0.5c0.1,0.2,0.2,0.3,0.3,0.4
	c0.2,0.1,0.4,0.2,0.6,0.2c0.3,0.1,0.7,0.1,1,0.1h1.1L77.2,48.9z"/>
<path class="st1" d="M90.6,54.5c0,0.1,0,0.2,0,0.2c0,0.1,0,0.1,0,0.2c0,0,0,0.1-0.1,0.1c0,0.1-0.1,0.1-0.1,0.2
	c-0.1,0.1-0.2,0.2-0.4,0.3c-0.2,0.1-0.4,0.2-0.6,0.3c-0.2,0.1-0.5,0.2-0.7,0.2C88.5,56,88.3,56,88,56c-0.5,0-1-0.1-1.4-0.3
	c-0.4-0.2-0.8-0.4-1.1-0.8c-0.3-0.4-0.5-0.8-0.7-1.3c-0.2-0.6-0.3-1.1-0.3-1.7c0-0.7,0.1-1.3,0.3-1.9c0.1-0.5,0.4-0.9,0.7-1.3
	c0.3-0.3,0.7-0.6,1.1-0.8c0.4-0.2,0.9-0.3,1.4-0.2c0.2,0,0.5,0,0.7,0.1c0.2,0,0.4,0.1,0.6,0.2c0.2,0.1,0.3,0.1,0.5,0.2
	c0.1,0.1,0.2,0.1,0.3,0.2c0.1,0,0.1,0.1,0.1,0.2c0,0,0,0.1,0.1,0.1c0,0.1,0,0.1,0,0.2c0,0.1,0,0.2,0,0.2c0,0.2,0,0.3-0.1,0.5
	c0,0.1-0.1,0.1-0.2,0.1c-0.1,0-0.2-0.1-0.3-0.1c-0.1-0.1-0.2-0.2-0.3-0.3c-0.2-0.1-0.4-0.2-0.6-0.3c-0.3-0.1-0.6-0.1-0.8-0.1
	c-0.6,0-1.2,0.3-1.5,0.8c-0.4,0.7-0.6,1.5-0.5,2.2c0,0.4,0,0.9,0.1,1.3c0.1,0.3,0.2,0.6,0.4,0.9c0.2,0.2,0.4,0.4,0.7,0.5
	c0.3,0.1,0.6,0.2,0.9,0.2c0.3,0,0.6,0,0.8-0.2c0.2-0.1,0.4-0.2,0.6-0.3l0.4-0.3c0.1-0.1,0.2-0.1,0.3-0.2c0,0,0.1,0,0.1,0
	c0,0,0.1,0.1,0.1,0.1c0,0.1,0,0.1,0,0.2C90.6,54.3,90.6,54.4,90.6,54.5z"/>
<path class="st1" d="M97.7,48.5c0,0.1,0,0.2,0,0.3c0,0.1,0,0.1-0.1,0.2c0,0-0.1,0.1-0.1,0.1c0,0-0.1,0-0.1,0h-2.3v6.5
	c0,0,0,0.1,0,0.1c0,0-0.1,0.1-0.1,0.1c-0.1,0-0.1,0-0.2,0h-0.3h-0.3l-0.2,0c0,0-0.1,0-0.1-0.1c0,0,0-0.1,0-0.1v-6.5h-2.3
	c0,0-0.1,0-0.1,0c0,0-0.1-0.1-0.1-0.1c0-0.1,0-0.1-0.1-0.2c0-0.1,0-0.2,0-0.3c0-0.1,0-0.2,0-0.3c0-0.1,0-0.1,0.1-0.2
	c0,0,0.1-0.1,0.1-0.1c0,0,0.1,0,0.1,0h5.9c0,0,0.1,0,0.1,0c0,0,0.1,0.1,0.1,0.1c0,0.1,0,0.1,0.1,0.2C97.7,48.4,97.7,48.4,97.7,48.5z
	"/>
<path class="st1" d="M106,51.8c0,0.6-0.1,1.2-0.2,1.8c-0.1,0.5-0.3,0.9-0.6,1.3c-0.3,0.4-0.6,0.6-1,0.8c-0.4,0.2-0.9,0.3-1.4,0.3
	c-0.2,0-0.4,0-0.6-0.1c-0.2,0-0.4-0.1-0.6-0.2c-0.2-0.1-0.4-0.2-0.5-0.4c-0.2-0.2-0.4-0.3-0.6-0.5v3.8c0,0,0,0.1,0,0.1
	c0,0-0.1,0.1-0.1,0.1c-0.1,0-0.1,0-0.2,0h-0.7c-0.1,0-0.1,0-0.2,0c0,0-0.1,0-0.1-0.1c0,0,0-0.1,0-0.1V48.1c0,0,0-0.1,0-0.1
	c0,0,0.1-0.1,0.1-0.1c0.1,0,0.1,0,0.2,0h0.6c0.1,0,0.1,0,0.2,0c0,0,0.1,0,0.1,0.1c0,0,0,0.1,0,0.1v1c0.2-0.2,0.4-0.4,0.7-0.6
	c0.2-0.2,0.4-0.3,0.6-0.4c0.2-0.1,0.4-0.2,0.7-0.3c0.2-0.1,0.5-0.1,0.7-0.1c0.5,0,1,0.1,1.4,0.3c0.4,0.2,0.7,0.5,0.9,0.9
	c0.3,0.4,0.4,0.8,0.5,1.3C106,50.7,106,51.2,106,51.8L106,51.8z M104.6,51.9c0-0.4,0-0.7-0.1-1.1c0-0.3-0.1-0.7-0.3-1
	c-0.1-0.3-0.3-0.5-0.6-0.7c-0.3-0.2-0.6-0.3-0.9-0.2c-0.2,0-0.4,0-0.5,0.1c-0.2,0.1-0.4,0.1-0.5,0.2c-0.2,0.1-0.4,0.3-0.6,0.5
	c-0.2,0.2-0.4,0.4-0.6,0.7v3c0.3,0.4,0.7,0.8,1.1,1.1c0.3,0.2,0.7,0.4,1.1,0.4c0.3,0,0.6-0.1,0.9-0.2c0.3-0.2,0.5-0.4,0.6-0.7
	c0.2-0.3,0.3-0.6,0.3-0.9C104.5,52.6,104.6,52.3,104.6,51.9L104.6,51.9z"/>
<path class="st1" d="M115.1,51.8c0,0.6-0.1,1.1-0.2,1.7c-0.1,0.5-0.4,0.9-0.7,1.3c-0.3,0.4-0.7,0.7-1.2,0.9
	c-0.5,0.2-1.1,0.3-1.7,0.3c-0.6,0-1.1-0.1-1.6-0.3c-0.4-0.2-0.8-0.4-1.2-0.8c-0.3-0.4-0.6-0.8-0.7-1.3c-0.2-0.6-0.2-1.1-0.2-1.7
	c0-0.6,0.1-1.1,0.2-1.7c0.1-0.5,0.4-0.9,0.7-1.3c0.3-0.4,0.7-0.7,1.2-0.9c0.5-0.2,1.1-0.3,1.7-0.3c0.6,0,1.1,0.1,1.6,0.3
	c0.4,0.2,0.8,0.4,1.2,0.8c0.3,0.4,0.6,0.8,0.7,1.3C115.1,50.6,115.2,51.2,115.1,51.8L115.1,51.8z M113.7,51.9c0-0.4,0-0.8-0.1-1.2
	c-0.1-0.4-0.2-0.7-0.4-1c-0.2-0.3-0.4-0.5-0.7-0.7c-0.3-0.2-0.7-0.3-1.1-0.2c-0.4,0-0.7,0.1-1.1,0.2c-0.3,0.1-0.5,0.4-0.7,0.6
	c-0.2,0.3-0.3,0.6-0.4,0.9c-0.1,0.4-0.1,0.8-0.1,1.2c0,0.4,0,0.8,0.1,1.2c0.1,0.3,0.2,0.7,0.4,1c0.2,0.3,0.4,0.5,0.7,0.7
	c0.7,0.3,1.5,0.3,2.2,0c0.3-0.1,0.5-0.3,0.7-0.6c0.2-0.3,0.3-0.6,0.4-0.9C113.6,52.6,113.7,52.3,113.7,51.9z"/>
<path class="st1" d="M123.9,55.7c0,0,0,0.1,0,0.1c0,0-0.1,0.1-0.1,0.1h-0.2h-0.3h-0.3h-0.2c0,0-0.1,0-0.1-0.1c0,0,0-0.1,0-0.1v-4.4
	c0-0.2,0-0.4,0-0.7s0-0.5,0-0.7c-0.1,0.2-0.3,0.4-0.4,0.7l-0.5,0.6l-3.2,4.4l-0.1,0.1c0,0-0.1,0.1-0.1,0.1h-0.2h-0.3h-0.3h-0.2
	c0,0-0.1,0-0.1-0.1c0,0,0-0.1,0-0.1v-7.6c0,0,0-0.1,0-0.1c0,0,0.1-0.1,0.1-0.1c0.1,0,0.1,0,0.2,0h0.3c0.2,0,0.4,0,0.6,0.1
	c0.1,0,0.1,0.1,0.2,0.2v4.3c0,0.2,0,0.4,0,0.7s0,0.4,0,0.6l0.4-0.6c0.1-0.2,0.3-0.4,0.4-0.6l3.2-4.4l0.1-0.1c0,0,0.1-0.1,0.1-0.1
	h0.2h0.6c0.1,0,0.1,0,0.2,0c0,0,0.1,0,0.1,0.1c0,0,0,0.1,0,0.1L123.9,55.7z"/>
<path class="st1" d="M131.8,48.5c0,0.1,0,0.2,0,0.3c0,0.1,0,0.1-0.1,0.2c0,0-0.1,0.1-0.1,0.1c0,0-0.1,0-0.1,0h-2.3v6.5
	c0,0,0,0.1,0,0.1c0,0-0.1,0.1-0.1,0.1c-0.1,0-0.1,0-0.2,0h-0.3h-0.3l-0.2,0c0,0-0.1,0-0.1-0.1c0,0,0-0.1,0-0.1v-6.5h-2.3
	c0,0-0.1,0-0.1,0c0,0-0.1-0.1-0.1-0.1c0-0.1,0-0.1-0.1-0.2c0-0.1,0-0.2,0-0.3c0-0.1,0-0.2,0-0.3c0-0.1,0-0.1,0.1-0.2
	c0,0,0.1-0.1,0.1-0.1c0,0,0.1,0,0.1,0h5.9c0,0,0.1,0,0.1,0c0,0,0.1,0.1,0.1,0.1c0,0.1,0,0.1,0.1,0.2
	C131.8,48.4,131.8,48.4,131.8,48.5z"/>
<path class="st1" d="M139.4,51.6c0,0.2,0,0.3-0.2,0.5c-0.1,0.1-0.2,0.1-0.4,0.1h-5c0,0.4,0,0.8,0.1,1.1c0.1,0.3,0.2,0.6,0.4,0.9
	c0.2,0.2,0.5,0.4,0.8,0.5c0.4,0.1,0.8,0.2,1.1,0.2c0.3,0,0.7,0,1-0.1c0.2,0,0.5-0.1,0.7-0.2l0.5-0.2c0.1,0,0.2-0.1,0.3-0.1
	c0,0,0.1,0,0.1,0c0,0,0.1,0.1,0.1,0.1c0,0.1,0,0.1,0,0.2c0,0.1,0,0.2,0,0.2c0,0.1,0,0.1,0,0.2c0,0,0,0.1,0,0.1c0,0,0,0.1,0,0.1
	l-0.1,0.1c-0.1,0.1-0.2,0.1-0.3,0.2c-0.2,0.1-0.4,0.2-0.6,0.2c-0.2,0.1-0.5,0.1-0.8,0.2c-0.3,0.1-0.7,0.1-1,0.1
	c-0.6,0-1.1-0.1-1.6-0.3c-0.4-0.2-0.9-0.4-1.2-0.8c-0.3-0.4-0.6-0.8-0.7-1.3c-0.2-0.6-0.3-1.2-0.2-1.8c0-0.6,0.1-1.2,0.2-1.8
	c0.2-0.5,0.4-0.9,0.7-1.3c0.3-0.4,0.7-0.6,1.1-0.8c0.5-0.2,1-0.3,1.5-0.3c0.5,0,1,0.1,1.5,0.3c0.4,0.2,0.7,0.4,1,0.8
	c0.3,0.3,0.5,0.7,0.6,1.1c0.1,0.5,0.2,0.9,0.2,1.4V51.6L139.4,51.6z M138.1,51.2c0.1-0.6-0.1-1.2-0.5-1.7c-0.4-0.4-0.9-0.7-1.5-0.6
	c-0.3,0-0.6,0.1-0.9,0.2c-0.3,0.1-0.5,0.3-0.6,0.5c-0.2,0.2-0.3,0.5-0.4,0.7c-0.1,0.3-0.1,0.6-0.2,0.9L138.1,51.2z"/>
<path class="st1" d="M147.5,55.7c0,0,0,0.1,0,0.1c0,0-0.1,0.1-0.1,0.1c-0.1,0-0.1,0-0.2,0h-0.3h-0.3c-0.1,0-0.1,0-0.2,0
	c0,0-0.1,0-0.1-0.1c0,0,0-0.1,0-0.1v-6.6h-2.1c-0.1,0.9-0.2,1.7-0.3,2.4c-0.1,0.6-0.2,1.2-0.4,1.8c-0.1,0.5-0.3,0.9-0.5,1.3
	c-0.2,0.3-0.4,0.6-0.6,0.8c-0.2,0.2-0.5,0.4-0.8,0.5c-0.3,0.1-0.6,0.1-0.9,0.1c0,0-0.1,0-0.1,0c0,0-0.1-0.1-0.1-0.1
	c0-0.1,0-0.1-0.1-0.2c0-0.1,0-0.2,0-0.3c0-0.1,0-0.2,0-0.3c0-0.1,0-0.1,0-0.2c0,0,0-0.1,0.1-0.1c0,0,0.1,0,0.1,0
	c0.2,0,0.4,0,0.5-0.1c0.2-0.1,0.3-0.3,0.5-0.4c0.2-0.2,0.3-0.5,0.4-0.8c0.1-0.4,0.3-0.8,0.4-1.2c0.1-0.5,0.2-1,0.3-1.7
	c0.1-0.6,0.2-1.3,0.3-2.2c0-0.1,0-0.3,0.1-0.4c0.1-0.1,0.2-0.1,0.3-0.1h3.9c0.1,0,0.2,0,0.3,0.1c0.1,0.1,0.1,0.2,0.1,0.4L147.5,55.7
	z"/>
<path class="st1" d="M156.3,53.3c0,0.4-0.1,0.7-0.2,1.1c-0.1,0.3-0.4,0.6-0.7,0.9c-0.3,0.3-0.7,0.5-1.2,0.6
	c-0.6,0.2-1.1,0.2-1.7,0.2h-0.5h-0.5h-0.5h-0.4c-0.4,0-0.7-0.3-0.7-0.7c0,0,0-0.1,0-0.1v-7c0,0,0-0.1,0-0.1c0,0,0.1-0.1,0.1-0.1
	c0.1,0,0.1,0,0.2,0h0.7c0.1,0,0.1,0,0.2,0c0,0,0.1,0,0.1,0.1c0,0,0,0.1,0,0.1v2.7h0.7h0.7c0.5,0,1.1,0.1,1.6,0.2
	c0.4,0.1,0.8,0.3,1.1,0.5c0.3,0.2,0.5,0.5,0.6,0.8C156.2,52.7,156.2,53,156.3,53.3L156.3,53.3z M154.9,53.4c0-0.2,0-0.4-0.1-0.6
	c-0.1-0.2-0.2-0.4-0.4-0.5c-0.2-0.1-0.4-0.2-0.7-0.3c-0.3-0.1-0.7-0.1-1-0.1H152h-0.6v2.9l0.6,0.1h0.8c0.5,0,1.1-0.1,1.6-0.4
	C154.7,54.1,154.9,53.8,154.9,53.4L154.9,53.4z"/>
<path class="st1" d="M164.8,55.7c0,0,0,0.1,0,0.1c0,0-0.1,0.1-0.1,0.1c-0.1,0-0.1,0-0.2,0h-0.3h-0.4c-0.1,0-0.1,0-0.2,0
	c0,0-0.1,0-0.1-0.1c0,0,0-0.1,0-0.1v-3.3h-3.9v3.3c0,0,0,0.1,0,0.1c0,0-0.1,0.1-0.1,0.1c-0.1,0-0.1,0-0.2,0h-0.4h-0.3
	c-0.1,0-0.1,0-0.2,0c0,0-0.1,0-0.1-0.1c0,0,0-0.1,0-0.1v-7.6c0,0,0-0.1,0-0.1c0,0,0.1-0.1,0.1-0.1c0.1,0,0.1,0,0.2,0h0.7
	c0.1,0,0.1,0,0.2,0c0,0,0.1,0,0.1,0.1c0,0,0,0.1,0,0.1v3.1h3.9v-3.1c0,0,0-0.1,0-0.1c0,0,0.1-0.1,0.1-0.1c0.1,0,0.1,0,0.2,0h0.7
	c0.1,0,0.1,0,0.2,0c0,0,0.1,0,0.1,0.1c0,0,0,0.1,0,0.1L164.8,55.7z"/>
<path class="st1" d="M173,55.7c0,0.1,0,0.1-0.1,0.2c-0.1,0-0.1,0.1-0.2,0.1c-0.1,0-0.2,0-0.3,0c-0.1,0-0.2,0-0.4,0
	c-0.1,0-0.1,0-0.2-0.1c0,0-0.1-0.1-0.1-0.2v-0.8c-0.3,0.3-0.7,0.6-1.1,0.8c-0.4,0.2-0.8,0.3-1.3,0.3c-0.4,0-0.7,0-1.1-0.2
	c-0.3-0.1-0.6-0.2-0.8-0.4c-0.2-0.2-0.4-0.4-0.5-0.7c-0.1-0.3-0.2-0.7-0.2-1c0-0.4,0.1-0.8,0.3-1.1c0.2-0.3,0.4-0.6,0.8-0.8
	c0.4-0.2,0.8-0.4,1.2-0.5c0.5-0.1,1.1-0.2,1.6-0.2h1v-0.6c0-0.3,0-0.5-0.1-0.8c-0.1-0.4-0.4-0.8-0.8-0.9c-0.3-0.1-0.5-0.1-0.8-0.1
	c-0.3,0-0.6,0-0.9,0.1c-0.2,0.1-0.5,0.2-0.7,0.3c-0.2,0.1-0.4,0.2-0.5,0.3c-0.1,0.1-0.2,0.1-0.3,0.1c0,0-0.1,0-0.1,0
	c0,0-0.1-0.1-0.1-0.1c0-0.1,0-0.1-0.1-0.2c0-0.1,0-0.2,0-0.2c0-0.1,0-0.2,0-0.3c0-0.1,0.1-0.2,0.1-0.2c0.1-0.1,0.2-0.2,0.4-0.2
	c0.2-0.1,0.4-0.2,0.6-0.3c0.3-0.1,0.5-0.2,0.8-0.2c0.3-0.1,0.6-0.1,0.9-0.1c0.5,0,0.9,0.1,1.4,0.2c0.3,0.1,0.7,0.3,0.9,0.5
	c0.2,0.2,0.4,0.5,0.5,0.9c0.1,0.4,0.2,0.8,0.2,1.2L173,55.7L173,55.7z M171.7,52.2h-1.2c-0.3,0-0.7,0-1,0.1
	c-0.2,0.1-0.5,0.2-0.7,0.3c-0.2,0.1-0.3,0.3-0.4,0.5c-0.1,0.2-0.1,0.4-0.1,0.6c0,0.4,0.1,0.7,0.4,0.9c0.3,0.2,0.6,0.4,1,0.3
	c0.4,0,0.7-0.1,1-0.3c0.4-0.2,0.7-0.5,1-0.8L171.7,52.2z"/>
<path class="st1" d="M181.2,55.7c0,0,0,0.1,0,0.1c0,0-0.1,0.1-0.1,0.1h-0.2h-0.4h-0.3h-0.2c0,0-0.1,0-0.1-0.1c0,0,0-0.1,0-0.1v-3.2
	H179c-0.3,0-0.5,0-0.8,0.1c-0.2,0.1-0.4,0.2-0.5,0.3c-0.2,0.1-0.3,0.3-0.4,0.5c-0.1,0.2-0.3,0.5-0.4,0.8l-0.6,1.5
	c0,0.1-0.1,0.1-0.1,0.2c0,0.1-0.1,0.1-0.1,0.1c-0.1,0-0.2,0-0.2,0h-0.6H175c-0.1,0-0.1,0-0.1-0.1c0,0,0-0.1,0-0.1c0-0.1,0-0.1,0-0.2
	c0-0.1,0.1-0.2,0.2-0.5l0.6-1.4c0.1-0.3,0.3-0.7,0.6-0.9c0.2-0.3,0.5-0.5,0.8-0.6c-0.5-0.1-0.9-0.3-1.3-0.7
	c-0.3-0.4-0.5-0.8-0.5-1.3c0-0.3,0.1-0.7,0.2-1c0.2-0.3,0.4-0.6,0.7-0.8c0.3-0.2,0.7-0.4,1.1-0.5c0.5-0.1,1-0.2,1.5-0.2h0.5h0.6h0.6
	h0.5c0.1,0,0.3,0.1,0.4,0.2c0.1,0.1,0.1,0.3,0.1,0.4v7.2L181.2,55.7z M179.8,48.9c-0.2,0-0.4,0-0.6,0h-0.6c-0.3,0-0.7,0-1,0.1
	c-0.2,0-0.4,0.1-0.6,0.3c-0.1,0.1-0.3,0.3-0.3,0.4c-0.1,0.2-0.1,0.4-0.1,0.5c0,0.2,0,0.4,0.1,0.5c0.1,0.2,0.2,0.3,0.4,0.4
	c0.2,0.1,0.4,0.2,0.6,0.2c0.3,0.1,0.7,0.1,1,0.1h1.1L179.8,48.9z"/>
<path class="st1" d="M192.9,48.5c0,0.1,0,0.2,0,0.3c0,0.1,0,0.1-0.1,0.2c0,0-0.1,0.1-0.1,0.1c0,0-0.1,0-0.1,0h-2.3v6.5
	c0,0,0,0.1,0,0.1c0,0-0.1,0.1-0.1,0.1c-0.1,0-0.1,0-0.2,0h-0.3h-0.3l-0.2,0c0,0-0.1,0-0.1-0.1c0,0,0-0.1,0-0.1v-6.5h-2.3
	c0,0-0.1,0-0.1,0c0,0-0.1-0.1-0.1-0.1c0-0.1,0-0.1-0.1-0.2c0-0.1,0-0.2,0-0.3c0-0.1,0-0.2,0-0.3c0-0.1,0-0.1,0.1-0.2
	c0,0,0.1-0.1,0.1-0.1c0,0,0.1,0,0.1,0h5.9c0,0,0.1,0,0.1,0c0,0,0.1,0.1,0.1,0.1c0,0.1,0,0.1,0.1,0.2C193,48.4,193,48.4,192.9,48.5z"
	/>
<path class="st1" d="M200.5,55.7C200.5,55.7,200.5,55.8,200.5,55.7c0,0.1-0.1,0.1-0.1,0.2h-0.2h-0.3h-0.4h-0.2c0,0-0.1,0-0.1-0.1
	c0,0,0-0.1-0.1-0.1l-0.8-2c-0.1-0.2-0.2-0.4-0.3-0.7c-0.1-0.2-0.2-0.3-0.4-0.4c-0.2-0.1-0.3-0.2-0.5-0.2c-0.2-0.1-0.4-0.1-0.6-0.1
	h-0.6v3.4c0,0,0,0.1,0,0.1c0,0-0.1,0.1-0.1,0.1h-0.2h-0.3h-0.3h-0.2c0,0-0.1,0-0.1-0.1c0,0,0-0.1,0-0.1V48c0,0,0-0.1,0-0.1
	c0,0,0.1,0,0.1-0.1h0.2h0.6h0.2c0,0,0.1,0,0.1,0.1c0,0,0,0.1,0,0.1v3.2h0.6c0.2,0,0.4,0,0.6-0.1c0.2,0,0.3-0.1,0.5-0.2
	c0.2-0.1,0.3-0.3,0.4-0.4c0.1-0.2,0.2-0.4,0.3-0.6l0.7-1.7c0-0.1,0.1-0.2,0.2-0.2c0.1,0,0.1,0,0.2,0h0.7h0.2c0,0,0.1,0,0.1,0.1
	c0,0,0,0.1,0,0.1c0,0.1,0,0.1,0,0.2c0,0.1,0,0.1-0.1,0.2l-0.7,1.7c-0.1,0.2-0.2,0.5-0.4,0.7c-0.1,0.2-0.3,0.3-0.4,0.5
	c-0.1,0.1-0.3,0.2-0.4,0.3c-0.1,0.1-0.3,0.1-0.4,0.2l0,0c0.2,0.1,0.4,0.1,0.5,0.2c0.2,0.1,0.3,0.2,0.5,0.3c0.2,0.2,0.3,0.3,0.4,0.5
	c0.1,0.2,0.3,0.4,0.4,0.7l0.8,1.9l0.1,0.1c0,0,0,0.1,0,0.1L200.5,55.7C200.5,55.7,200.5,55.7,200.5,55.7z"/>
<path class="st1" d="M207.7,55.7c0,0.1,0,0.1-0.1,0.2c-0.1,0-0.1,0.1-0.2,0.1c-0.1,0-0.2,0-0.3,0c-0.1,0-0.2,0-0.4,0
	c-0.1,0-0.1,0-0.2-0.1c0,0-0.1-0.1-0.1-0.2v-0.8c-0.3,0.3-0.7,0.6-1.1,0.8c-0.4,0.2-0.8,0.3-1.3,0.3c-0.4,0-0.7,0-1.1-0.2
	c-0.3-0.1-0.6-0.2-0.8-0.5c-0.2-0.2-0.4-0.4-0.5-0.7c-0.1-0.3-0.2-0.7-0.2-1c0-0.4,0.1-0.8,0.3-1.1c0.2-0.3,0.4-0.6,0.8-0.8
	c0.4-0.2,0.8-0.4,1.2-0.5c0.5-0.1,1.1-0.2,1.6-0.2h1v-0.6c0-0.3,0-0.5-0.1-0.8c-0.1-0.4-0.4-0.8-0.8-0.9c-0.3-0.1-0.5-0.1-0.8-0.1
	c-0.3,0-0.6,0-0.9,0.1c-0.2,0.1-0.5,0.2-0.7,0.3c-0.2,0.1-0.4,0.2-0.5,0.3c-0.1,0.1-0.2,0.1-0.3,0.1c0,0-0.1,0-0.1,0
	c0,0-0.1-0.1-0.1-0.1c0-0.1,0-0.1-0.1-0.2c0-0.1,0-0.2,0-0.2c0-0.1,0-0.2,0-0.3c0-0.1,0.1-0.2,0.1-0.2c0.1-0.1,0.2-0.2,0.4-0.2
	c0.2-0.1,0.4-0.2,0.6-0.3c0.3-0.1,0.5-0.2,0.8-0.2c0.3-0.1,0.6-0.1,0.9-0.1c0.5,0,0.9,0.1,1.4,0.2c0.3,0.1,0.7,0.3,0.9,0.5
	c0.2,0.2,0.4,0.5,0.5,0.9c0.1,0.4,0.2,0.8,0.2,1.2L207.7,55.7L207.7,55.7z M206.3,52.2h-1.2c-0.3,0-0.7,0-1,0.1
	c-0.2,0.1-0.5,0.2-0.7,0.3c-0.2,0.1-0.3,0.3-0.4,0.5c-0.1,0.2-0.1,0.4-0.1,0.6c0,0.4,0.1,0.7,0.4,0.9c0.3,0.2,0.6,0.4,1,0.3
	c0.4,0,0.7-0.1,1-0.3c0.4-0.2,0.7-0.5,1-0.8L206.3,52.2z"/>
<path class="st1" d="M216.9,55.7c0,0,0,0.1,0,0.1c0,0-0.1,0.1-0.1,0.1c-0.1,0-0.1,0-0.2,0h-0.3h-0.4c-0.1,0-0.1,0-0.2,0
	c0,0-0.1,0-0.1-0.1c0,0,0-0.1,0-0.1v-3.3h-3.9v3.3c0,0,0,0.1,0,0.1c0,0-0.1,0.1-0.1,0.1c-0.1,0-0.1,0-0.2,0H211h-0.3
	c-0.1,0-0.1,0-0.2,0c0,0-0.1,0-0.1-0.1c0,0,0-0.1,0-0.1v-7.6c0,0,0-0.1,0-0.1c0,0,0.1-0.1,0.1-0.1c0.1,0,0.1,0,0.2,0h0.7
	c0.1,0,0.1,0,0.2,0c0,0,0.1,0,0.1,0.1c0,0,0,0.1,0,0.1v3.1h3.9v-3.1c0,0,0-0.1,0-0.1c0,0,0.1-0.1,0.1-0.1c0.1,0,0.1,0,0.2,0h0.7
	c0.1,0,0.1,0,0.2,0c0,0,0.1,0,0.1,0.1c0,0,0,0.1,0,0.1L216.9,55.7z"/>
<path class="st1" d="M225.8,53.3c0,0.4-0.1,0.7-0.2,1.1c-0.1,0.3-0.4,0.6-0.7,0.9c-0.3,0.3-0.7,0.5-1.2,0.6
	c-0.6,0.2-1.1,0.2-1.7,0.2h-0.4h-0.5h-0.5h-0.4c-0.4,0-0.7-0.3-0.7-0.7c0,0,0-0.1,0-0.1v-7c0,0,0-0.1,0-0.1c0,0,0.1-0.1,0.1-0.1
	c0.1,0,0.1,0,0.2,0h0.7c0.1,0,0.1,0,0.2,0c0,0,0.1,0,0.1,0.1c0,0,0,0.1,0,0.1v2.7h0.7h0.7c0.5,0,1.1,0.1,1.6,0.2
	c0.4,0.1,0.8,0.3,1.1,0.5c0.3,0.2,0.5,0.5,0.6,0.8C225.6,52.7,225.7,53,225.8,53.3L225.8,53.3z M224.3,53.4c0-0.2,0-0.4-0.1-0.6
	c-0.1-0.2-0.2-0.4-0.4-0.5c-0.2-0.1-0.4-0.2-0.7-0.3c-0.3-0.1-0.7-0.1-1-0.1h-0.7h-0.6v2.9l0.6,0.1h0.8c0.5,0,1.1-0.1,1.6-0.4
	C224.1,54.1,224.3,53.8,224.3,53.4L224.3,53.4z"/>
<path class="st2" d="M60.1,37.1V9.6h-10V0.7h31v8.9h-10v27.5H60.1z M70.7,36.8L70.7,36.8L70.7,36.8z M50.6,9h10v27.4h9.8V9h10V1.3
	H50.6V9z"/>
<path class="st2" d="M84.1,37.1V0.7h25.4v8.9H95v3.5h13.3V22H95v6.1h14.5v8.9H84.1z M109.2,36.8L109.2,36.8L109.2,36.8z M84.7,36.5
	h24.2v-7.7H94.4v-7.3h13.3v-7.7H94.4V9h14.5V1.3H84.7V36.5z"/>
<path class="st2" d="M134.2,37.1L123,16.9v20.1h-10.2V0.7h12.4l8.9,16v-16h10.2v36.4H134.2z M144,36.8L144,36.8L144,36.8z
	 M134.5,36.5h9.2V1.3h-9V19l-9.9-17.7h-11.4v35.2h9V14.6L134.5,36.5z"/>
<path class="st3" d="M173.3,33.7c2.3-1.5,4.2-3.6,5.4-6c1.5-2.7,2.2-5.7,2.2-8.8c0.1-3.1-0.6-6.1-2-8.9c-1.3-2.4-3.2-4.5-5.5-6
	c-1.8-1.2-3.9-2-6.1-2.3c-2.2-0.3-4.5-0.5-6.8-0.5h-11.2v35.2h11.2c2.2,0,4.5-0.2,6.7-0.5C169.4,35.6,171.5,34.9,173.3,33.7z
	 M163.5,28.8c-1.1,0.1-2.5,0.1-4,0.1h-0.3v-20h0.3c1.4,0,2.6,0,3.8,0.1c1.2,0.1,2.3,0.4,3.4,1c1.4,0.8,2.6,2,3.2,3.5
	c0.8,1.7,1.1,3.6,1.1,5.5c0.1,1.9-0.3,3.7-1,5.4c-0.6,1.4-1.7,2.6-3,3.4C165.9,28.3,164.7,28.7,163.5,28.8z"/>
<path class="st2" d="M169.9,24.3c0.7-1.7,1.1-3.5,1-5.4c0.1-1.9-0.3-3.7-1-5.4c-0.7-1.5-1.8-2.7-3.2-3.5c-1-0.6-2.2-0.9-3.4-1
	c-1.1,0-2.4-0.1-3.8-0.1h-0.3v20h0.3c1.6,0,2.9,0,4-0.1c1.2-0.1,2.4-0.5,3.4-1.1C168.2,26.8,169.2,25.7,169.9,24.3z M159.4,9.4
	L159.4,9.4z M166.6,27.1c-0.9,0.6-2,0.9-3.2,1c-1,0.1-2.3,0.1-3.7,0.1V9.4c1.2,0,2.4,0,3.4,0.1c1.1,0.1,2.1,0.4,3.1,0.9
	c1.3,0.7,2.4,1.8,3,3.2c0.7,1.6,1.1,3.4,1,5.2c0.1,1.8-0.3,3.5-1,5.1C168.7,25.3,167.8,26.4,166.6,27.1z"/>
<path class="st2" d="M179.4,9.8c-1.3-2.5-3.3-4.7-5.7-6.2c-1.9-1.2-4.1-2.1-6.3-2.4c-2.3-0.3-4.6-0.5-6.9-0.5h-11.8v36.4h11.8v-0.6
	h-11.2V1.3h11.1c2.3,0,4.5,0.1,6.8,0.5c2.2,0.3,4.3,1.1,6.1,2.3c2.3,1.5,4.2,3.6,5.5,6c1.4,2.7,2.1,5.8,2,8.9c0,3.1-0.7,6.1-2.2,8.8
	c-1.3,2.4-3.2,4.5-5.4,6c-1.8,1.2-3.9,2-6,2.3c-2.2,0.3-4.5,0.5-6.7,0.5V37c2.3,0,4.6-0.2,6.8-0.5c2.2-0.3,4.3-1.1,6.2-2.4
	c2.4-1.6,4.3-3.7,5.6-6.2c1.5-2.8,2.3-5.9,2.2-9.1C181.5,15.8,180.8,12.6,179.4,9.8z"/>
<polygon class="st4" points="11,0.7 0.7,11.1 0.7,36.7 29.2,36.7 39.5,26.3 39.5,0.7 "/>
<polygon class="st5" points="20.1,34.7 20.1,2.7 11.8,2.7 2.7,11.9 2.7,34.7 "/>
<polygon class="st6" points="20.1,2.7 20.1,34.7 28.4,34.7 37.6,25.5 37.6,2.7 "/>
<path class="st0" d="M194.2,25.5c0,0.1,0,0.1-0.1,0.2c0,0.1-0.1,0.1-0.2,0.1c-0.1,0-0.3,0.1-0.4,0.1c-0.2,0-0.4,0-0.6,0
	c-0.3,0-0.6,0-0.9,0c-0.1,0-0.3-0.1-0.4-0.1c-0.1-0.1-0.1-0.2-0.2-0.2l-3.6-5.6v5.6c0,0.1,0,0.1-0.1,0.2c0,0.1-0.1,0.1-0.2,0.1
	c-0.1,0-0.2,0.1-0.4,0.1c-0.2,0-0.4,0-0.6,0c-0.2,0-0.4,0-0.6,0c-0.1,0-0.3,0-0.4-0.1c-0.1,0-0.1-0.1-0.2-0.1c0,0-0.1-0.1-0.1-0.2
	V14.3c0-0.1,0-0.1,0.1-0.2c0.1-0.1,0.1-0.1,0.2-0.1c0.1,0,0.2-0.1,0.4-0.1c0.2,0,0.4,0,0.6,0c0.2,0,0.4,0,0.6,0c0.1,0,0.2,0,0.4,0.1
	c0.1,0,0.1,0.1,0.2,0.1c0,0,0.1,0.1,0.1,0.2v5.1l3.5-5c0.1-0.2,0.2-0.3,0.4-0.3c0.1,0,0.3-0.1,0.4-0.1h0.6c0.2,0,0.4,0,0.6,0
	c0.1,0,0.3,0,0.4,0.1c0.1,0,0.1,0.1,0.2,0.1c0,0,0.1,0.1,0.1,0.2c0,0.1,0,0.2-0.1,0.3c-0.1,0.1-0.2,0.3-0.3,0.5l-3.3,4.3l3.6,5.4
	c0.1,0.2,0.2,0.3,0.2,0.5C194.2,25.4,194.2,25.4,194.2,25.5z"/>
<path class="st0" d="M209.7,25.5c0,0.1,0,0.1-0.1,0.2c0,0.1-0.1,0.1-0.2,0.1c-0.1,0-0.2,0.1-0.4,0.1c-0.2,0-0.4,0-0.6,0
	c-0.2,0-0.4,0-0.6,0c-0.1,0-0.2,0-0.4-0.1c-0.1,0-0.1-0.1-0.2-0.1c0,0-0.1-0.1-0.1-0.2v-9.7l0,0l-3.4,9.7c0,0.1-0.1,0.1-0.1,0.2
	c-0.1,0.1-0.1,0.1-0.2,0.1c-0.1,0-0.2,0.1-0.4,0.1h-0.5h-0.5c-0.1,0-0.2,0-0.4-0.1c-0.1,0-0.2-0.1-0.2-0.1c-0.1,0-0.1-0.1-0.1-0.2
	l-3.3-9.7l0,0v9.7c0,0.1,0,0.1-0.1,0.2c0,0.1-0.1,0.1-0.2,0.1c-0.1,0-0.2,0.1-0.4,0.1c-0.2,0-0.4,0-0.6,0c-0.2,0-0.4,0-0.6,0
	c-0.1,0-0.2,0-0.4-0.1c-0.1,0-0.1-0.1-0.2-0.1c0,0-0.1-0.1-0.1-0.2V14.9c0-0.3,0.1-0.5,0.2-0.7c0.2-0.2,0.4-0.3,0.7-0.2h1.6
	c0.2,0,0.5,0,0.7,0.1c0.2,0,0.4,0.1,0.5,0.2c0.2,0.1,0.3,0.3,0.4,0.4c0.1,0.2,0.2,0.4,0.3,0.6l2.5,7.1l0,0l2.7-7.1
	c0.1-0.2,0.2-0.4,0.3-0.6c0.1-0.2,0.2-0.3,0.3-0.4c0.1-0.1,0.3-0.2,0.4-0.2c0.2,0,0.4-0.1,0.6-0.1h1.6c0.1,0,0.3,0,0.4,0.1
	c0.1,0,0.2,0.1,0.3,0.2c0.1,0.1,0.1,0.2,0.2,0.3c0,0.1,0.1,0.3,0.1,0.4L209.7,25.5z"/>
<path class="st0" d="M216.2,21.2c0,0.3,0,0.5-0.1,0.8c-0.1,0.1-0.2,0.2-0.3,0.2h-3.8c-0.1,0-0.3-0.1-0.3-0.2
	c-0.1-0.2-0.1-0.5-0.1-0.7c0-0.2,0-0.5,0.1-0.7c0.1-0.1,0.2-0.2,0.3-0.2h3.8c0.1,0,0.1,0,0.2,0c0.1,0,0.1,0.1,0.1,0.2
	c0,0.1,0.1,0.2,0.1,0.3C216.2,20.9,216.2,21.1,216.2,21.2z"/>
<path class="st0" d="M225.7,19.9c0,0.9-0.1,1.7-0.2,2.6c-0.1,0.7-0.4,1.4-0.8,2c-0.3,0.5-0.8,1-1.4,1.2c-0.6,0.3-1.3,0.4-2,0.4
	c-0.7,0-1.4-0.1-2-0.4c-0.5-0.3-1-0.7-1.3-1.2c-0.3-0.6-0.6-1.2-0.7-1.9c-0.1-0.8-0.2-1.7-0.2-2.6c0-0.9,0.1-1.7,0.2-2.6
	c0.1-0.7,0.4-1.4,0.8-2c0.3-0.5,0.8-1,1.3-1.2c1.3-0.6,2.7-0.6,4,0c0.5,0.3,1,0.7,1.3,1.2c0.3,0.6,0.6,1.2,0.6,1.9
	C225.6,18.2,225.7,19,225.7,19.9L225.7,19.9z M223.3,20c0-0.6,0-1.1,0-1.5c0-0.4-0.1-0.7-0.1-1.1c-0.1-0.3-0.1-0.5-0.2-0.8
	c-0.1-0.2-0.2-0.4-0.3-0.5c-0.1-0.1-0.3-0.2-0.5-0.3c-0.2-0.1-0.4-0.1-0.6-0.1c-0.3,0-0.6,0.1-0.9,0.3c-0.3,0.2-0.5,0.5-0.6,0.8
	c-0.2,0.4-0.3,0.9-0.3,1.3c-0.1,0.6-0.1,1.2-0.1,1.8c0,0.7,0,1.4,0.1,2.1c0,0.5,0.2,0.9,0.3,1.3c0.1,0.3,0.3,0.5,0.6,0.7
	c0.5,0.2,1,0.3,1.4,0.1c0.2-0.1,0.3-0.2,0.5-0.3c0.1-0.2,0.3-0.4,0.3-0.6c0.1-0.3,0.2-0.5,0.2-0.8c0.1-0.3,0.1-0.7,0.1-1
	C223.3,20.9,223.3,20.5,223.3,20z"/>
</svg>
